G04 EAGLE Gerber RS-274X export*
G75*
%MOMM*%
%FSLAX34Y34*%
%LPD*%
%IN*%
%IPPOS*%
%AMOC8*
5,1,8,0,0,1.08239X$1,22.5*%
G01*
%ADD10C,0.000000*%


D10*
X0Y0D02*
X901500Y0D01*
X901500Y1203200D01*
X0Y1203200D01*
X0Y0D01*
X711600Y419100D02*
X711608Y419714D01*
X711630Y420327D01*
X711668Y420939D01*
X711720Y421550D01*
X711788Y422160D01*
X711871Y422768D01*
X711968Y423374D01*
X712080Y423977D01*
X712207Y424578D01*
X712349Y425175D01*
X712506Y425768D01*
X712676Y426357D01*
X712862Y426942D01*
X713061Y427522D01*
X713275Y428097D01*
X713503Y428667D01*
X713745Y429231D01*
X714000Y429789D01*
X714269Y430340D01*
X714552Y430885D01*
X714848Y431422D01*
X715157Y431953D01*
X715479Y432475D01*
X715813Y432989D01*
X716160Y433495D01*
X716520Y433992D01*
X716891Y434481D01*
X717275Y434960D01*
X717670Y435429D01*
X718076Y435889D01*
X718494Y436339D01*
X718922Y436778D01*
X719361Y437206D01*
X719811Y437624D01*
X720271Y438030D01*
X720740Y438425D01*
X721219Y438809D01*
X721708Y439180D01*
X722205Y439540D01*
X722711Y439887D01*
X723225Y440221D01*
X723747Y440543D01*
X724278Y440852D01*
X724815Y441148D01*
X725360Y441431D01*
X725911Y441700D01*
X726469Y441955D01*
X727033Y442197D01*
X727603Y442425D01*
X728178Y442639D01*
X728758Y442838D01*
X729343Y443024D01*
X729932Y443194D01*
X730525Y443351D01*
X731122Y443493D01*
X731723Y443620D01*
X732326Y443732D01*
X732932Y443829D01*
X733540Y443912D01*
X734150Y443980D01*
X734761Y444032D01*
X735373Y444070D01*
X735986Y444092D01*
X736600Y444100D01*
X737214Y444092D01*
X737827Y444070D01*
X738439Y444032D01*
X739050Y443980D01*
X739660Y443912D01*
X740268Y443829D01*
X740874Y443732D01*
X741477Y443620D01*
X742078Y443493D01*
X742675Y443351D01*
X743268Y443194D01*
X743857Y443024D01*
X744442Y442838D01*
X745022Y442639D01*
X745597Y442425D01*
X746167Y442197D01*
X746731Y441955D01*
X747289Y441700D01*
X747840Y441431D01*
X748385Y441148D01*
X748922Y440852D01*
X749453Y440543D01*
X749975Y440221D01*
X750489Y439887D01*
X750995Y439540D01*
X751492Y439180D01*
X751981Y438809D01*
X752460Y438425D01*
X752929Y438030D01*
X753389Y437624D01*
X753839Y437206D01*
X754278Y436778D01*
X754706Y436339D01*
X755124Y435889D01*
X755530Y435429D01*
X755925Y434960D01*
X756309Y434481D01*
X756680Y433992D01*
X757040Y433495D01*
X757387Y432989D01*
X757721Y432475D01*
X758043Y431953D01*
X758352Y431422D01*
X758648Y430885D01*
X758931Y430340D01*
X759200Y429789D01*
X759455Y429231D01*
X759697Y428667D01*
X759925Y428097D01*
X760139Y427522D01*
X760338Y426942D01*
X760524Y426357D01*
X760694Y425768D01*
X760851Y425175D01*
X760993Y424578D01*
X761120Y423977D01*
X761232Y423374D01*
X761329Y422768D01*
X761412Y422160D01*
X761480Y421550D01*
X761532Y420939D01*
X761570Y420327D01*
X761592Y419714D01*
X761600Y419100D01*
X761592Y418486D01*
X761570Y417873D01*
X761532Y417261D01*
X761480Y416650D01*
X761412Y416040D01*
X761329Y415432D01*
X761232Y414826D01*
X761120Y414223D01*
X760993Y413622D01*
X760851Y413025D01*
X760694Y412432D01*
X760524Y411843D01*
X760338Y411258D01*
X760139Y410678D01*
X759925Y410103D01*
X759697Y409533D01*
X759455Y408969D01*
X759200Y408411D01*
X758931Y407860D01*
X758648Y407315D01*
X758352Y406778D01*
X758043Y406247D01*
X757721Y405725D01*
X757387Y405211D01*
X757040Y404705D01*
X756680Y404208D01*
X756309Y403719D01*
X755925Y403240D01*
X755530Y402771D01*
X755124Y402311D01*
X754706Y401861D01*
X754278Y401422D01*
X753839Y400994D01*
X753389Y400576D01*
X752929Y400170D01*
X752460Y399775D01*
X751981Y399391D01*
X751492Y399020D01*
X750995Y398660D01*
X750489Y398313D01*
X749975Y397979D01*
X749453Y397657D01*
X748922Y397348D01*
X748385Y397052D01*
X747840Y396769D01*
X747289Y396500D01*
X746731Y396245D01*
X746167Y396003D01*
X745597Y395775D01*
X745022Y395561D01*
X744442Y395362D01*
X743857Y395176D01*
X743268Y395006D01*
X742675Y394849D01*
X742078Y394707D01*
X741477Y394580D01*
X740874Y394468D01*
X740268Y394371D01*
X739660Y394288D01*
X739050Y394220D01*
X738439Y394168D01*
X737827Y394130D01*
X737214Y394108D01*
X736600Y394100D01*
X735986Y394108D01*
X735373Y394130D01*
X734761Y394168D01*
X734150Y394220D01*
X733540Y394288D01*
X732932Y394371D01*
X732326Y394468D01*
X731723Y394580D01*
X731122Y394707D01*
X730525Y394849D01*
X729932Y395006D01*
X729343Y395176D01*
X728758Y395362D01*
X728178Y395561D01*
X727603Y395775D01*
X727033Y396003D01*
X726469Y396245D01*
X725911Y396500D01*
X725360Y396769D01*
X724815Y397052D01*
X724278Y397348D01*
X723747Y397657D01*
X723225Y397979D01*
X722711Y398313D01*
X722205Y398660D01*
X721708Y399020D01*
X721219Y399391D01*
X720740Y399775D01*
X720271Y400170D01*
X719811Y400576D01*
X719361Y400994D01*
X718922Y401422D01*
X718494Y401861D01*
X718076Y402311D01*
X717670Y402771D01*
X717275Y403240D01*
X716891Y403719D01*
X716520Y404208D01*
X716160Y404705D01*
X715813Y405211D01*
X715479Y405725D01*
X715157Y406247D01*
X714848Y406778D01*
X714552Y407315D01*
X714269Y407860D01*
X714000Y408411D01*
X713745Y408969D01*
X713503Y409533D01*
X713275Y410103D01*
X713061Y410678D01*
X712862Y411258D01*
X712676Y411843D01*
X712506Y412432D01*
X712349Y413025D01*
X712207Y413622D01*
X712080Y414223D01*
X711968Y414826D01*
X711871Y415432D01*
X711788Y416040D01*
X711720Y416650D01*
X711668Y417261D01*
X711630Y417873D01*
X711608Y418486D01*
X711600Y419100D01*
X775100Y419100D02*
X775108Y419714D01*
X775130Y420327D01*
X775168Y420939D01*
X775220Y421550D01*
X775288Y422160D01*
X775371Y422768D01*
X775468Y423374D01*
X775580Y423977D01*
X775707Y424578D01*
X775849Y425175D01*
X776006Y425768D01*
X776176Y426357D01*
X776362Y426942D01*
X776561Y427522D01*
X776775Y428097D01*
X777003Y428667D01*
X777245Y429231D01*
X777500Y429789D01*
X777769Y430340D01*
X778052Y430885D01*
X778348Y431422D01*
X778657Y431953D01*
X778979Y432475D01*
X779313Y432989D01*
X779660Y433495D01*
X780020Y433992D01*
X780391Y434481D01*
X780775Y434960D01*
X781170Y435429D01*
X781576Y435889D01*
X781994Y436339D01*
X782422Y436778D01*
X782861Y437206D01*
X783311Y437624D01*
X783771Y438030D01*
X784240Y438425D01*
X784719Y438809D01*
X785208Y439180D01*
X785705Y439540D01*
X786211Y439887D01*
X786725Y440221D01*
X787247Y440543D01*
X787778Y440852D01*
X788315Y441148D01*
X788860Y441431D01*
X789411Y441700D01*
X789969Y441955D01*
X790533Y442197D01*
X791103Y442425D01*
X791678Y442639D01*
X792258Y442838D01*
X792843Y443024D01*
X793432Y443194D01*
X794025Y443351D01*
X794622Y443493D01*
X795223Y443620D01*
X795826Y443732D01*
X796432Y443829D01*
X797040Y443912D01*
X797650Y443980D01*
X798261Y444032D01*
X798873Y444070D01*
X799486Y444092D01*
X800100Y444100D01*
X800714Y444092D01*
X801327Y444070D01*
X801939Y444032D01*
X802550Y443980D01*
X803160Y443912D01*
X803768Y443829D01*
X804374Y443732D01*
X804977Y443620D01*
X805578Y443493D01*
X806175Y443351D01*
X806768Y443194D01*
X807357Y443024D01*
X807942Y442838D01*
X808522Y442639D01*
X809097Y442425D01*
X809667Y442197D01*
X810231Y441955D01*
X810789Y441700D01*
X811340Y441431D01*
X811885Y441148D01*
X812422Y440852D01*
X812953Y440543D01*
X813475Y440221D01*
X813989Y439887D01*
X814495Y439540D01*
X814992Y439180D01*
X815481Y438809D01*
X815960Y438425D01*
X816429Y438030D01*
X816889Y437624D01*
X817339Y437206D01*
X817778Y436778D01*
X818206Y436339D01*
X818624Y435889D01*
X819030Y435429D01*
X819425Y434960D01*
X819809Y434481D01*
X820180Y433992D01*
X820540Y433495D01*
X820887Y432989D01*
X821221Y432475D01*
X821543Y431953D01*
X821852Y431422D01*
X822148Y430885D01*
X822431Y430340D01*
X822700Y429789D01*
X822955Y429231D01*
X823197Y428667D01*
X823425Y428097D01*
X823639Y427522D01*
X823838Y426942D01*
X824024Y426357D01*
X824194Y425768D01*
X824351Y425175D01*
X824493Y424578D01*
X824620Y423977D01*
X824732Y423374D01*
X824829Y422768D01*
X824912Y422160D01*
X824980Y421550D01*
X825032Y420939D01*
X825070Y420327D01*
X825092Y419714D01*
X825100Y419100D01*
X825092Y418486D01*
X825070Y417873D01*
X825032Y417261D01*
X824980Y416650D01*
X824912Y416040D01*
X824829Y415432D01*
X824732Y414826D01*
X824620Y414223D01*
X824493Y413622D01*
X824351Y413025D01*
X824194Y412432D01*
X824024Y411843D01*
X823838Y411258D01*
X823639Y410678D01*
X823425Y410103D01*
X823197Y409533D01*
X822955Y408969D01*
X822700Y408411D01*
X822431Y407860D01*
X822148Y407315D01*
X821852Y406778D01*
X821543Y406247D01*
X821221Y405725D01*
X820887Y405211D01*
X820540Y404705D01*
X820180Y404208D01*
X819809Y403719D01*
X819425Y403240D01*
X819030Y402771D01*
X818624Y402311D01*
X818206Y401861D01*
X817778Y401422D01*
X817339Y400994D01*
X816889Y400576D01*
X816429Y400170D01*
X815960Y399775D01*
X815481Y399391D01*
X814992Y399020D01*
X814495Y398660D01*
X813989Y398313D01*
X813475Y397979D01*
X812953Y397657D01*
X812422Y397348D01*
X811885Y397052D01*
X811340Y396769D01*
X810789Y396500D01*
X810231Y396245D01*
X809667Y396003D01*
X809097Y395775D01*
X808522Y395561D01*
X807942Y395362D01*
X807357Y395176D01*
X806768Y395006D01*
X806175Y394849D01*
X805578Y394707D01*
X804977Y394580D01*
X804374Y394468D01*
X803768Y394371D01*
X803160Y394288D01*
X802550Y394220D01*
X801939Y394168D01*
X801327Y394130D01*
X800714Y394108D01*
X800100Y394100D01*
X799486Y394108D01*
X798873Y394130D01*
X798261Y394168D01*
X797650Y394220D01*
X797040Y394288D01*
X796432Y394371D01*
X795826Y394468D01*
X795223Y394580D01*
X794622Y394707D01*
X794025Y394849D01*
X793432Y395006D01*
X792843Y395176D01*
X792258Y395362D01*
X791678Y395561D01*
X791103Y395775D01*
X790533Y396003D01*
X789969Y396245D01*
X789411Y396500D01*
X788860Y396769D01*
X788315Y397052D01*
X787778Y397348D01*
X787247Y397657D01*
X786725Y397979D01*
X786211Y398313D01*
X785705Y398660D01*
X785208Y399020D01*
X784719Y399391D01*
X784240Y399775D01*
X783771Y400170D01*
X783311Y400576D01*
X782861Y400994D01*
X782422Y401422D01*
X781994Y401861D01*
X781576Y402311D01*
X781170Y402771D01*
X780775Y403240D01*
X780391Y403719D01*
X780020Y404208D01*
X779660Y404705D01*
X779313Y405211D01*
X778979Y405725D01*
X778657Y406247D01*
X778348Y406778D01*
X778052Y407315D01*
X777769Y407860D01*
X777500Y408411D01*
X777245Y408969D01*
X777003Y409533D01*
X776775Y410103D01*
X776561Y410678D01*
X776362Y411258D01*
X776176Y411843D01*
X776006Y412432D01*
X775849Y413025D01*
X775707Y413622D01*
X775580Y414223D01*
X775468Y414826D01*
X775371Y415432D01*
X775288Y416040D01*
X775220Y416650D01*
X775168Y417261D01*
X775130Y417873D01*
X775108Y418486D01*
X775100Y419100D01*
X838600Y419100D02*
X838608Y419714D01*
X838630Y420327D01*
X838668Y420939D01*
X838720Y421550D01*
X838788Y422160D01*
X838871Y422768D01*
X838968Y423374D01*
X839080Y423977D01*
X839207Y424578D01*
X839349Y425175D01*
X839506Y425768D01*
X839676Y426357D01*
X839862Y426942D01*
X840061Y427522D01*
X840275Y428097D01*
X840503Y428667D01*
X840745Y429231D01*
X841000Y429789D01*
X841269Y430340D01*
X841552Y430885D01*
X841848Y431422D01*
X842157Y431953D01*
X842479Y432475D01*
X842813Y432989D01*
X843160Y433495D01*
X843520Y433992D01*
X843891Y434481D01*
X844275Y434960D01*
X844670Y435429D01*
X845076Y435889D01*
X845494Y436339D01*
X845922Y436778D01*
X846361Y437206D01*
X846811Y437624D01*
X847271Y438030D01*
X847740Y438425D01*
X848219Y438809D01*
X848708Y439180D01*
X849205Y439540D01*
X849711Y439887D01*
X850225Y440221D01*
X850747Y440543D01*
X851278Y440852D01*
X851815Y441148D01*
X852360Y441431D01*
X852911Y441700D01*
X853469Y441955D01*
X854033Y442197D01*
X854603Y442425D01*
X855178Y442639D01*
X855758Y442838D01*
X856343Y443024D01*
X856932Y443194D01*
X857525Y443351D01*
X858122Y443493D01*
X858723Y443620D01*
X859326Y443732D01*
X859932Y443829D01*
X860540Y443912D01*
X861150Y443980D01*
X861761Y444032D01*
X862373Y444070D01*
X862986Y444092D01*
X863600Y444100D01*
X864214Y444092D01*
X864827Y444070D01*
X865439Y444032D01*
X866050Y443980D01*
X866660Y443912D01*
X867268Y443829D01*
X867874Y443732D01*
X868477Y443620D01*
X869078Y443493D01*
X869675Y443351D01*
X870268Y443194D01*
X870857Y443024D01*
X871442Y442838D01*
X872022Y442639D01*
X872597Y442425D01*
X873167Y442197D01*
X873731Y441955D01*
X874289Y441700D01*
X874840Y441431D01*
X875385Y441148D01*
X875922Y440852D01*
X876453Y440543D01*
X876975Y440221D01*
X877489Y439887D01*
X877995Y439540D01*
X878492Y439180D01*
X878981Y438809D01*
X879460Y438425D01*
X879929Y438030D01*
X880389Y437624D01*
X880839Y437206D01*
X881278Y436778D01*
X881706Y436339D01*
X882124Y435889D01*
X882530Y435429D01*
X882925Y434960D01*
X883309Y434481D01*
X883680Y433992D01*
X884040Y433495D01*
X884387Y432989D01*
X884721Y432475D01*
X885043Y431953D01*
X885352Y431422D01*
X885648Y430885D01*
X885931Y430340D01*
X886200Y429789D01*
X886455Y429231D01*
X886697Y428667D01*
X886925Y428097D01*
X887139Y427522D01*
X887338Y426942D01*
X887524Y426357D01*
X887694Y425768D01*
X887851Y425175D01*
X887993Y424578D01*
X888120Y423977D01*
X888232Y423374D01*
X888329Y422768D01*
X888412Y422160D01*
X888480Y421550D01*
X888532Y420939D01*
X888570Y420327D01*
X888592Y419714D01*
X888600Y419100D01*
X888592Y418486D01*
X888570Y417873D01*
X888532Y417261D01*
X888480Y416650D01*
X888412Y416040D01*
X888329Y415432D01*
X888232Y414826D01*
X888120Y414223D01*
X887993Y413622D01*
X887851Y413025D01*
X887694Y412432D01*
X887524Y411843D01*
X887338Y411258D01*
X887139Y410678D01*
X886925Y410103D01*
X886697Y409533D01*
X886455Y408969D01*
X886200Y408411D01*
X885931Y407860D01*
X885648Y407315D01*
X885352Y406778D01*
X885043Y406247D01*
X884721Y405725D01*
X884387Y405211D01*
X884040Y404705D01*
X883680Y404208D01*
X883309Y403719D01*
X882925Y403240D01*
X882530Y402771D01*
X882124Y402311D01*
X881706Y401861D01*
X881278Y401422D01*
X880839Y400994D01*
X880389Y400576D01*
X879929Y400170D01*
X879460Y399775D01*
X878981Y399391D01*
X878492Y399020D01*
X877995Y398660D01*
X877489Y398313D01*
X876975Y397979D01*
X876453Y397657D01*
X875922Y397348D01*
X875385Y397052D01*
X874840Y396769D01*
X874289Y396500D01*
X873731Y396245D01*
X873167Y396003D01*
X872597Y395775D01*
X872022Y395561D01*
X871442Y395362D01*
X870857Y395176D01*
X870268Y395006D01*
X869675Y394849D01*
X869078Y394707D01*
X868477Y394580D01*
X867874Y394468D01*
X867268Y394371D01*
X866660Y394288D01*
X866050Y394220D01*
X865439Y394168D01*
X864827Y394130D01*
X864214Y394108D01*
X863600Y394100D01*
X862986Y394108D01*
X862373Y394130D01*
X861761Y394168D01*
X861150Y394220D01*
X860540Y394288D01*
X859932Y394371D01*
X859326Y394468D01*
X858723Y394580D01*
X858122Y394707D01*
X857525Y394849D01*
X856932Y395006D01*
X856343Y395176D01*
X855758Y395362D01*
X855178Y395561D01*
X854603Y395775D01*
X854033Y396003D01*
X853469Y396245D01*
X852911Y396500D01*
X852360Y396769D01*
X851815Y397052D01*
X851278Y397348D01*
X850747Y397657D01*
X850225Y397979D01*
X849711Y398313D01*
X849205Y398660D01*
X848708Y399020D01*
X848219Y399391D01*
X847740Y399775D01*
X847271Y400170D01*
X846811Y400576D01*
X846361Y400994D01*
X845922Y401422D01*
X845494Y401861D01*
X845076Y402311D01*
X844670Y402771D01*
X844275Y403240D01*
X843891Y403719D01*
X843520Y404208D01*
X843160Y404705D01*
X842813Y405211D01*
X842479Y405725D01*
X842157Y406247D01*
X841848Y406778D01*
X841552Y407315D01*
X841269Y407860D01*
X841000Y408411D01*
X840745Y408969D01*
X840503Y409533D01*
X840275Y410103D01*
X840061Y410678D01*
X839862Y411258D01*
X839676Y411843D01*
X839506Y412432D01*
X839349Y413025D01*
X839207Y413622D01*
X839080Y414223D01*
X838968Y414826D01*
X838871Y415432D01*
X838788Y416040D01*
X838720Y416650D01*
X838668Y417261D01*
X838630Y417873D01*
X838608Y418486D01*
X838600Y419100D01*
X711600Y279400D02*
X711608Y280014D01*
X711630Y280627D01*
X711668Y281239D01*
X711720Y281850D01*
X711788Y282460D01*
X711871Y283068D01*
X711968Y283674D01*
X712080Y284277D01*
X712207Y284878D01*
X712349Y285475D01*
X712506Y286068D01*
X712676Y286657D01*
X712862Y287242D01*
X713061Y287822D01*
X713275Y288397D01*
X713503Y288967D01*
X713745Y289531D01*
X714000Y290089D01*
X714269Y290640D01*
X714552Y291185D01*
X714848Y291722D01*
X715157Y292253D01*
X715479Y292775D01*
X715813Y293289D01*
X716160Y293795D01*
X716520Y294292D01*
X716891Y294781D01*
X717275Y295260D01*
X717670Y295729D01*
X718076Y296189D01*
X718494Y296639D01*
X718922Y297078D01*
X719361Y297506D01*
X719811Y297924D01*
X720271Y298330D01*
X720740Y298725D01*
X721219Y299109D01*
X721708Y299480D01*
X722205Y299840D01*
X722711Y300187D01*
X723225Y300521D01*
X723747Y300843D01*
X724278Y301152D01*
X724815Y301448D01*
X725360Y301731D01*
X725911Y302000D01*
X726469Y302255D01*
X727033Y302497D01*
X727603Y302725D01*
X728178Y302939D01*
X728758Y303138D01*
X729343Y303324D01*
X729932Y303494D01*
X730525Y303651D01*
X731122Y303793D01*
X731723Y303920D01*
X732326Y304032D01*
X732932Y304129D01*
X733540Y304212D01*
X734150Y304280D01*
X734761Y304332D01*
X735373Y304370D01*
X735986Y304392D01*
X736600Y304400D01*
X737214Y304392D01*
X737827Y304370D01*
X738439Y304332D01*
X739050Y304280D01*
X739660Y304212D01*
X740268Y304129D01*
X740874Y304032D01*
X741477Y303920D01*
X742078Y303793D01*
X742675Y303651D01*
X743268Y303494D01*
X743857Y303324D01*
X744442Y303138D01*
X745022Y302939D01*
X745597Y302725D01*
X746167Y302497D01*
X746731Y302255D01*
X747289Y302000D01*
X747840Y301731D01*
X748385Y301448D01*
X748922Y301152D01*
X749453Y300843D01*
X749975Y300521D01*
X750489Y300187D01*
X750995Y299840D01*
X751492Y299480D01*
X751981Y299109D01*
X752460Y298725D01*
X752929Y298330D01*
X753389Y297924D01*
X753839Y297506D01*
X754278Y297078D01*
X754706Y296639D01*
X755124Y296189D01*
X755530Y295729D01*
X755925Y295260D01*
X756309Y294781D01*
X756680Y294292D01*
X757040Y293795D01*
X757387Y293289D01*
X757721Y292775D01*
X758043Y292253D01*
X758352Y291722D01*
X758648Y291185D01*
X758931Y290640D01*
X759200Y290089D01*
X759455Y289531D01*
X759697Y288967D01*
X759925Y288397D01*
X760139Y287822D01*
X760338Y287242D01*
X760524Y286657D01*
X760694Y286068D01*
X760851Y285475D01*
X760993Y284878D01*
X761120Y284277D01*
X761232Y283674D01*
X761329Y283068D01*
X761412Y282460D01*
X761480Y281850D01*
X761532Y281239D01*
X761570Y280627D01*
X761592Y280014D01*
X761600Y279400D01*
X761592Y278786D01*
X761570Y278173D01*
X761532Y277561D01*
X761480Y276950D01*
X761412Y276340D01*
X761329Y275732D01*
X761232Y275126D01*
X761120Y274523D01*
X760993Y273922D01*
X760851Y273325D01*
X760694Y272732D01*
X760524Y272143D01*
X760338Y271558D01*
X760139Y270978D01*
X759925Y270403D01*
X759697Y269833D01*
X759455Y269269D01*
X759200Y268711D01*
X758931Y268160D01*
X758648Y267615D01*
X758352Y267078D01*
X758043Y266547D01*
X757721Y266025D01*
X757387Y265511D01*
X757040Y265005D01*
X756680Y264508D01*
X756309Y264019D01*
X755925Y263540D01*
X755530Y263071D01*
X755124Y262611D01*
X754706Y262161D01*
X754278Y261722D01*
X753839Y261294D01*
X753389Y260876D01*
X752929Y260470D01*
X752460Y260075D01*
X751981Y259691D01*
X751492Y259320D01*
X750995Y258960D01*
X750489Y258613D01*
X749975Y258279D01*
X749453Y257957D01*
X748922Y257648D01*
X748385Y257352D01*
X747840Y257069D01*
X747289Y256800D01*
X746731Y256545D01*
X746167Y256303D01*
X745597Y256075D01*
X745022Y255861D01*
X744442Y255662D01*
X743857Y255476D01*
X743268Y255306D01*
X742675Y255149D01*
X742078Y255007D01*
X741477Y254880D01*
X740874Y254768D01*
X740268Y254671D01*
X739660Y254588D01*
X739050Y254520D01*
X738439Y254468D01*
X737827Y254430D01*
X737214Y254408D01*
X736600Y254400D01*
X735986Y254408D01*
X735373Y254430D01*
X734761Y254468D01*
X734150Y254520D01*
X733540Y254588D01*
X732932Y254671D01*
X732326Y254768D01*
X731723Y254880D01*
X731122Y255007D01*
X730525Y255149D01*
X729932Y255306D01*
X729343Y255476D01*
X728758Y255662D01*
X728178Y255861D01*
X727603Y256075D01*
X727033Y256303D01*
X726469Y256545D01*
X725911Y256800D01*
X725360Y257069D01*
X724815Y257352D01*
X724278Y257648D01*
X723747Y257957D01*
X723225Y258279D01*
X722711Y258613D01*
X722205Y258960D01*
X721708Y259320D01*
X721219Y259691D01*
X720740Y260075D01*
X720271Y260470D01*
X719811Y260876D01*
X719361Y261294D01*
X718922Y261722D01*
X718494Y262161D01*
X718076Y262611D01*
X717670Y263071D01*
X717275Y263540D01*
X716891Y264019D01*
X716520Y264508D01*
X716160Y265005D01*
X715813Y265511D01*
X715479Y266025D01*
X715157Y266547D01*
X714848Y267078D01*
X714552Y267615D01*
X714269Y268160D01*
X714000Y268711D01*
X713745Y269269D01*
X713503Y269833D01*
X713275Y270403D01*
X713061Y270978D01*
X712862Y271558D01*
X712676Y272143D01*
X712506Y272732D01*
X712349Y273325D01*
X712207Y273922D01*
X712080Y274523D01*
X711968Y275126D01*
X711871Y275732D01*
X711788Y276340D01*
X711720Y276950D01*
X711668Y277561D01*
X711630Y278173D01*
X711608Y278786D01*
X711600Y279400D01*
X775100Y279400D02*
X775108Y280014D01*
X775130Y280627D01*
X775168Y281239D01*
X775220Y281850D01*
X775288Y282460D01*
X775371Y283068D01*
X775468Y283674D01*
X775580Y284277D01*
X775707Y284878D01*
X775849Y285475D01*
X776006Y286068D01*
X776176Y286657D01*
X776362Y287242D01*
X776561Y287822D01*
X776775Y288397D01*
X777003Y288967D01*
X777245Y289531D01*
X777500Y290089D01*
X777769Y290640D01*
X778052Y291185D01*
X778348Y291722D01*
X778657Y292253D01*
X778979Y292775D01*
X779313Y293289D01*
X779660Y293795D01*
X780020Y294292D01*
X780391Y294781D01*
X780775Y295260D01*
X781170Y295729D01*
X781576Y296189D01*
X781994Y296639D01*
X782422Y297078D01*
X782861Y297506D01*
X783311Y297924D01*
X783771Y298330D01*
X784240Y298725D01*
X784719Y299109D01*
X785208Y299480D01*
X785705Y299840D01*
X786211Y300187D01*
X786725Y300521D01*
X787247Y300843D01*
X787778Y301152D01*
X788315Y301448D01*
X788860Y301731D01*
X789411Y302000D01*
X789969Y302255D01*
X790533Y302497D01*
X791103Y302725D01*
X791678Y302939D01*
X792258Y303138D01*
X792843Y303324D01*
X793432Y303494D01*
X794025Y303651D01*
X794622Y303793D01*
X795223Y303920D01*
X795826Y304032D01*
X796432Y304129D01*
X797040Y304212D01*
X797650Y304280D01*
X798261Y304332D01*
X798873Y304370D01*
X799486Y304392D01*
X800100Y304400D01*
X800714Y304392D01*
X801327Y304370D01*
X801939Y304332D01*
X802550Y304280D01*
X803160Y304212D01*
X803768Y304129D01*
X804374Y304032D01*
X804977Y303920D01*
X805578Y303793D01*
X806175Y303651D01*
X806768Y303494D01*
X807357Y303324D01*
X807942Y303138D01*
X808522Y302939D01*
X809097Y302725D01*
X809667Y302497D01*
X810231Y302255D01*
X810789Y302000D01*
X811340Y301731D01*
X811885Y301448D01*
X812422Y301152D01*
X812953Y300843D01*
X813475Y300521D01*
X813989Y300187D01*
X814495Y299840D01*
X814992Y299480D01*
X815481Y299109D01*
X815960Y298725D01*
X816429Y298330D01*
X816889Y297924D01*
X817339Y297506D01*
X817778Y297078D01*
X818206Y296639D01*
X818624Y296189D01*
X819030Y295729D01*
X819425Y295260D01*
X819809Y294781D01*
X820180Y294292D01*
X820540Y293795D01*
X820887Y293289D01*
X821221Y292775D01*
X821543Y292253D01*
X821852Y291722D01*
X822148Y291185D01*
X822431Y290640D01*
X822700Y290089D01*
X822955Y289531D01*
X823197Y288967D01*
X823425Y288397D01*
X823639Y287822D01*
X823838Y287242D01*
X824024Y286657D01*
X824194Y286068D01*
X824351Y285475D01*
X824493Y284878D01*
X824620Y284277D01*
X824732Y283674D01*
X824829Y283068D01*
X824912Y282460D01*
X824980Y281850D01*
X825032Y281239D01*
X825070Y280627D01*
X825092Y280014D01*
X825100Y279400D01*
X825092Y278786D01*
X825070Y278173D01*
X825032Y277561D01*
X824980Y276950D01*
X824912Y276340D01*
X824829Y275732D01*
X824732Y275126D01*
X824620Y274523D01*
X824493Y273922D01*
X824351Y273325D01*
X824194Y272732D01*
X824024Y272143D01*
X823838Y271558D01*
X823639Y270978D01*
X823425Y270403D01*
X823197Y269833D01*
X822955Y269269D01*
X822700Y268711D01*
X822431Y268160D01*
X822148Y267615D01*
X821852Y267078D01*
X821543Y266547D01*
X821221Y266025D01*
X820887Y265511D01*
X820540Y265005D01*
X820180Y264508D01*
X819809Y264019D01*
X819425Y263540D01*
X819030Y263071D01*
X818624Y262611D01*
X818206Y262161D01*
X817778Y261722D01*
X817339Y261294D01*
X816889Y260876D01*
X816429Y260470D01*
X815960Y260075D01*
X815481Y259691D01*
X814992Y259320D01*
X814495Y258960D01*
X813989Y258613D01*
X813475Y258279D01*
X812953Y257957D01*
X812422Y257648D01*
X811885Y257352D01*
X811340Y257069D01*
X810789Y256800D01*
X810231Y256545D01*
X809667Y256303D01*
X809097Y256075D01*
X808522Y255861D01*
X807942Y255662D01*
X807357Y255476D01*
X806768Y255306D01*
X806175Y255149D01*
X805578Y255007D01*
X804977Y254880D01*
X804374Y254768D01*
X803768Y254671D01*
X803160Y254588D01*
X802550Y254520D01*
X801939Y254468D01*
X801327Y254430D01*
X800714Y254408D01*
X800100Y254400D01*
X799486Y254408D01*
X798873Y254430D01*
X798261Y254468D01*
X797650Y254520D01*
X797040Y254588D01*
X796432Y254671D01*
X795826Y254768D01*
X795223Y254880D01*
X794622Y255007D01*
X794025Y255149D01*
X793432Y255306D01*
X792843Y255476D01*
X792258Y255662D01*
X791678Y255861D01*
X791103Y256075D01*
X790533Y256303D01*
X789969Y256545D01*
X789411Y256800D01*
X788860Y257069D01*
X788315Y257352D01*
X787778Y257648D01*
X787247Y257957D01*
X786725Y258279D01*
X786211Y258613D01*
X785705Y258960D01*
X785208Y259320D01*
X784719Y259691D01*
X784240Y260075D01*
X783771Y260470D01*
X783311Y260876D01*
X782861Y261294D01*
X782422Y261722D01*
X781994Y262161D01*
X781576Y262611D01*
X781170Y263071D01*
X780775Y263540D01*
X780391Y264019D01*
X780020Y264508D01*
X779660Y265005D01*
X779313Y265511D01*
X778979Y266025D01*
X778657Y266547D01*
X778348Y267078D01*
X778052Y267615D01*
X777769Y268160D01*
X777500Y268711D01*
X777245Y269269D01*
X777003Y269833D01*
X776775Y270403D01*
X776561Y270978D01*
X776362Y271558D01*
X776176Y272143D01*
X776006Y272732D01*
X775849Y273325D01*
X775707Y273922D01*
X775580Y274523D01*
X775468Y275126D01*
X775371Y275732D01*
X775288Y276340D01*
X775220Y276950D01*
X775168Y277561D01*
X775130Y278173D01*
X775108Y278786D01*
X775100Y279400D01*
X838600Y279400D02*
X838608Y280014D01*
X838630Y280627D01*
X838668Y281239D01*
X838720Y281850D01*
X838788Y282460D01*
X838871Y283068D01*
X838968Y283674D01*
X839080Y284277D01*
X839207Y284878D01*
X839349Y285475D01*
X839506Y286068D01*
X839676Y286657D01*
X839862Y287242D01*
X840061Y287822D01*
X840275Y288397D01*
X840503Y288967D01*
X840745Y289531D01*
X841000Y290089D01*
X841269Y290640D01*
X841552Y291185D01*
X841848Y291722D01*
X842157Y292253D01*
X842479Y292775D01*
X842813Y293289D01*
X843160Y293795D01*
X843520Y294292D01*
X843891Y294781D01*
X844275Y295260D01*
X844670Y295729D01*
X845076Y296189D01*
X845494Y296639D01*
X845922Y297078D01*
X846361Y297506D01*
X846811Y297924D01*
X847271Y298330D01*
X847740Y298725D01*
X848219Y299109D01*
X848708Y299480D01*
X849205Y299840D01*
X849711Y300187D01*
X850225Y300521D01*
X850747Y300843D01*
X851278Y301152D01*
X851815Y301448D01*
X852360Y301731D01*
X852911Y302000D01*
X853469Y302255D01*
X854033Y302497D01*
X854603Y302725D01*
X855178Y302939D01*
X855758Y303138D01*
X856343Y303324D01*
X856932Y303494D01*
X857525Y303651D01*
X858122Y303793D01*
X858723Y303920D01*
X859326Y304032D01*
X859932Y304129D01*
X860540Y304212D01*
X861150Y304280D01*
X861761Y304332D01*
X862373Y304370D01*
X862986Y304392D01*
X863600Y304400D01*
X864214Y304392D01*
X864827Y304370D01*
X865439Y304332D01*
X866050Y304280D01*
X866660Y304212D01*
X867268Y304129D01*
X867874Y304032D01*
X868477Y303920D01*
X869078Y303793D01*
X869675Y303651D01*
X870268Y303494D01*
X870857Y303324D01*
X871442Y303138D01*
X872022Y302939D01*
X872597Y302725D01*
X873167Y302497D01*
X873731Y302255D01*
X874289Y302000D01*
X874840Y301731D01*
X875385Y301448D01*
X875922Y301152D01*
X876453Y300843D01*
X876975Y300521D01*
X877489Y300187D01*
X877995Y299840D01*
X878492Y299480D01*
X878981Y299109D01*
X879460Y298725D01*
X879929Y298330D01*
X880389Y297924D01*
X880839Y297506D01*
X881278Y297078D01*
X881706Y296639D01*
X882124Y296189D01*
X882530Y295729D01*
X882925Y295260D01*
X883309Y294781D01*
X883680Y294292D01*
X884040Y293795D01*
X884387Y293289D01*
X884721Y292775D01*
X885043Y292253D01*
X885352Y291722D01*
X885648Y291185D01*
X885931Y290640D01*
X886200Y290089D01*
X886455Y289531D01*
X886697Y288967D01*
X886925Y288397D01*
X887139Y287822D01*
X887338Y287242D01*
X887524Y286657D01*
X887694Y286068D01*
X887851Y285475D01*
X887993Y284878D01*
X888120Y284277D01*
X888232Y283674D01*
X888329Y283068D01*
X888412Y282460D01*
X888480Y281850D01*
X888532Y281239D01*
X888570Y280627D01*
X888592Y280014D01*
X888600Y279400D01*
X888592Y278786D01*
X888570Y278173D01*
X888532Y277561D01*
X888480Y276950D01*
X888412Y276340D01*
X888329Y275732D01*
X888232Y275126D01*
X888120Y274523D01*
X887993Y273922D01*
X887851Y273325D01*
X887694Y272732D01*
X887524Y272143D01*
X887338Y271558D01*
X887139Y270978D01*
X886925Y270403D01*
X886697Y269833D01*
X886455Y269269D01*
X886200Y268711D01*
X885931Y268160D01*
X885648Y267615D01*
X885352Y267078D01*
X885043Y266547D01*
X884721Y266025D01*
X884387Y265511D01*
X884040Y265005D01*
X883680Y264508D01*
X883309Y264019D01*
X882925Y263540D01*
X882530Y263071D01*
X882124Y262611D01*
X881706Y262161D01*
X881278Y261722D01*
X880839Y261294D01*
X880389Y260876D01*
X879929Y260470D01*
X879460Y260075D01*
X878981Y259691D01*
X878492Y259320D01*
X877995Y258960D01*
X877489Y258613D01*
X876975Y258279D01*
X876453Y257957D01*
X875922Y257648D01*
X875385Y257352D01*
X874840Y257069D01*
X874289Y256800D01*
X873731Y256545D01*
X873167Y256303D01*
X872597Y256075D01*
X872022Y255861D01*
X871442Y255662D01*
X870857Y255476D01*
X870268Y255306D01*
X869675Y255149D01*
X869078Y255007D01*
X868477Y254880D01*
X867874Y254768D01*
X867268Y254671D01*
X866660Y254588D01*
X866050Y254520D01*
X865439Y254468D01*
X864827Y254430D01*
X864214Y254408D01*
X863600Y254400D01*
X862986Y254408D01*
X862373Y254430D01*
X861761Y254468D01*
X861150Y254520D01*
X860540Y254588D01*
X859932Y254671D01*
X859326Y254768D01*
X858723Y254880D01*
X858122Y255007D01*
X857525Y255149D01*
X856932Y255306D01*
X856343Y255476D01*
X855758Y255662D01*
X855178Y255861D01*
X854603Y256075D01*
X854033Y256303D01*
X853469Y256545D01*
X852911Y256800D01*
X852360Y257069D01*
X851815Y257352D01*
X851278Y257648D01*
X850747Y257957D01*
X850225Y258279D01*
X849711Y258613D01*
X849205Y258960D01*
X848708Y259320D01*
X848219Y259691D01*
X847740Y260075D01*
X847271Y260470D01*
X846811Y260876D01*
X846361Y261294D01*
X845922Y261722D01*
X845494Y262161D01*
X845076Y262611D01*
X844670Y263071D01*
X844275Y263540D01*
X843891Y264019D01*
X843520Y264508D01*
X843160Y265005D01*
X842813Y265511D01*
X842479Y266025D01*
X842157Y266547D01*
X841848Y267078D01*
X841552Y267615D01*
X841269Y268160D01*
X841000Y268711D01*
X840745Y269269D01*
X840503Y269833D01*
X840275Y270403D01*
X840061Y270978D01*
X839862Y271558D01*
X839676Y272143D01*
X839506Y272732D01*
X839349Y273325D01*
X839207Y273922D01*
X839080Y274523D01*
X838968Y275126D01*
X838871Y275732D01*
X838788Y276340D01*
X838720Y276950D01*
X838668Y277561D01*
X838630Y278173D01*
X838608Y278786D01*
X838600Y279400D01*
X711600Y114300D02*
X711608Y114914D01*
X711630Y115527D01*
X711668Y116139D01*
X711720Y116750D01*
X711788Y117360D01*
X711871Y117968D01*
X711968Y118574D01*
X712080Y119177D01*
X712207Y119778D01*
X712349Y120375D01*
X712506Y120968D01*
X712676Y121557D01*
X712862Y122142D01*
X713061Y122722D01*
X713275Y123297D01*
X713503Y123867D01*
X713745Y124431D01*
X714000Y124989D01*
X714269Y125540D01*
X714552Y126085D01*
X714848Y126622D01*
X715157Y127153D01*
X715479Y127675D01*
X715813Y128189D01*
X716160Y128695D01*
X716520Y129192D01*
X716891Y129681D01*
X717275Y130160D01*
X717670Y130629D01*
X718076Y131089D01*
X718494Y131539D01*
X718922Y131978D01*
X719361Y132406D01*
X719811Y132824D01*
X720271Y133230D01*
X720740Y133625D01*
X721219Y134009D01*
X721708Y134380D01*
X722205Y134740D01*
X722711Y135087D01*
X723225Y135421D01*
X723747Y135743D01*
X724278Y136052D01*
X724815Y136348D01*
X725360Y136631D01*
X725911Y136900D01*
X726469Y137155D01*
X727033Y137397D01*
X727603Y137625D01*
X728178Y137839D01*
X728758Y138038D01*
X729343Y138224D01*
X729932Y138394D01*
X730525Y138551D01*
X731122Y138693D01*
X731723Y138820D01*
X732326Y138932D01*
X732932Y139029D01*
X733540Y139112D01*
X734150Y139180D01*
X734761Y139232D01*
X735373Y139270D01*
X735986Y139292D01*
X736600Y139300D01*
X737214Y139292D01*
X737827Y139270D01*
X738439Y139232D01*
X739050Y139180D01*
X739660Y139112D01*
X740268Y139029D01*
X740874Y138932D01*
X741477Y138820D01*
X742078Y138693D01*
X742675Y138551D01*
X743268Y138394D01*
X743857Y138224D01*
X744442Y138038D01*
X745022Y137839D01*
X745597Y137625D01*
X746167Y137397D01*
X746731Y137155D01*
X747289Y136900D01*
X747840Y136631D01*
X748385Y136348D01*
X748922Y136052D01*
X749453Y135743D01*
X749975Y135421D01*
X750489Y135087D01*
X750995Y134740D01*
X751492Y134380D01*
X751981Y134009D01*
X752460Y133625D01*
X752929Y133230D01*
X753389Y132824D01*
X753839Y132406D01*
X754278Y131978D01*
X754706Y131539D01*
X755124Y131089D01*
X755530Y130629D01*
X755925Y130160D01*
X756309Y129681D01*
X756680Y129192D01*
X757040Y128695D01*
X757387Y128189D01*
X757721Y127675D01*
X758043Y127153D01*
X758352Y126622D01*
X758648Y126085D01*
X758931Y125540D01*
X759200Y124989D01*
X759455Y124431D01*
X759697Y123867D01*
X759925Y123297D01*
X760139Y122722D01*
X760338Y122142D01*
X760524Y121557D01*
X760694Y120968D01*
X760851Y120375D01*
X760993Y119778D01*
X761120Y119177D01*
X761232Y118574D01*
X761329Y117968D01*
X761412Y117360D01*
X761480Y116750D01*
X761532Y116139D01*
X761570Y115527D01*
X761592Y114914D01*
X761600Y114300D01*
X761592Y113686D01*
X761570Y113073D01*
X761532Y112461D01*
X761480Y111850D01*
X761412Y111240D01*
X761329Y110632D01*
X761232Y110026D01*
X761120Y109423D01*
X760993Y108822D01*
X760851Y108225D01*
X760694Y107632D01*
X760524Y107043D01*
X760338Y106458D01*
X760139Y105878D01*
X759925Y105303D01*
X759697Y104733D01*
X759455Y104169D01*
X759200Y103611D01*
X758931Y103060D01*
X758648Y102515D01*
X758352Y101978D01*
X758043Y101447D01*
X757721Y100925D01*
X757387Y100411D01*
X757040Y99905D01*
X756680Y99408D01*
X756309Y98919D01*
X755925Y98440D01*
X755530Y97971D01*
X755124Y97511D01*
X754706Y97061D01*
X754278Y96622D01*
X753839Y96194D01*
X753389Y95776D01*
X752929Y95370D01*
X752460Y94975D01*
X751981Y94591D01*
X751492Y94220D01*
X750995Y93860D01*
X750489Y93513D01*
X749975Y93179D01*
X749453Y92857D01*
X748922Y92548D01*
X748385Y92252D01*
X747840Y91969D01*
X747289Y91700D01*
X746731Y91445D01*
X746167Y91203D01*
X745597Y90975D01*
X745022Y90761D01*
X744442Y90562D01*
X743857Y90376D01*
X743268Y90206D01*
X742675Y90049D01*
X742078Y89907D01*
X741477Y89780D01*
X740874Y89668D01*
X740268Y89571D01*
X739660Y89488D01*
X739050Y89420D01*
X738439Y89368D01*
X737827Y89330D01*
X737214Y89308D01*
X736600Y89300D01*
X735986Y89308D01*
X735373Y89330D01*
X734761Y89368D01*
X734150Y89420D01*
X733540Y89488D01*
X732932Y89571D01*
X732326Y89668D01*
X731723Y89780D01*
X731122Y89907D01*
X730525Y90049D01*
X729932Y90206D01*
X729343Y90376D01*
X728758Y90562D01*
X728178Y90761D01*
X727603Y90975D01*
X727033Y91203D01*
X726469Y91445D01*
X725911Y91700D01*
X725360Y91969D01*
X724815Y92252D01*
X724278Y92548D01*
X723747Y92857D01*
X723225Y93179D01*
X722711Y93513D01*
X722205Y93860D01*
X721708Y94220D01*
X721219Y94591D01*
X720740Y94975D01*
X720271Y95370D01*
X719811Y95776D01*
X719361Y96194D01*
X718922Y96622D01*
X718494Y97061D01*
X718076Y97511D01*
X717670Y97971D01*
X717275Y98440D01*
X716891Y98919D01*
X716520Y99408D01*
X716160Y99905D01*
X715813Y100411D01*
X715479Y100925D01*
X715157Y101447D01*
X714848Y101978D01*
X714552Y102515D01*
X714269Y103060D01*
X714000Y103611D01*
X713745Y104169D01*
X713503Y104733D01*
X713275Y105303D01*
X713061Y105878D01*
X712862Y106458D01*
X712676Y107043D01*
X712506Y107632D01*
X712349Y108225D01*
X712207Y108822D01*
X712080Y109423D01*
X711968Y110026D01*
X711871Y110632D01*
X711788Y111240D01*
X711720Y111850D01*
X711668Y112461D01*
X711630Y113073D01*
X711608Y113686D01*
X711600Y114300D01*
X775100Y114300D02*
X775108Y114914D01*
X775130Y115527D01*
X775168Y116139D01*
X775220Y116750D01*
X775288Y117360D01*
X775371Y117968D01*
X775468Y118574D01*
X775580Y119177D01*
X775707Y119778D01*
X775849Y120375D01*
X776006Y120968D01*
X776176Y121557D01*
X776362Y122142D01*
X776561Y122722D01*
X776775Y123297D01*
X777003Y123867D01*
X777245Y124431D01*
X777500Y124989D01*
X777769Y125540D01*
X778052Y126085D01*
X778348Y126622D01*
X778657Y127153D01*
X778979Y127675D01*
X779313Y128189D01*
X779660Y128695D01*
X780020Y129192D01*
X780391Y129681D01*
X780775Y130160D01*
X781170Y130629D01*
X781576Y131089D01*
X781994Y131539D01*
X782422Y131978D01*
X782861Y132406D01*
X783311Y132824D01*
X783771Y133230D01*
X784240Y133625D01*
X784719Y134009D01*
X785208Y134380D01*
X785705Y134740D01*
X786211Y135087D01*
X786725Y135421D01*
X787247Y135743D01*
X787778Y136052D01*
X788315Y136348D01*
X788860Y136631D01*
X789411Y136900D01*
X789969Y137155D01*
X790533Y137397D01*
X791103Y137625D01*
X791678Y137839D01*
X792258Y138038D01*
X792843Y138224D01*
X793432Y138394D01*
X794025Y138551D01*
X794622Y138693D01*
X795223Y138820D01*
X795826Y138932D01*
X796432Y139029D01*
X797040Y139112D01*
X797650Y139180D01*
X798261Y139232D01*
X798873Y139270D01*
X799486Y139292D01*
X800100Y139300D01*
X800714Y139292D01*
X801327Y139270D01*
X801939Y139232D01*
X802550Y139180D01*
X803160Y139112D01*
X803768Y139029D01*
X804374Y138932D01*
X804977Y138820D01*
X805578Y138693D01*
X806175Y138551D01*
X806768Y138394D01*
X807357Y138224D01*
X807942Y138038D01*
X808522Y137839D01*
X809097Y137625D01*
X809667Y137397D01*
X810231Y137155D01*
X810789Y136900D01*
X811340Y136631D01*
X811885Y136348D01*
X812422Y136052D01*
X812953Y135743D01*
X813475Y135421D01*
X813989Y135087D01*
X814495Y134740D01*
X814992Y134380D01*
X815481Y134009D01*
X815960Y133625D01*
X816429Y133230D01*
X816889Y132824D01*
X817339Y132406D01*
X817778Y131978D01*
X818206Y131539D01*
X818624Y131089D01*
X819030Y130629D01*
X819425Y130160D01*
X819809Y129681D01*
X820180Y129192D01*
X820540Y128695D01*
X820887Y128189D01*
X821221Y127675D01*
X821543Y127153D01*
X821852Y126622D01*
X822148Y126085D01*
X822431Y125540D01*
X822700Y124989D01*
X822955Y124431D01*
X823197Y123867D01*
X823425Y123297D01*
X823639Y122722D01*
X823838Y122142D01*
X824024Y121557D01*
X824194Y120968D01*
X824351Y120375D01*
X824493Y119778D01*
X824620Y119177D01*
X824732Y118574D01*
X824829Y117968D01*
X824912Y117360D01*
X824980Y116750D01*
X825032Y116139D01*
X825070Y115527D01*
X825092Y114914D01*
X825100Y114300D01*
X825092Y113686D01*
X825070Y113073D01*
X825032Y112461D01*
X824980Y111850D01*
X824912Y111240D01*
X824829Y110632D01*
X824732Y110026D01*
X824620Y109423D01*
X824493Y108822D01*
X824351Y108225D01*
X824194Y107632D01*
X824024Y107043D01*
X823838Y106458D01*
X823639Y105878D01*
X823425Y105303D01*
X823197Y104733D01*
X822955Y104169D01*
X822700Y103611D01*
X822431Y103060D01*
X822148Y102515D01*
X821852Y101978D01*
X821543Y101447D01*
X821221Y100925D01*
X820887Y100411D01*
X820540Y99905D01*
X820180Y99408D01*
X819809Y98919D01*
X819425Y98440D01*
X819030Y97971D01*
X818624Y97511D01*
X818206Y97061D01*
X817778Y96622D01*
X817339Y96194D01*
X816889Y95776D01*
X816429Y95370D01*
X815960Y94975D01*
X815481Y94591D01*
X814992Y94220D01*
X814495Y93860D01*
X813989Y93513D01*
X813475Y93179D01*
X812953Y92857D01*
X812422Y92548D01*
X811885Y92252D01*
X811340Y91969D01*
X810789Y91700D01*
X810231Y91445D01*
X809667Y91203D01*
X809097Y90975D01*
X808522Y90761D01*
X807942Y90562D01*
X807357Y90376D01*
X806768Y90206D01*
X806175Y90049D01*
X805578Y89907D01*
X804977Y89780D01*
X804374Y89668D01*
X803768Y89571D01*
X803160Y89488D01*
X802550Y89420D01*
X801939Y89368D01*
X801327Y89330D01*
X800714Y89308D01*
X800100Y89300D01*
X799486Y89308D01*
X798873Y89330D01*
X798261Y89368D01*
X797650Y89420D01*
X797040Y89488D01*
X796432Y89571D01*
X795826Y89668D01*
X795223Y89780D01*
X794622Y89907D01*
X794025Y90049D01*
X793432Y90206D01*
X792843Y90376D01*
X792258Y90562D01*
X791678Y90761D01*
X791103Y90975D01*
X790533Y91203D01*
X789969Y91445D01*
X789411Y91700D01*
X788860Y91969D01*
X788315Y92252D01*
X787778Y92548D01*
X787247Y92857D01*
X786725Y93179D01*
X786211Y93513D01*
X785705Y93860D01*
X785208Y94220D01*
X784719Y94591D01*
X784240Y94975D01*
X783771Y95370D01*
X783311Y95776D01*
X782861Y96194D01*
X782422Y96622D01*
X781994Y97061D01*
X781576Y97511D01*
X781170Y97971D01*
X780775Y98440D01*
X780391Y98919D01*
X780020Y99408D01*
X779660Y99905D01*
X779313Y100411D01*
X778979Y100925D01*
X778657Y101447D01*
X778348Y101978D01*
X778052Y102515D01*
X777769Y103060D01*
X777500Y103611D01*
X777245Y104169D01*
X777003Y104733D01*
X776775Y105303D01*
X776561Y105878D01*
X776362Y106458D01*
X776176Y107043D01*
X776006Y107632D01*
X775849Y108225D01*
X775707Y108822D01*
X775580Y109423D01*
X775468Y110026D01*
X775371Y110632D01*
X775288Y111240D01*
X775220Y111850D01*
X775168Y112461D01*
X775130Y113073D01*
X775108Y113686D01*
X775100Y114300D01*
X838600Y114300D02*
X838608Y114914D01*
X838630Y115527D01*
X838668Y116139D01*
X838720Y116750D01*
X838788Y117360D01*
X838871Y117968D01*
X838968Y118574D01*
X839080Y119177D01*
X839207Y119778D01*
X839349Y120375D01*
X839506Y120968D01*
X839676Y121557D01*
X839862Y122142D01*
X840061Y122722D01*
X840275Y123297D01*
X840503Y123867D01*
X840745Y124431D01*
X841000Y124989D01*
X841269Y125540D01*
X841552Y126085D01*
X841848Y126622D01*
X842157Y127153D01*
X842479Y127675D01*
X842813Y128189D01*
X843160Y128695D01*
X843520Y129192D01*
X843891Y129681D01*
X844275Y130160D01*
X844670Y130629D01*
X845076Y131089D01*
X845494Y131539D01*
X845922Y131978D01*
X846361Y132406D01*
X846811Y132824D01*
X847271Y133230D01*
X847740Y133625D01*
X848219Y134009D01*
X848708Y134380D01*
X849205Y134740D01*
X849711Y135087D01*
X850225Y135421D01*
X850747Y135743D01*
X851278Y136052D01*
X851815Y136348D01*
X852360Y136631D01*
X852911Y136900D01*
X853469Y137155D01*
X854033Y137397D01*
X854603Y137625D01*
X855178Y137839D01*
X855758Y138038D01*
X856343Y138224D01*
X856932Y138394D01*
X857525Y138551D01*
X858122Y138693D01*
X858723Y138820D01*
X859326Y138932D01*
X859932Y139029D01*
X860540Y139112D01*
X861150Y139180D01*
X861761Y139232D01*
X862373Y139270D01*
X862986Y139292D01*
X863600Y139300D01*
X864214Y139292D01*
X864827Y139270D01*
X865439Y139232D01*
X866050Y139180D01*
X866660Y139112D01*
X867268Y139029D01*
X867874Y138932D01*
X868477Y138820D01*
X869078Y138693D01*
X869675Y138551D01*
X870268Y138394D01*
X870857Y138224D01*
X871442Y138038D01*
X872022Y137839D01*
X872597Y137625D01*
X873167Y137397D01*
X873731Y137155D01*
X874289Y136900D01*
X874840Y136631D01*
X875385Y136348D01*
X875922Y136052D01*
X876453Y135743D01*
X876975Y135421D01*
X877489Y135087D01*
X877995Y134740D01*
X878492Y134380D01*
X878981Y134009D01*
X879460Y133625D01*
X879929Y133230D01*
X880389Y132824D01*
X880839Y132406D01*
X881278Y131978D01*
X881706Y131539D01*
X882124Y131089D01*
X882530Y130629D01*
X882925Y130160D01*
X883309Y129681D01*
X883680Y129192D01*
X884040Y128695D01*
X884387Y128189D01*
X884721Y127675D01*
X885043Y127153D01*
X885352Y126622D01*
X885648Y126085D01*
X885931Y125540D01*
X886200Y124989D01*
X886455Y124431D01*
X886697Y123867D01*
X886925Y123297D01*
X887139Y122722D01*
X887338Y122142D01*
X887524Y121557D01*
X887694Y120968D01*
X887851Y120375D01*
X887993Y119778D01*
X888120Y119177D01*
X888232Y118574D01*
X888329Y117968D01*
X888412Y117360D01*
X888480Y116750D01*
X888532Y116139D01*
X888570Y115527D01*
X888592Y114914D01*
X888600Y114300D01*
X888592Y113686D01*
X888570Y113073D01*
X888532Y112461D01*
X888480Y111850D01*
X888412Y111240D01*
X888329Y110632D01*
X888232Y110026D01*
X888120Y109423D01*
X887993Y108822D01*
X887851Y108225D01*
X887694Y107632D01*
X887524Y107043D01*
X887338Y106458D01*
X887139Y105878D01*
X886925Y105303D01*
X886697Y104733D01*
X886455Y104169D01*
X886200Y103611D01*
X885931Y103060D01*
X885648Y102515D01*
X885352Y101978D01*
X885043Y101447D01*
X884721Y100925D01*
X884387Y100411D01*
X884040Y99905D01*
X883680Y99408D01*
X883309Y98919D01*
X882925Y98440D01*
X882530Y97971D01*
X882124Y97511D01*
X881706Y97061D01*
X881278Y96622D01*
X880839Y96194D01*
X880389Y95776D01*
X879929Y95370D01*
X879460Y94975D01*
X878981Y94591D01*
X878492Y94220D01*
X877995Y93860D01*
X877489Y93513D01*
X876975Y93179D01*
X876453Y92857D01*
X875922Y92548D01*
X875385Y92252D01*
X874840Y91969D01*
X874289Y91700D01*
X873731Y91445D01*
X873167Y91203D01*
X872597Y90975D01*
X872022Y90761D01*
X871442Y90562D01*
X870857Y90376D01*
X870268Y90206D01*
X869675Y90049D01*
X869078Y89907D01*
X868477Y89780D01*
X867874Y89668D01*
X867268Y89571D01*
X866660Y89488D01*
X866050Y89420D01*
X865439Y89368D01*
X864827Y89330D01*
X864214Y89308D01*
X863600Y89300D01*
X862986Y89308D01*
X862373Y89330D01*
X861761Y89368D01*
X861150Y89420D01*
X860540Y89488D01*
X859932Y89571D01*
X859326Y89668D01*
X858723Y89780D01*
X858122Y89907D01*
X857525Y90049D01*
X856932Y90206D01*
X856343Y90376D01*
X855758Y90562D01*
X855178Y90761D01*
X854603Y90975D01*
X854033Y91203D01*
X853469Y91445D01*
X852911Y91700D01*
X852360Y91969D01*
X851815Y92252D01*
X851278Y92548D01*
X850747Y92857D01*
X850225Y93179D01*
X849711Y93513D01*
X849205Y93860D01*
X848708Y94220D01*
X848219Y94591D01*
X847740Y94975D01*
X847271Y95370D01*
X846811Y95776D01*
X846361Y96194D01*
X845922Y96622D01*
X845494Y97061D01*
X845076Y97511D01*
X844670Y97971D01*
X844275Y98440D01*
X843891Y98919D01*
X843520Y99408D01*
X843160Y99905D01*
X842813Y100411D01*
X842479Y100925D01*
X842157Y101447D01*
X841848Y101978D01*
X841552Y102515D01*
X841269Y103060D01*
X841000Y103611D01*
X840745Y104169D01*
X840503Y104733D01*
X840275Y105303D01*
X840061Y105878D01*
X839862Y106458D01*
X839676Y107043D01*
X839506Y107632D01*
X839349Y108225D01*
X839207Y108822D01*
X839080Y109423D01*
X838968Y110026D01*
X838871Y110632D01*
X838788Y111240D01*
X838720Y111850D01*
X838668Y112461D01*
X838630Y113073D01*
X838608Y113686D01*
X838600Y114300D01*
X711600Y558800D02*
X711608Y559414D01*
X711630Y560027D01*
X711668Y560639D01*
X711720Y561250D01*
X711788Y561860D01*
X711871Y562468D01*
X711968Y563074D01*
X712080Y563677D01*
X712207Y564278D01*
X712349Y564875D01*
X712506Y565468D01*
X712676Y566057D01*
X712862Y566642D01*
X713061Y567222D01*
X713275Y567797D01*
X713503Y568367D01*
X713745Y568931D01*
X714000Y569489D01*
X714269Y570040D01*
X714552Y570585D01*
X714848Y571122D01*
X715157Y571653D01*
X715479Y572175D01*
X715813Y572689D01*
X716160Y573195D01*
X716520Y573692D01*
X716891Y574181D01*
X717275Y574660D01*
X717670Y575129D01*
X718076Y575589D01*
X718494Y576039D01*
X718922Y576478D01*
X719361Y576906D01*
X719811Y577324D01*
X720271Y577730D01*
X720740Y578125D01*
X721219Y578509D01*
X721708Y578880D01*
X722205Y579240D01*
X722711Y579587D01*
X723225Y579921D01*
X723747Y580243D01*
X724278Y580552D01*
X724815Y580848D01*
X725360Y581131D01*
X725911Y581400D01*
X726469Y581655D01*
X727033Y581897D01*
X727603Y582125D01*
X728178Y582339D01*
X728758Y582538D01*
X729343Y582724D01*
X729932Y582894D01*
X730525Y583051D01*
X731122Y583193D01*
X731723Y583320D01*
X732326Y583432D01*
X732932Y583529D01*
X733540Y583612D01*
X734150Y583680D01*
X734761Y583732D01*
X735373Y583770D01*
X735986Y583792D01*
X736600Y583800D01*
X737214Y583792D01*
X737827Y583770D01*
X738439Y583732D01*
X739050Y583680D01*
X739660Y583612D01*
X740268Y583529D01*
X740874Y583432D01*
X741477Y583320D01*
X742078Y583193D01*
X742675Y583051D01*
X743268Y582894D01*
X743857Y582724D01*
X744442Y582538D01*
X745022Y582339D01*
X745597Y582125D01*
X746167Y581897D01*
X746731Y581655D01*
X747289Y581400D01*
X747840Y581131D01*
X748385Y580848D01*
X748922Y580552D01*
X749453Y580243D01*
X749975Y579921D01*
X750489Y579587D01*
X750995Y579240D01*
X751492Y578880D01*
X751981Y578509D01*
X752460Y578125D01*
X752929Y577730D01*
X753389Y577324D01*
X753839Y576906D01*
X754278Y576478D01*
X754706Y576039D01*
X755124Y575589D01*
X755530Y575129D01*
X755925Y574660D01*
X756309Y574181D01*
X756680Y573692D01*
X757040Y573195D01*
X757387Y572689D01*
X757721Y572175D01*
X758043Y571653D01*
X758352Y571122D01*
X758648Y570585D01*
X758931Y570040D01*
X759200Y569489D01*
X759455Y568931D01*
X759697Y568367D01*
X759925Y567797D01*
X760139Y567222D01*
X760338Y566642D01*
X760524Y566057D01*
X760694Y565468D01*
X760851Y564875D01*
X760993Y564278D01*
X761120Y563677D01*
X761232Y563074D01*
X761329Y562468D01*
X761412Y561860D01*
X761480Y561250D01*
X761532Y560639D01*
X761570Y560027D01*
X761592Y559414D01*
X761600Y558800D01*
X761592Y558186D01*
X761570Y557573D01*
X761532Y556961D01*
X761480Y556350D01*
X761412Y555740D01*
X761329Y555132D01*
X761232Y554526D01*
X761120Y553923D01*
X760993Y553322D01*
X760851Y552725D01*
X760694Y552132D01*
X760524Y551543D01*
X760338Y550958D01*
X760139Y550378D01*
X759925Y549803D01*
X759697Y549233D01*
X759455Y548669D01*
X759200Y548111D01*
X758931Y547560D01*
X758648Y547015D01*
X758352Y546478D01*
X758043Y545947D01*
X757721Y545425D01*
X757387Y544911D01*
X757040Y544405D01*
X756680Y543908D01*
X756309Y543419D01*
X755925Y542940D01*
X755530Y542471D01*
X755124Y542011D01*
X754706Y541561D01*
X754278Y541122D01*
X753839Y540694D01*
X753389Y540276D01*
X752929Y539870D01*
X752460Y539475D01*
X751981Y539091D01*
X751492Y538720D01*
X750995Y538360D01*
X750489Y538013D01*
X749975Y537679D01*
X749453Y537357D01*
X748922Y537048D01*
X748385Y536752D01*
X747840Y536469D01*
X747289Y536200D01*
X746731Y535945D01*
X746167Y535703D01*
X745597Y535475D01*
X745022Y535261D01*
X744442Y535062D01*
X743857Y534876D01*
X743268Y534706D01*
X742675Y534549D01*
X742078Y534407D01*
X741477Y534280D01*
X740874Y534168D01*
X740268Y534071D01*
X739660Y533988D01*
X739050Y533920D01*
X738439Y533868D01*
X737827Y533830D01*
X737214Y533808D01*
X736600Y533800D01*
X735986Y533808D01*
X735373Y533830D01*
X734761Y533868D01*
X734150Y533920D01*
X733540Y533988D01*
X732932Y534071D01*
X732326Y534168D01*
X731723Y534280D01*
X731122Y534407D01*
X730525Y534549D01*
X729932Y534706D01*
X729343Y534876D01*
X728758Y535062D01*
X728178Y535261D01*
X727603Y535475D01*
X727033Y535703D01*
X726469Y535945D01*
X725911Y536200D01*
X725360Y536469D01*
X724815Y536752D01*
X724278Y537048D01*
X723747Y537357D01*
X723225Y537679D01*
X722711Y538013D01*
X722205Y538360D01*
X721708Y538720D01*
X721219Y539091D01*
X720740Y539475D01*
X720271Y539870D01*
X719811Y540276D01*
X719361Y540694D01*
X718922Y541122D01*
X718494Y541561D01*
X718076Y542011D01*
X717670Y542471D01*
X717275Y542940D01*
X716891Y543419D01*
X716520Y543908D01*
X716160Y544405D01*
X715813Y544911D01*
X715479Y545425D01*
X715157Y545947D01*
X714848Y546478D01*
X714552Y547015D01*
X714269Y547560D01*
X714000Y548111D01*
X713745Y548669D01*
X713503Y549233D01*
X713275Y549803D01*
X713061Y550378D01*
X712862Y550958D01*
X712676Y551543D01*
X712506Y552132D01*
X712349Y552725D01*
X712207Y553322D01*
X712080Y553923D01*
X711968Y554526D01*
X711871Y555132D01*
X711788Y555740D01*
X711720Y556350D01*
X711668Y556961D01*
X711630Y557573D01*
X711608Y558186D01*
X711600Y558800D01*
X775100Y558800D02*
X775108Y559414D01*
X775130Y560027D01*
X775168Y560639D01*
X775220Y561250D01*
X775288Y561860D01*
X775371Y562468D01*
X775468Y563074D01*
X775580Y563677D01*
X775707Y564278D01*
X775849Y564875D01*
X776006Y565468D01*
X776176Y566057D01*
X776362Y566642D01*
X776561Y567222D01*
X776775Y567797D01*
X777003Y568367D01*
X777245Y568931D01*
X777500Y569489D01*
X777769Y570040D01*
X778052Y570585D01*
X778348Y571122D01*
X778657Y571653D01*
X778979Y572175D01*
X779313Y572689D01*
X779660Y573195D01*
X780020Y573692D01*
X780391Y574181D01*
X780775Y574660D01*
X781170Y575129D01*
X781576Y575589D01*
X781994Y576039D01*
X782422Y576478D01*
X782861Y576906D01*
X783311Y577324D01*
X783771Y577730D01*
X784240Y578125D01*
X784719Y578509D01*
X785208Y578880D01*
X785705Y579240D01*
X786211Y579587D01*
X786725Y579921D01*
X787247Y580243D01*
X787778Y580552D01*
X788315Y580848D01*
X788860Y581131D01*
X789411Y581400D01*
X789969Y581655D01*
X790533Y581897D01*
X791103Y582125D01*
X791678Y582339D01*
X792258Y582538D01*
X792843Y582724D01*
X793432Y582894D01*
X794025Y583051D01*
X794622Y583193D01*
X795223Y583320D01*
X795826Y583432D01*
X796432Y583529D01*
X797040Y583612D01*
X797650Y583680D01*
X798261Y583732D01*
X798873Y583770D01*
X799486Y583792D01*
X800100Y583800D01*
X800714Y583792D01*
X801327Y583770D01*
X801939Y583732D01*
X802550Y583680D01*
X803160Y583612D01*
X803768Y583529D01*
X804374Y583432D01*
X804977Y583320D01*
X805578Y583193D01*
X806175Y583051D01*
X806768Y582894D01*
X807357Y582724D01*
X807942Y582538D01*
X808522Y582339D01*
X809097Y582125D01*
X809667Y581897D01*
X810231Y581655D01*
X810789Y581400D01*
X811340Y581131D01*
X811885Y580848D01*
X812422Y580552D01*
X812953Y580243D01*
X813475Y579921D01*
X813989Y579587D01*
X814495Y579240D01*
X814992Y578880D01*
X815481Y578509D01*
X815960Y578125D01*
X816429Y577730D01*
X816889Y577324D01*
X817339Y576906D01*
X817778Y576478D01*
X818206Y576039D01*
X818624Y575589D01*
X819030Y575129D01*
X819425Y574660D01*
X819809Y574181D01*
X820180Y573692D01*
X820540Y573195D01*
X820887Y572689D01*
X821221Y572175D01*
X821543Y571653D01*
X821852Y571122D01*
X822148Y570585D01*
X822431Y570040D01*
X822700Y569489D01*
X822955Y568931D01*
X823197Y568367D01*
X823425Y567797D01*
X823639Y567222D01*
X823838Y566642D01*
X824024Y566057D01*
X824194Y565468D01*
X824351Y564875D01*
X824493Y564278D01*
X824620Y563677D01*
X824732Y563074D01*
X824829Y562468D01*
X824912Y561860D01*
X824980Y561250D01*
X825032Y560639D01*
X825070Y560027D01*
X825092Y559414D01*
X825100Y558800D01*
X825092Y558186D01*
X825070Y557573D01*
X825032Y556961D01*
X824980Y556350D01*
X824912Y555740D01*
X824829Y555132D01*
X824732Y554526D01*
X824620Y553923D01*
X824493Y553322D01*
X824351Y552725D01*
X824194Y552132D01*
X824024Y551543D01*
X823838Y550958D01*
X823639Y550378D01*
X823425Y549803D01*
X823197Y549233D01*
X822955Y548669D01*
X822700Y548111D01*
X822431Y547560D01*
X822148Y547015D01*
X821852Y546478D01*
X821543Y545947D01*
X821221Y545425D01*
X820887Y544911D01*
X820540Y544405D01*
X820180Y543908D01*
X819809Y543419D01*
X819425Y542940D01*
X819030Y542471D01*
X818624Y542011D01*
X818206Y541561D01*
X817778Y541122D01*
X817339Y540694D01*
X816889Y540276D01*
X816429Y539870D01*
X815960Y539475D01*
X815481Y539091D01*
X814992Y538720D01*
X814495Y538360D01*
X813989Y538013D01*
X813475Y537679D01*
X812953Y537357D01*
X812422Y537048D01*
X811885Y536752D01*
X811340Y536469D01*
X810789Y536200D01*
X810231Y535945D01*
X809667Y535703D01*
X809097Y535475D01*
X808522Y535261D01*
X807942Y535062D01*
X807357Y534876D01*
X806768Y534706D01*
X806175Y534549D01*
X805578Y534407D01*
X804977Y534280D01*
X804374Y534168D01*
X803768Y534071D01*
X803160Y533988D01*
X802550Y533920D01*
X801939Y533868D01*
X801327Y533830D01*
X800714Y533808D01*
X800100Y533800D01*
X799486Y533808D01*
X798873Y533830D01*
X798261Y533868D01*
X797650Y533920D01*
X797040Y533988D01*
X796432Y534071D01*
X795826Y534168D01*
X795223Y534280D01*
X794622Y534407D01*
X794025Y534549D01*
X793432Y534706D01*
X792843Y534876D01*
X792258Y535062D01*
X791678Y535261D01*
X791103Y535475D01*
X790533Y535703D01*
X789969Y535945D01*
X789411Y536200D01*
X788860Y536469D01*
X788315Y536752D01*
X787778Y537048D01*
X787247Y537357D01*
X786725Y537679D01*
X786211Y538013D01*
X785705Y538360D01*
X785208Y538720D01*
X784719Y539091D01*
X784240Y539475D01*
X783771Y539870D01*
X783311Y540276D01*
X782861Y540694D01*
X782422Y541122D01*
X781994Y541561D01*
X781576Y542011D01*
X781170Y542471D01*
X780775Y542940D01*
X780391Y543419D01*
X780020Y543908D01*
X779660Y544405D01*
X779313Y544911D01*
X778979Y545425D01*
X778657Y545947D01*
X778348Y546478D01*
X778052Y547015D01*
X777769Y547560D01*
X777500Y548111D01*
X777245Y548669D01*
X777003Y549233D01*
X776775Y549803D01*
X776561Y550378D01*
X776362Y550958D01*
X776176Y551543D01*
X776006Y552132D01*
X775849Y552725D01*
X775707Y553322D01*
X775580Y553923D01*
X775468Y554526D01*
X775371Y555132D01*
X775288Y555740D01*
X775220Y556350D01*
X775168Y556961D01*
X775130Y557573D01*
X775108Y558186D01*
X775100Y558800D01*
X838600Y558800D02*
X838608Y559414D01*
X838630Y560027D01*
X838668Y560639D01*
X838720Y561250D01*
X838788Y561860D01*
X838871Y562468D01*
X838968Y563074D01*
X839080Y563677D01*
X839207Y564278D01*
X839349Y564875D01*
X839506Y565468D01*
X839676Y566057D01*
X839862Y566642D01*
X840061Y567222D01*
X840275Y567797D01*
X840503Y568367D01*
X840745Y568931D01*
X841000Y569489D01*
X841269Y570040D01*
X841552Y570585D01*
X841848Y571122D01*
X842157Y571653D01*
X842479Y572175D01*
X842813Y572689D01*
X843160Y573195D01*
X843520Y573692D01*
X843891Y574181D01*
X844275Y574660D01*
X844670Y575129D01*
X845076Y575589D01*
X845494Y576039D01*
X845922Y576478D01*
X846361Y576906D01*
X846811Y577324D01*
X847271Y577730D01*
X847740Y578125D01*
X848219Y578509D01*
X848708Y578880D01*
X849205Y579240D01*
X849711Y579587D01*
X850225Y579921D01*
X850747Y580243D01*
X851278Y580552D01*
X851815Y580848D01*
X852360Y581131D01*
X852911Y581400D01*
X853469Y581655D01*
X854033Y581897D01*
X854603Y582125D01*
X855178Y582339D01*
X855758Y582538D01*
X856343Y582724D01*
X856932Y582894D01*
X857525Y583051D01*
X858122Y583193D01*
X858723Y583320D01*
X859326Y583432D01*
X859932Y583529D01*
X860540Y583612D01*
X861150Y583680D01*
X861761Y583732D01*
X862373Y583770D01*
X862986Y583792D01*
X863600Y583800D01*
X864214Y583792D01*
X864827Y583770D01*
X865439Y583732D01*
X866050Y583680D01*
X866660Y583612D01*
X867268Y583529D01*
X867874Y583432D01*
X868477Y583320D01*
X869078Y583193D01*
X869675Y583051D01*
X870268Y582894D01*
X870857Y582724D01*
X871442Y582538D01*
X872022Y582339D01*
X872597Y582125D01*
X873167Y581897D01*
X873731Y581655D01*
X874289Y581400D01*
X874840Y581131D01*
X875385Y580848D01*
X875922Y580552D01*
X876453Y580243D01*
X876975Y579921D01*
X877489Y579587D01*
X877995Y579240D01*
X878492Y578880D01*
X878981Y578509D01*
X879460Y578125D01*
X879929Y577730D01*
X880389Y577324D01*
X880839Y576906D01*
X881278Y576478D01*
X881706Y576039D01*
X882124Y575589D01*
X882530Y575129D01*
X882925Y574660D01*
X883309Y574181D01*
X883680Y573692D01*
X884040Y573195D01*
X884387Y572689D01*
X884721Y572175D01*
X885043Y571653D01*
X885352Y571122D01*
X885648Y570585D01*
X885931Y570040D01*
X886200Y569489D01*
X886455Y568931D01*
X886697Y568367D01*
X886925Y567797D01*
X887139Y567222D01*
X887338Y566642D01*
X887524Y566057D01*
X887694Y565468D01*
X887851Y564875D01*
X887993Y564278D01*
X888120Y563677D01*
X888232Y563074D01*
X888329Y562468D01*
X888412Y561860D01*
X888480Y561250D01*
X888532Y560639D01*
X888570Y560027D01*
X888592Y559414D01*
X888600Y558800D01*
X888592Y558186D01*
X888570Y557573D01*
X888532Y556961D01*
X888480Y556350D01*
X888412Y555740D01*
X888329Y555132D01*
X888232Y554526D01*
X888120Y553923D01*
X887993Y553322D01*
X887851Y552725D01*
X887694Y552132D01*
X887524Y551543D01*
X887338Y550958D01*
X887139Y550378D01*
X886925Y549803D01*
X886697Y549233D01*
X886455Y548669D01*
X886200Y548111D01*
X885931Y547560D01*
X885648Y547015D01*
X885352Y546478D01*
X885043Y545947D01*
X884721Y545425D01*
X884387Y544911D01*
X884040Y544405D01*
X883680Y543908D01*
X883309Y543419D01*
X882925Y542940D01*
X882530Y542471D01*
X882124Y542011D01*
X881706Y541561D01*
X881278Y541122D01*
X880839Y540694D01*
X880389Y540276D01*
X879929Y539870D01*
X879460Y539475D01*
X878981Y539091D01*
X878492Y538720D01*
X877995Y538360D01*
X877489Y538013D01*
X876975Y537679D01*
X876453Y537357D01*
X875922Y537048D01*
X875385Y536752D01*
X874840Y536469D01*
X874289Y536200D01*
X873731Y535945D01*
X873167Y535703D01*
X872597Y535475D01*
X872022Y535261D01*
X871442Y535062D01*
X870857Y534876D01*
X870268Y534706D01*
X869675Y534549D01*
X869078Y534407D01*
X868477Y534280D01*
X867874Y534168D01*
X867268Y534071D01*
X866660Y533988D01*
X866050Y533920D01*
X865439Y533868D01*
X864827Y533830D01*
X864214Y533808D01*
X863600Y533800D01*
X862986Y533808D01*
X862373Y533830D01*
X861761Y533868D01*
X861150Y533920D01*
X860540Y533988D01*
X859932Y534071D01*
X859326Y534168D01*
X858723Y534280D01*
X858122Y534407D01*
X857525Y534549D01*
X856932Y534706D01*
X856343Y534876D01*
X855758Y535062D01*
X855178Y535261D01*
X854603Y535475D01*
X854033Y535703D01*
X853469Y535945D01*
X852911Y536200D01*
X852360Y536469D01*
X851815Y536752D01*
X851278Y537048D01*
X850747Y537357D01*
X850225Y537679D01*
X849711Y538013D01*
X849205Y538360D01*
X848708Y538720D01*
X848219Y539091D01*
X847740Y539475D01*
X847271Y539870D01*
X846811Y540276D01*
X846361Y540694D01*
X845922Y541122D01*
X845494Y541561D01*
X845076Y542011D01*
X844670Y542471D01*
X844275Y542940D01*
X843891Y543419D01*
X843520Y543908D01*
X843160Y544405D01*
X842813Y544911D01*
X842479Y545425D01*
X842157Y545947D01*
X841848Y546478D01*
X841552Y547015D01*
X841269Y547560D01*
X841000Y548111D01*
X840745Y548669D01*
X840503Y549233D01*
X840275Y549803D01*
X840061Y550378D01*
X839862Y550958D01*
X839676Y551543D01*
X839506Y552132D01*
X839349Y552725D01*
X839207Y553322D01*
X839080Y553923D01*
X838968Y554526D01*
X838871Y555132D01*
X838788Y555740D01*
X838720Y556350D01*
X838668Y556961D01*
X838630Y557573D01*
X838608Y558186D01*
X838600Y558800D01*
X279800Y1028700D02*
X279808Y1029314D01*
X279830Y1029927D01*
X279868Y1030539D01*
X279920Y1031150D01*
X279988Y1031760D01*
X280071Y1032368D01*
X280168Y1032974D01*
X280280Y1033577D01*
X280407Y1034178D01*
X280549Y1034775D01*
X280706Y1035368D01*
X280876Y1035957D01*
X281062Y1036542D01*
X281261Y1037122D01*
X281475Y1037697D01*
X281703Y1038267D01*
X281945Y1038831D01*
X282200Y1039389D01*
X282469Y1039940D01*
X282752Y1040485D01*
X283048Y1041022D01*
X283357Y1041553D01*
X283679Y1042075D01*
X284013Y1042589D01*
X284360Y1043095D01*
X284720Y1043592D01*
X285091Y1044081D01*
X285475Y1044560D01*
X285870Y1045029D01*
X286276Y1045489D01*
X286694Y1045939D01*
X287122Y1046378D01*
X287561Y1046806D01*
X288011Y1047224D01*
X288471Y1047630D01*
X288940Y1048025D01*
X289419Y1048409D01*
X289908Y1048780D01*
X290405Y1049140D01*
X290911Y1049487D01*
X291425Y1049821D01*
X291947Y1050143D01*
X292478Y1050452D01*
X293015Y1050748D01*
X293560Y1051031D01*
X294111Y1051300D01*
X294669Y1051555D01*
X295233Y1051797D01*
X295803Y1052025D01*
X296378Y1052239D01*
X296958Y1052438D01*
X297543Y1052624D01*
X298132Y1052794D01*
X298725Y1052951D01*
X299322Y1053093D01*
X299923Y1053220D01*
X300526Y1053332D01*
X301132Y1053429D01*
X301740Y1053512D01*
X302350Y1053580D01*
X302961Y1053632D01*
X303573Y1053670D01*
X304186Y1053692D01*
X304800Y1053700D01*
X305414Y1053692D01*
X306027Y1053670D01*
X306639Y1053632D01*
X307250Y1053580D01*
X307860Y1053512D01*
X308468Y1053429D01*
X309074Y1053332D01*
X309677Y1053220D01*
X310278Y1053093D01*
X310875Y1052951D01*
X311468Y1052794D01*
X312057Y1052624D01*
X312642Y1052438D01*
X313222Y1052239D01*
X313797Y1052025D01*
X314367Y1051797D01*
X314931Y1051555D01*
X315489Y1051300D01*
X316040Y1051031D01*
X316585Y1050748D01*
X317122Y1050452D01*
X317653Y1050143D01*
X318175Y1049821D01*
X318689Y1049487D01*
X319195Y1049140D01*
X319692Y1048780D01*
X320181Y1048409D01*
X320660Y1048025D01*
X321129Y1047630D01*
X321589Y1047224D01*
X322039Y1046806D01*
X322478Y1046378D01*
X322906Y1045939D01*
X323324Y1045489D01*
X323730Y1045029D01*
X324125Y1044560D01*
X324509Y1044081D01*
X324880Y1043592D01*
X325240Y1043095D01*
X325587Y1042589D01*
X325921Y1042075D01*
X326243Y1041553D01*
X326552Y1041022D01*
X326848Y1040485D01*
X327131Y1039940D01*
X327400Y1039389D01*
X327655Y1038831D01*
X327897Y1038267D01*
X328125Y1037697D01*
X328339Y1037122D01*
X328538Y1036542D01*
X328724Y1035957D01*
X328894Y1035368D01*
X329051Y1034775D01*
X329193Y1034178D01*
X329320Y1033577D01*
X329432Y1032974D01*
X329529Y1032368D01*
X329612Y1031760D01*
X329680Y1031150D01*
X329732Y1030539D01*
X329770Y1029927D01*
X329792Y1029314D01*
X329800Y1028700D01*
X329792Y1028086D01*
X329770Y1027473D01*
X329732Y1026861D01*
X329680Y1026250D01*
X329612Y1025640D01*
X329529Y1025032D01*
X329432Y1024426D01*
X329320Y1023823D01*
X329193Y1023222D01*
X329051Y1022625D01*
X328894Y1022032D01*
X328724Y1021443D01*
X328538Y1020858D01*
X328339Y1020278D01*
X328125Y1019703D01*
X327897Y1019133D01*
X327655Y1018569D01*
X327400Y1018011D01*
X327131Y1017460D01*
X326848Y1016915D01*
X326552Y1016378D01*
X326243Y1015847D01*
X325921Y1015325D01*
X325587Y1014811D01*
X325240Y1014305D01*
X324880Y1013808D01*
X324509Y1013319D01*
X324125Y1012840D01*
X323730Y1012371D01*
X323324Y1011911D01*
X322906Y1011461D01*
X322478Y1011022D01*
X322039Y1010594D01*
X321589Y1010176D01*
X321129Y1009770D01*
X320660Y1009375D01*
X320181Y1008991D01*
X319692Y1008620D01*
X319195Y1008260D01*
X318689Y1007913D01*
X318175Y1007579D01*
X317653Y1007257D01*
X317122Y1006948D01*
X316585Y1006652D01*
X316040Y1006369D01*
X315489Y1006100D01*
X314931Y1005845D01*
X314367Y1005603D01*
X313797Y1005375D01*
X313222Y1005161D01*
X312642Y1004962D01*
X312057Y1004776D01*
X311468Y1004606D01*
X310875Y1004449D01*
X310278Y1004307D01*
X309677Y1004180D01*
X309074Y1004068D01*
X308468Y1003971D01*
X307860Y1003888D01*
X307250Y1003820D01*
X306639Y1003768D01*
X306027Y1003730D01*
X305414Y1003708D01*
X304800Y1003700D01*
X304186Y1003708D01*
X303573Y1003730D01*
X302961Y1003768D01*
X302350Y1003820D01*
X301740Y1003888D01*
X301132Y1003971D01*
X300526Y1004068D01*
X299923Y1004180D01*
X299322Y1004307D01*
X298725Y1004449D01*
X298132Y1004606D01*
X297543Y1004776D01*
X296958Y1004962D01*
X296378Y1005161D01*
X295803Y1005375D01*
X295233Y1005603D01*
X294669Y1005845D01*
X294111Y1006100D01*
X293560Y1006369D01*
X293015Y1006652D01*
X292478Y1006948D01*
X291947Y1007257D01*
X291425Y1007579D01*
X290911Y1007913D01*
X290405Y1008260D01*
X289908Y1008620D01*
X289419Y1008991D01*
X288940Y1009375D01*
X288471Y1009770D01*
X288011Y1010176D01*
X287561Y1010594D01*
X287122Y1011022D01*
X286694Y1011461D01*
X286276Y1011911D01*
X285870Y1012371D01*
X285475Y1012840D01*
X285091Y1013319D01*
X284720Y1013808D01*
X284360Y1014305D01*
X284013Y1014811D01*
X283679Y1015325D01*
X283357Y1015847D01*
X283048Y1016378D01*
X282752Y1016915D01*
X282469Y1017460D01*
X282200Y1018011D01*
X281945Y1018569D01*
X281703Y1019133D01*
X281475Y1019703D01*
X281261Y1020278D01*
X281062Y1020858D01*
X280876Y1021443D01*
X280706Y1022032D01*
X280549Y1022625D01*
X280407Y1023222D01*
X280280Y1023823D01*
X280168Y1024426D01*
X280071Y1025032D01*
X279988Y1025640D01*
X279920Y1026250D01*
X279868Y1026861D01*
X279830Y1027473D01*
X279808Y1028086D01*
X279800Y1028700D01*
X279800Y1092200D02*
X279808Y1092814D01*
X279830Y1093427D01*
X279868Y1094039D01*
X279920Y1094650D01*
X279988Y1095260D01*
X280071Y1095868D01*
X280168Y1096474D01*
X280280Y1097077D01*
X280407Y1097678D01*
X280549Y1098275D01*
X280706Y1098868D01*
X280876Y1099457D01*
X281062Y1100042D01*
X281261Y1100622D01*
X281475Y1101197D01*
X281703Y1101767D01*
X281945Y1102331D01*
X282200Y1102889D01*
X282469Y1103440D01*
X282752Y1103985D01*
X283048Y1104522D01*
X283357Y1105053D01*
X283679Y1105575D01*
X284013Y1106089D01*
X284360Y1106595D01*
X284720Y1107092D01*
X285091Y1107581D01*
X285475Y1108060D01*
X285870Y1108529D01*
X286276Y1108989D01*
X286694Y1109439D01*
X287122Y1109878D01*
X287561Y1110306D01*
X288011Y1110724D01*
X288471Y1111130D01*
X288940Y1111525D01*
X289419Y1111909D01*
X289908Y1112280D01*
X290405Y1112640D01*
X290911Y1112987D01*
X291425Y1113321D01*
X291947Y1113643D01*
X292478Y1113952D01*
X293015Y1114248D01*
X293560Y1114531D01*
X294111Y1114800D01*
X294669Y1115055D01*
X295233Y1115297D01*
X295803Y1115525D01*
X296378Y1115739D01*
X296958Y1115938D01*
X297543Y1116124D01*
X298132Y1116294D01*
X298725Y1116451D01*
X299322Y1116593D01*
X299923Y1116720D01*
X300526Y1116832D01*
X301132Y1116929D01*
X301740Y1117012D01*
X302350Y1117080D01*
X302961Y1117132D01*
X303573Y1117170D01*
X304186Y1117192D01*
X304800Y1117200D01*
X305414Y1117192D01*
X306027Y1117170D01*
X306639Y1117132D01*
X307250Y1117080D01*
X307860Y1117012D01*
X308468Y1116929D01*
X309074Y1116832D01*
X309677Y1116720D01*
X310278Y1116593D01*
X310875Y1116451D01*
X311468Y1116294D01*
X312057Y1116124D01*
X312642Y1115938D01*
X313222Y1115739D01*
X313797Y1115525D01*
X314367Y1115297D01*
X314931Y1115055D01*
X315489Y1114800D01*
X316040Y1114531D01*
X316585Y1114248D01*
X317122Y1113952D01*
X317653Y1113643D01*
X318175Y1113321D01*
X318689Y1112987D01*
X319195Y1112640D01*
X319692Y1112280D01*
X320181Y1111909D01*
X320660Y1111525D01*
X321129Y1111130D01*
X321589Y1110724D01*
X322039Y1110306D01*
X322478Y1109878D01*
X322906Y1109439D01*
X323324Y1108989D01*
X323730Y1108529D01*
X324125Y1108060D01*
X324509Y1107581D01*
X324880Y1107092D01*
X325240Y1106595D01*
X325587Y1106089D01*
X325921Y1105575D01*
X326243Y1105053D01*
X326552Y1104522D01*
X326848Y1103985D01*
X327131Y1103440D01*
X327400Y1102889D01*
X327655Y1102331D01*
X327897Y1101767D01*
X328125Y1101197D01*
X328339Y1100622D01*
X328538Y1100042D01*
X328724Y1099457D01*
X328894Y1098868D01*
X329051Y1098275D01*
X329193Y1097678D01*
X329320Y1097077D01*
X329432Y1096474D01*
X329529Y1095868D01*
X329612Y1095260D01*
X329680Y1094650D01*
X329732Y1094039D01*
X329770Y1093427D01*
X329792Y1092814D01*
X329800Y1092200D01*
X329792Y1091586D01*
X329770Y1090973D01*
X329732Y1090361D01*
X329680Y1089750D01*
X329612Y1089140D01*
X329529Y1088532D01*
X329432Y1087926D01*
X329320Y1087323D01*
X329193Y1086722D01*
X329051Y1086125D01*
X328894Y1085532D01*
X328724Y1084943D01*
X328538Y1084358D01*
X328339Y1083778D01*
X328125Y1083203D01*
X327897Y1082633D01*
X327655Y1082069D01*
X327400Y1081511D01*
X327131Y1080960D01*
X326848Y1080415D01*
X326552Y1079878D01*
X326243Y1079347D01*
X325921Y1078825D01*
X325587Y1078311D01*
X325240Y1077805D01*
X324880Y1077308D01*
X324509Y1076819D01*
X324125Y1076340D01*
X323730Y1075871D01*
X323324Y1075411D01*
X322906Y1074961D01*
X322478Y1074522D01*
X322039Y1074094D01*
X321589Y1073676D01*
X321129Y1073270D01*
X320660Y1072875D01*
X320181Y1072491D01*
X319692Y1072120D01*
X319195Y1071760D01*
X318689Y1071413D01*
X318175Y1071079D01*
X317653Y1070757D01*
X317122Y1070448D01*
X316585Y1070152D01*
X316040Y1069869D01*
X315489Y1069600D01*
X314931Y1069345D01*
X314367Y1069103D01*
X313797Y1068875D01*
X313222Y1068661D01*
X312642Y1068462D01*
X312057Y1068276D01*
X311468Y1068106D01*
X310875Y1067949D01*
X310278Y1067807D01*
X309677Y1067680D01*
X309074Y1067568D01*
X308468Y1067471D01*
X307860Y1067388D01*
X307250Y1067320D01*
X306639Y1067268D01*
X306027Y1067230D01*
X305414Y1067208D01*
X304800Y1067200D01*
X304186Y1067208D01*
X303573Y1067230D01*
X302961Y1067268D01*
X302350Y1067320D01*
X301740Y1067388D01*
X301132Y1067471D01*
X300526Y1067568D01*
X299923Y1067680D01*
X299322Y1067807D01*
X298725Y1067949D01*
X298132Y1068106D01*
X297543Y1068276D01*
X296958Y1068462D01*
X296378Y1068661D01*
X295803Y1068875D01*
X295233Y1069103D01*
X294669Y1069345D01*
X294111Y1069600D01*
X293560Y1069869D01*
X293015Y1070152D01*
X292478Y1070448D01*
X291947Y1070757D01*
X291425Y1071079D01*
X290911Y1071413D01*
X290405Y1071760D01*
X289908Y1072120D01*
X289419Y1072491D01*
X288940Y1072875D01*
X288471Y1073270D01*
X288011Y1073676D01*
X287561Y1074094D01*
X287122Y1074522D01*
X286694Y1074961D01*
X286276Y1075411D01*
X285870Y1075871D01*
X285475Y1076340D01*
X285091Y1076819D01*
X284720Y1077308D01*
X284360Y1077805D01*
X284013Y1078311D01*
X283679Y1078825D01*
X283357Y1079347D01*
X283048Y1079878D01*
X282752Y1080415D01*
X282469Y1080960D01*
X282200Y1081511D01*
X281945Y1082069D01*
X281703Y1082633D01*
X281475Y1083203D01*
X281261Y1083778D01*
X281062Y1084358D01*
X280876Y1084943D01*
X280706Y1085532D01*
X280549Y1086125D01*
X280407Y1086722D01*
X280280Y1087323D01*
X280168Y1087926D01*
X280071Y1088532D01*
X279988Y1089140D01*
X279920Y1089750D01*
X279868Y1090361D01*
X279830Y1090973D01*
X279808Y1091586D01*
X279800Y1092200D01*
X279800Y1155700D02*
X279808Y1156314D01*
X279830Y1156927D01*
X279868Y1157539D01*
X279920Y1158150D01*
X279988Y1158760D01*
X280071Y1159368D01*
X280168Y1159974D01*
X280280Y1160577D01*
X280407Y1161178D01*
X280549Y1161775D01*
X280706Y1162368D01*
X280876Y1162957D01*
X281062Y1163542D01*
X281261Y1164122D01*
X281475Y1164697D01*
X281703Y1165267D01*
X281945Y1165831D01*
X282200Y1166389D01*
X282469Y1166940D01*
X282752Y1167485D01*
X283048Y1168022D01*
X283357Y1168553D01*
X283679Y1169075D01*
X284013Y1169589D01*
X284360Y1170095D01*
X284720Y1170592D01*
X285091Y1171081D01*
X285475Y1171560D01*
X285870Y1172029D01*
X286276Y1172489D01*
X286694Y1172939D01*
X287122Y1173378D01*
X287561Y1173806D01*
X288011Y1174224D01*
X288471Y1174630D01*
X288940Y1175025D01*
X289419Y1175409D01*
X289908Y1175780D01*
X290405Y1176140D01*
X290911Y1176487D01*
X291425Y1176821D01*
X291947Y1177143D01*
X292478Y1177452D01*
X293015Y1177748D01*
X293560Y1178031D01*
X294111Y1178300D01*
X294669Y1178555D01*
X295233Y1178797D01*
X295803Y1179025D01*
X296378Y1179239D01*
X296958Y1179438D01*
X297543Y1179624D01*
X298132Y1179794D01*
X298725Y1179951D01*
X299322Y1180093D01*
X299923Y1180220D01*
X300526Y1180332D01*
X301132Y1180429D01*
X301740Y1180512D01*
X302350Y1180580D01*
X302961Y1180632D01*
X303573Y1180670D01*
X304186Y1180692D01*
X304800Y1180700D01*
X305414Y1180692D01*
X306027Y1180670D01*
X306639Y1180632D01*
X307250Y1180580D01*
X307860Y1180512D01*
X308468Y1180429D01*
X309074Y1180332D01*
X309677Y1180220D01*
X310278Y1180093D01*
X310875Y1179951D01*
X311468Y1179794D01*
X312057Y1179624D01*
X312642Y1179438D01*
X313222Y1179239D01*
X313797Y1179025D01*
X314367Y1178797D01*
X314931Y1178555D01*
X315489Y1178300D01*
X316040Y1178031D01*
X316585Y1177748D01*
X317122Y1177452D01*
X317653Y1177143D01*
X318175Y1176821D01*
X318689Y1176487D01*
X319195Y1176140D01*
X319692Y1175780D01*
X320181Y1175409D01*
X320660Y1175025D01*
X321129Y1174630D01*
X321589Y1174224D01*
X322039Y1173806D01*
X322478Y1173378D01*
X322906Y1172939D01*
X323324Y1172489D01*
X323730Y1172029D01*
X324125Y1171560D01*
X324509Y1171081D01*
X324880Y1170592D01*
X325240Y1170095D01*
X325587Y1169589D01*
X325921Y1169075D01*
X326243Y1168553D01*
X326552Y1168022D01*
X326848Y1167485D01*
X327131Y1166940D01*
X327400Y1166389D01*
X327655Y1165831D01*
X327897Y1165267D01*
X328125Y1164697D01*
X328339Y1164122D01*
X328538Y1163542D01*
X328724Y1162957D01*
X328894Y1162368D01*
X329051Y1161775D01*
X329193Y1161178D01*
X329320Y1160577D01*
X329432Y1159974D01*
X329529Y1159368D01*
X329612Y1158760D01*
X329680Y1158150D01*
X329732Y1157539D01*
X329770Y1156927D01*
X329792Y1156314D01*
X329800Y1155700D01*
X329792Y1155086D01*
X329770Y1154473D01*
X329732Y1153861D01*
X329680Y1153250D01*
X329612Y1152640D01*
X329529Y1152032D01*
X329432Y1151426D01*
X329320Y1150823D01*
X329193Y1150222D01*
X329051Y1149625D01*
X328894Y1149032D01*
X328724Y1148443D01*
X328538Y1147858D01*
X328339Y1147278D01*
X328125Y1146703D01*
X327897Y1146133D01*
X327655Y1145569D01*
X327400Y1145011D01*
X327131Y1144460D01*
X326848Y1143915D01*
X326552Y1143378D01*
X326243Y1142847D01*
X325921Y1142325D01*
X325587Y1141811D01*
X325240Y1141305D01*
X324880Y1140808D01*
X324509Y1140319D01*
X324125Y1139840D01*
X323730Y1139371D01*
X323324Y1138911D01*
X322906Y1138461D01*
X322478Y1138022D01*
X322039Y1137594D01*
X321589Y1137176D01*
X321129Y1136770D01*
X320660Y1136375D01*
X320181Y1135991D01*
X319692Y1135620D01*
X319195Y1135260D01*
X318689Y1134913D01*
X318175Y1134579D01*
X317653Y1134257D01*
X317122Y1133948D01*
X316585Y1133652D01*
X316040Y1133369D01*
X315489Y1133100D01*
X314931Y1132845D01*
X314367Y1132603D01*
X313797Y1132375D01*
X313222Y1132161D01*
X312642Y1131962D01*
X312057Y1131776D01*
X311468Y1131606D01*
X310875Y1131449D01*
X310278Y1131307D01*
X309677Y1131180D01*
X309074Y1131068D01*
X308468Y1130971D01*
X307860Y1130888D01*
X307250Y1130820D01*
X306639Y1130768D01*
X306027Y1130730D01*
X305414Y1130708D01*
X304800Y1130700D01*
X304186Y1130708D01*
X303573Y1130730D01*
X302961Y1130768D01*
X302350Y1130820D01*
X301740Y1130888D01*
X301132Y1130971D01*
X300526Y1131068D01*
X299923Y1131180D01*
X299322Y1131307D01*
X298725Y1131449D01*
X298132Y1131606D01*
X297543Y1131776D01*
X296958Y1131962D01*
X296378Y1132161D01*
X295803Y1132375D01*
X295233Y1132603D01*
X294669Y1132845D01*
X294111Y1133100D01*
X293560Y1133369D01*
X293015Y1133652D01*
X292478Y1133948D01*
X291947Y1134257D01*
X291425Y1134579D01*
X290911Y1134913D01*
X290405Y1135260D01*
X289908Y1135620D01*
X289419Y1135991D01*
X288940Y1136375D01*
X288471Y1136770D01*
X288011Y1137176D01*
X287561Y1137594D01*
X287122Y1138022D01*
X286694Y1138461D01*
X286276Y1138911D01*
X285870Y1139371D01*
X285475Y1139840D01*
X285091Y1140319D01*
X284720Y1140808D01*
X284360Y1141305D01*
X284013Y1141811D01*
X283679Y1142325D01*
X283357Y1142847D01*
X283048Y1143378D01*
X282752Y1143915D01*
X282469Y1144460D01*
X282200Y1145011D01*
X281945Y1145569D01*
X281703Y1146133D01*
X281475Y1146703D01*
X281261Y1147278D01*
X281062Y1147858D01*
X280876Y1148443D01*
X280706Y1149032D01*
X280549Y1149625D01*
X280407Y1150222D01*
X280280Y1150823D01*
X280168Y1151426D01*
X280071Y1152032D01*
X279988Y1152640D01*
X279920Y1153250D01*
X279868Y1153861D01*
X279830Y1154473D01*
X279808Y1155086D01*
X279800Y1155700D01*
X457600Y1028700D02*
X457608Y1029314D01*
X457630Y1029927D01*
X457668Y1030539D01*
X457720Y1031150D01*
X457788Y1031760D01*
X457871Y1032368D01*
X457968Y1032974D01*
X458080Y1033577D01*
X458207Y1034178D01*
X458349Y1034775D01*
X458506Y1035368D01*
X458676Y1035957D01*
X458862Y1036542D01*
X459061Y1037122D01*
X459275Y1037697D01*
X459503Y1038267D01*
X459745Y1038831D01*
X460000Y1039389D01*
X460269Y1039940D01*
X460552Y1040485D01*
X460848Y1041022D01*
X461157Y1041553D01*
X461479Y1042075D01*
X461813Y1042589D01*
X462160Y1043095D01*
X462520Y1043592D01*
X462891Y1044081D01*
X463275Y1044560D01*
X463670Y1045029D01*
X464076Y1045489D01*
X464494Y1045939D01*
X464922Y1046378D01*
X465361Y1046806D01*
X465811Y1047224D01*
X466271Y1047630D01*
X466740Y1048025D01*
X467219Y1048409D01*
X467708Y1048780D01*
X468205Y1049140D01*
X468711Y1049487D01*
X469225Y1049821D01*
X469747Y1050143D01*
X470278Y1050452D01*
X470815Y1050748D01*
X471360Y1051031D01*
X471911Y1051300D01*
X472469Y1051555D01*
X473033Y1051797D01*
X473603Y1052025D01*
X474178Y1052239D01*
X474758Y1052438D01*
X475343Y1052624D01*
X475932Y1052794D01*
X476525Y1052951D01*
X477122Y1053093D01*
X477723Y1053220D01*
X478326Y1053332D01*
X478932Y1053429D01*
X479540Y1053512D01*
X480150Y1053580D01*
X480761Y1053632D01*
X481373Y1053670D01*
X481986Y1053692D01*
X482600Y1053700D01*
X483214Y1053692D01*
X483827Y1053670D01*
X484439Y1053632D01*
X485050Y1053580D01*
X485660Y1053512D01*
X486268Y1053429D01*
X486874Y1053332D01*
X487477Y1053220D01*
X488078Y1053093D01*
X488675Y1052951D01*
X489268Y1052794D01*
X489857Y1052624D01*
X490442Y1052438D01*
X491022Y1052239D01*
X491597Y1052025D01*
X492167Y1051797D01*
X492731Y1051555D01*
X493289Y1051300D01*
X493840Y1051031D01*
X494385Y1050748D01*
X494922Y1050452D01*
X495453Y1050143D01*
X495975Y1049821D01*
X496489Y1049487D01*
X496995Y1049140D01*
X497492Y1048780D01*
X497981Y1048409D01*
X498460Y1048025D01*
X498929Y1047630D01*
X499389Y1047224D01*
X499839Y1046806D01*
X500278Y1046378D01*
X500706Y1045939D01*
X501124Y1045489D01*
X501530Y1045029D01*
X501925Y1044560D01*
X502309Y1044081D01*
X502680Y1043592D01*
X503040Y1043095D01*
X503387Y1042589D01*
X503721Y1042075D01*
X504043Y1041553D01*
X504352Y1041022D01*
X504648Y1040485D01*
X504931Y1039940D01*
X505200Y1039389D01*
X505455Y1038831D01*
X505697Y1038267D01*
X505925Y1037697D01*
X506139Y1037122D01*
X506338Y1036542D01*
X506524Y1035957D01*
X506694Y1035368D01*
X506851Y1034775D01*
X506993Y1034178D01*
X507120Y1033577D01*
X507232Y1032974D01*
X507329Y1032368D01*
X507412Y1031760D01*
X507480Y1031150D01*
X507532Y1030539D01*
X507570Y1029927D01*
X507592Y1029314D01*
X507600Y1028700D01*
X507592Y1028086D01*
X507570Y1027473D01*
X507532Y1026861D01*
X507480Y1026250D01*
X507412Y1025640D01*
X507329Y1025032D01*
X507232Y1024426D01*
X507120Y1023823D01*
X506993Y1023222D01*
X506851Y1022625D01*
X506694Y1022032D01*
X506524Y1021443D01*
X506338Y1020858D01*
X506139Y1020278D01*
X505925Y1019703D01*
X505697Y1019133D01*
X505455Y1018569D01*
X505200Y1018011D01*
X504931Y1017460D01*
X504648Y1016915D01*
X504352Y1016378D01*
X504043Y1015847D01*
X503721Y1015325D01*
X503387Y1014811D01*
X503040Y1014305D01*
X502680Y1013808D01*
X502309Y1013319D01*
X501925Y1012840D01*
X501530Y1012371D01*
X501124Y1011911D01*
X500706Y1011461D01*
X500278Y1011022D01*
X499839Y1010594D01*
X499389Y1010176D01*
X498929Y1009770D01*
X498460Y1009375D01*
X497981Y1008991D01*
X497492Y1008620D01*
X496995Y1008260D01*
X496489Y1007913D01*
X495975Y1007579D01*
X495453Y1007257D01*
X494922Y1006948D01*
X494385Y1006652D01*
X493840Y1006369D01*
X493289Y1006100D01*
X492731Y1005845D01*
X492167Y1005603D01*
X491597Y1005375D01*
X491022Y1005161D01*
X490442Y1004962D01*
X489857Y1004776D01*
X489268Y1004606D01*
X488675Y1004449D01*
X488078Y1004307D01*
X487477Y1004180D01*
X486874Y1004068D01*
X486268Y1003971D01*
X485660Y1003888D01*
X485050Y1003820D01*
X484439Y1003768D01*
X483827Y1003730D01*
X483214Y1003708D01*
X482600Y1003700D01*
X481986Y1003708D01*
X481373Y1003730D01*
X480761Y1003768D01*
X480150Y1003820D01*
X479540Y1003888D01*
X478932Y1003971D01*
X478326Y1004068D01*
X477723Y1004180D01*
X477122Y1004307D01*
X476525Y1004449D01*
X475932Y1004606D01*
X475343Y1004776D01*
X474758Y1004962D01*
X474178Y1005161D01*
X473603Y1005375D01*
X473033Y1005603D01*
X472469Y1005845D01*
X471911Y1006100D01*
X471360Y1006369D01*
X470815Y1006652D01*
X470278Y1006948D01*
X469747Y1007257D01*
X469225Y1007579D01*
X468711Y1007913D01*
X468205Y1008260D01*
X467708Y1008620D01*
X467219Y1008991D01*
X466740Y1009375D01*
X466271Y1009770D01*
X465811Y1010176D01*
X465361Y1010594D01*
X464922Y1011022D01*
X464494Y1011461D01*
X464076Y1011911D01*
X463670Y1012371D01*
X463275Y1012840D01*
X462891Y1013319D01*
X462520Y1013808D01*
X462160Y1014305D01*
X461813Y1014811D01*
X461479Y1015325D01*
X461157Y1015847D01*
X460848Y1016378D01*
X460552Y1016915D01*
X460269Y1017460D01*
X460000Y1018011D01*
X459745Y1018569D01*
X459503Y1019133D01*
X459275Y1019703D01*
X459061Y1020278D01*
X458862Y1020858D01*
X458676Y1021443D01*
X458506Y1022032D01*
X458349Y1022625D01*
X458207Y1023222D01*
X458080Y1023823D01*
X457968Y1024426D01*
X457871Y1025032D01*
X457788Y1025640D01*
X457720Y1026250D01*
X457668Y1026861D01*
X457630Y1027473D01*
X457608Y1028086D01*
X457600Y1028700D01*
X457600Y1092200D02*
X457608Y1092814D01*
X457630Y1093427D01*
X457668Y1094039D01*
X457720Y1094650D01*
X457788Y1095260D01*
X457871Y1095868D01*
X457968Y1096474D01*
X458080Y1097077D01*
X458207Y1097678D01*
X458349Y1098275D01*
X458506Y1098868D01*
X458676Y1099457D01*
X458862Y1100042D01*
X459061Y1100622D01*
X459275Y1101197D01*
X459503Y1101767D01*
X459745Y1102331D01*
X460000Y1102889D01*
X460269Y1103440D01*
X460552Y1103985D01*
X460848Y1104522D01*
X461157Y1105053D01*
X461479Y1105575D01*
X461813Y1106089D01*
X462160Y1106595D01*
X462520Y1107092D01*
X462891Y1107581D01*
X463275Y1108060D01*
X463670Y1108529D01*
X464076Y1108989D01*
X464494Y1109439D01*
X464922Y1109878D01*
X465361Y1110306D01*
X465811Y1110724D01*
X466271Y1111130D01*
X466740Y1111525D01*
X467219Y1111909D01*
X467708Y1112280D01*
X468205Y1112640D01*
X468711Y1112987D01*
X469225Y1113321D01*
X469747Y1113643D01*
X470278Y1113952D01*
X470815Y1114248D01*
X471360Y1114531D01*
X471911Y1114800D01*
X472469Y1115055D01*
X473033Y1115297D01*
X473603Y1115525D01*
X474178Y1115739D01*
X474758Y1115938D01*
X475343Y1116124D01*
X475932Y1116294D01*
X476525Y1116451D01*
X477122Y1116593D01*
X477723Y1116720D01*
X478326Y1116832D01*
X478932Y1116929D01*
X479540Y1117012D01*
X480150Y1117080D01*
X480761Y1117132D01*
X481373Y1117170D01*
X481986Y1117192D01*
X482600Y1117200D01*
X483214Y1117192D01*
X483827Y1117170D01*
X484439Y1117132D01*
X485050Y1117080D01*
X485660Y1117012D01*
X486268Y1116929D01*
X486874Y1116832D01*
X487477Y1116720D01*
X488078Y1116593D01*
X488675Y1116451D01*
X489268Y1116294D01*
X489857Y1116124D01*
X490442Y1115938D01*
X491022Y1115739D01*
X491597Y1115525D01*
X492167Y1115297D01*
X492731Y1115055D01*
X493289Y1114800D01*
X493840Y1114531D01*
X494385Y1114248D01*
X494922Y1113952D01*
X495453Y1113643D01*
X495975Y1113321D01*
X496489Y1112987D01*
X496995Y1112640D01*
X497492Y1112280D01*
X497981Y1111909D01*
X498460Y1111525D01*
X498929Y1111130D01*
X499389Y1110724D01*
X499839Y1110306D01*
X500278Y1109878D01*
X500706Y1109439D01*
X501124Y1108989D01*
X501530Y1108529D01*
X501925Y1108060D01*
X502309Y1107581D01*
X502680Y1107092D01*
X503040Y1106595D01*
X503387Y1106089D01*
X503721Y1105575D01*
X504043Y1105053D01*
X504352Y1104522D01*
X504648Y1103985D01*
X504931Y1103440D01*
X505200Y1102889D01*
X505455Y1102331D01*
X505697Y1101767D01*
X505925Y1101197D01*
X506139Y1100622D01*
X506338Y1100042D01*
X506524Y1099457D01*
X506694Y1098868D01*
X506851Y1098275D01*
X506993Y1097678D01*
X507120Y1097077D01*
X507232Y1096474D01*
X507329Y1095868D01*
X507412Y1095260D01*
X507480Y1094650D01*
X507532Y1094039D01*
X507570Y1093427D01*
X507592Y1092814D01*
X507600Y1092200D01*
X507592Y1091586D01*
X507570Y1090973D01*
X507532Y1090361D01*
X507480Y1089750D01*
X507412Y1089140D01*
X507329Y1088532D01*
X507232Y1087926D01*
X507120Y1087323D01*
X506993Y1086722D01*
X506851Y1086125D01*
X506694Y1085532D01*
X506524Y1084943D01*
X506338Y1084358D01*
X506139Y1083778D01*
X505925Y1083203D01*
X505697Y1082633D01*
X505455Y1082069D01*
X505200Y1081511D01*
X504931Y1080960D01*
X504648Y1080415D01*
X504352Y1079878D01*
X504043Y1079347D01*
X503721Y1078825D01*
X503387Y1078311D01*
X503040Y1077805D01*
X502680Y1077308D01*
X502309Y1076819D01*
X501925Y1076340D01*
X501530Y1075871D01*
X501124Y1075411D01*
X500706Y1074961D01*
X500278Y1074522D01*
X499839Y1074094D01*
X499389Y1073676D01*
X498929Y1073270D01*
X498460Y1072875D01*
X497981Y1072491D01*
X497492Y1072120D01*
X496995Y1071760D01*
X496489Y1071413D01*
X495975Y1071079D01*
X495453Y1070757D01*
X494922Y1070448D01*
X494385Y1070152D01*
X493840Y1069869D01*
X493289Y1069600D01*
X492731Y1069345D01*
X492167Y1069103D01*
X491597Y1068875D01*
X491022Y1068661D01*
X490442Y1068462D01*
X489857Y1068276D01*
X489268Y1068106D01*
X488675Y1067949D01*
X488078Y1067807D01*
X487477Y1067680D01*
X486874Y1067568D01*
X486268Y1067471D01*
X485660Y1067388D01*
X485050Y1067320D01*
X484439Y1067268D01*
X483827Y1067230D01*
X483214Y1067208D01*
X482600Y1067200D01*
X481986Y1067208D01*
X481373Y1067230D01*
X480761Y1067268D01*
X480150Y1067320D01*
X479540Y1067388D01*
X478932Y1067471D01*
X478326Y1067568D01*
X477723Y1067680D01*
X477122Y1067807D01*
X476525Y1067949D01*
X475932Y1068106D01*
X475343Y1068276D01*
X474758Y1068462D01*
X474178Y1068661D01*
X473603Y1068875D01*
X473033Y1069103D01*
X472469Y1069345D01*
X471911Y1069600D01*
X471360Y1069869D01*
X470815Y1070152D01*
X470278Y1070448D01*
X469747Y1070757D01*
X469225Y1071079D01*
X468711Y1071413D01*
X468205Y1071760D01*
X467708Y1072120D01*
X467219Y1072491D01*
X466740Y1072875D01*
X466271Y1073270D01*
X465811Y1073676D01*
X465361Y1074094D01*
X464922Y1074522D01*
X464494Y1074961D01*
X464076Y1075411D01*
X463670Y1075871D01*
X463275Y1076340D01*
X462891Y1076819D01*
X462520Y1077308D01*
X462160Y1077805D01*
X461813Y1078311D01*
X461479Y1078825D01*
X461157Y1079347D01*
X460848Y1079878D01*
X460552Y1080415D01*
X460269Y1080960D01*
X460000Y1081511D01*
X459745Y1082069D01*
X459503Y1082633D01*
X459275Y1083203D01*
X459061Y1083778D01*
X458862Y1084358D01*
X458676Y1084943D01*
X458506Y1085532D01*
X458349Y1086125D01*
X458207Y1086722D01*
X458080Y1087323D01*
X457968Y1087926D01*
X457871Y1088532D01*
X457788Y1089140D01*
X457720Y1089750D01*
X457668Y1090361D01*
X457630Y1090973D01*
X457608Y1091586D01*
X457600Y1092200D01*
X457600Y1155700D02*
X457608Y1156314D01*
X457630Y1156927D01*
X457668Y1157539D01*
X457720Y1158150D01*
X457788Y1158760D01*
X457871Y1159368D01*
X457968Y1159974D01*
X458080Y1160577D01*
X458207Y1161178D01*
X458349Y1161775D01*
X458506Y1162368D01*
X458676Y1162957D01*
X458862Y1163542D01*
X459061Y1164122D01*
X459275Y1164697D01*
X459503Y1165267D01*
X459745Y1165831D01*
X460000Y1166389D01*
X460269Y1166940D01*
X460552Y1167485D01*
X460848Y1168022D01*
X461157Y1168553D01*
X461479Y1169075D01*
X461813Y1169589D01*
X462160Y1170095D01*
X462520Y1170592D01*
X462891Y1171081D01*
X463275Y1171560D01*
X463670Y1172029D01*
X464076Y1172489D01*
X464494Y1172939D01*
X464922Y1173378D01*
X465361Y1173806D01*
X465811Y1174224D01*
X466271Y1174630D01*
X466740Y1175025D01*
X467219Y1175409D01*
X467708Y1175780D01*
X468205Y1176140D01*
X468711Y1176487D01*
X469225Y1176821D01*
X469747Y1177143D01*
X470278Y1177452D01*
X470815Y1177748D01*
X471360Y1178031D01*
X471911Y1178300D01*
X472469Y1178555D01*
X473033Y1178797D01*
X473603Y1179025D01*
X474178Y1179239D01*
X474758Y1179438D01*
X475343Y1179624D01*
X475932Y1179794D01*
X476525Y1179951D01*
X477122Y1180093D01*
X477723Y1180220D01*
X478326Y1180332D01*
X478932Y1180429D01*
X479540Y1180512D01*
X480150Y1180580D01*
X480761Y1180632D01*
X481373Y1180670D01*
X481986Y1180692D01*
X482600Y1180700D01*
X483214Y1180692D01*
X483827Y1180670D01*
X484439Y1180632D01*
X485050Y1180580D01*
X485660Y1180512D01*
X486268Y1180429D01*
X486874Y1180332D01*
X487477Y1180220D01*
X488078Y1180093D01*
X488675Y1179951D01*
X489268Y1179794D01*
X489857Y1179624D01*
X490442Y1179438D01*
X491022Y1179239D01*
X491597Y1179025D01*
X492167Y1178797D01*
X492731Y1178555D01*
X493289Y1178300D01*
X493840Y1178031D01*
X494385Y1177748D01*
X494922Y1177452D01*
X495453Y1177143D01*
X495975Y1176821D01*
X496489Y1176487D01*
X496995Y1176140D01*
X497492Y1175780D01*
X497981Y1175409D01*
X498460Y1175025D01*
X498929Y1174630D01*
X499389Y1174224D01*
X499839Y1173806D01*
X500278Y1173378D01*
X500706Y1172939D01*
X501124Y1172489D01*
X501530Y1172029D01*
X501925Y1171560D01*
X502309Y1171081D01*
X502680Y1170592D01*
X503040Y1170095D01*
X503387Y1169589D01*
X503721Y1169075D01*
X504043Y1168553D01*
X504352Y1168022D01*
X504648Y1167485D01*
X504931Y1166940D01*
X505200Y1166389D01*
X505455Y1165831D01*
X505697Y1165267D01*
X505925Y1164697D01*
X506139Y1164122D01*
X506338Y1163542D01*
X506524Y1162957D01*
X506694Y1162368D01*
X506851Y1161775D01*
X506993Y1161178D01*
X507120Y1160577D01*
X507232Y1159974D01*
X507329Y1159368D01*
X507412Y1158760D01*
X507480Y1158150D01*
X507532Y1157539D01*
X507570Y1156927D01*
X507592Y1156314D01*
X507600Y1155700D01*
X507592Y1155086D01*
X507570Y1154473D01*
X507532Y1153861D01*
X507480Y1153250D01*
X507412Y1152640D01*
X507329Y1152032D01*
X507232Y1151426D01*
X507120Y1150823D01*
X506993Y1150222D01*
X506851Y1149625D01*
X506694Y1149032D01*
X506524Y1148443D01*
X506338Y1147858D01*
X506139Y1147278D01*
X505925Y1146703D01*
X505697Y1146133D01*
X505455Y1145569D01*
X505200Y1145011D01*
X504931Y1144460D01*
X504648Y1143915D01*
X504352Y1143378D01*
X504043Y1142847D01*
X503721Y1142325D01*
X503387Y1141811D01*
X503040Y1141305D01*
X502680Y1140808D01*
X502309Y1140319D01*
X501925Y1139840D01*
X501530Y1139371D01*
X501124Y1138911D01*
X500706Y1138461D01*
X500278Y1138022D01*
X499839Y1137594D01*
X499389Y1137176D01*
X498929Y1136770D01*
X498460Y1136375D01*
X497981Y1135991D01*
X497492Y1135620D01*
X496995Y1135260D01*
X496489Y1134913D01*
X495975Y1134579D01*
X495453Y1134257D01*
X494922Y1133948D01*
X494385Y1133652D01*
X493840Y1133369D01*
X493289Y1133100D01*
X492731Y1132845D01*
X492167Y1132603D01*
X491597Y1132375D01*
X491022Y1132161D01*
X490442Y1131962D01*
X489857Y1131776D01*
X489268Y1131606D01*
X488675Y1131449D01*
X488078Y1131307D01*
X487477Y1131180D01*
X486874Y1131068D01*
X486268Y1130971D01*
X485660Y1130888D01*
X485050Y1130820D01*
X484439Y1130768D01*
X483827Y1130730D01*
X483214Y1130708D01*
X482600Y1130700D01*
X481986Y1130708D01*
X481373Y1130730D01*
X480761Y1130768D01*
X480150Y1130820D01*
X479540Y1130888D01*
X478932Y1130971D01*
X478326Y1131068D01*
X477723Y1131180D01*
X477122Y1131307D01*
X476525Y1131449D01*
X475932Y1131606D01*
X475343Y1131776D01*
X474758Y1131962D01*
X474178Y1132161D01*
X473603Y1132375D01*
X473033Y1132603D01*
X472469Y1132845D01*
X471911Y1133100D01*
X471360Y1133369D01*
X470815Y1133652D01*
X470278Y1133948D01*
X469747Y1134257D01*
X469225Y1134579D01*
X468711Y1134913D01*
X468205Y1135260D01*
X467708Y1135620D01*
X467219Y1135991D01*
X466740Y1136375D01*
X466271Y1136770D01*
X465811Y1137176D01*
X465361Y1137594D01*
X464922Y1138022D01*
X464494Y1138461D01*
X464076Y1138911D01*
X463670Y1139371D01*
X463275Y1139840D01*
X462891Y1140319D01*
X462520Y1140808D01*
X462160Y1141305D01*
X461813Y1141811D01*
X461479Y1142325D01*
X461157Y1142847D01*
X460848Y1143378D01*
X460552Y1143915D01*
X460269Y1144460D01*
X460000Y1145011D01*
X459745Y1145569D01*
X459503Y1146133D01*
X459275Y1146703D01*
X459061Y1147278D01*
X458862Y1147858D01*
X458676Y1148443D01*
X458506Y1149032D01*
X458349Y1149625D01*
X458207Y1150222D01*
X458080Y1150823D01*
X457968Y1151426D01*
X457871Y1152032D01*
X457788Y1152640D01*
X457720Y1153250D01*
X457668Y1153861D01*
X457630Y1154473D01*
X457608Y1155086D01*
X457600Y1155700D01*
X635400Y1028700D02*
X635408Y1029314D01*
X635430Y1029927D01*
X635468Y1030539D01*
X635520Y1031150D01*
X635588Y1031760D01*
X635671Y1032368D01*
X635768Y1032974D01*
X635880Y1033577D01*
X636007Y1034178D01*
X636149Y1034775D01*
X636306Y1035368D01*
X636476Y1035957D01*
X636662Y1036542D01*
X636861Y1037122D01*
X637075Y1037697D01*
X637303Y1038267D01*
X637545Y1038831D01*
X637800Y1039389D01*
X638069Y1039940D01*
X638352Y1040485D01*
X638648Y1041022D01*
X638957Y1041553D01*
X639279Y1042075D01*
X639613Y1042589D01*
X639960Y1043095D01*
X640320Y1043592D01*
X640691Y1044081D01*
X641075Y1044560D01*
X641470Y1045029D01*
X641876Y1045489D01*
X642294Y1045939D01*
X642722Y1046378D01*
X643161Y1046806D01*
X643611Y1047224D01*
X644071Y1047630D01*
X644540Y1048025D01*
X645019Y1048409D01*
X645508Y1048780D01*
X646005Y1049140D01*
X646511Y1049487D01*
X647025Y1049821D01*
X647547Y1050143D01*
X648078Y1050452D01*
X648615Y1050748D01*
X649160Y1051031D01*
X649711Y1051300D01*
X650269Y1051555D01*
X650833Y1051797D01*
X651403Y1052025D01*
X651978Y1052239D01*
X652558Y1052438D01*
X653143Y1052624D01*
X653732Y1052794D01*
X654325Y1052951D01*
X654922Y1053093D01*
X655523Y1053220D01*
X656126Y1053332D01*
X656732Y1053429D01*
X657340Y1053512D01*
X657950Y1053580D01*
X658561Y1053632D01*
X659173Y1053670D01*
X659786Y1053692D01*
X660400Y1053700D01*
X661014Y1053692D01*
X661627Y1053670D01*
X662239Y1053632D01*
X662850Y1053580D01*
X663460Y1053512D01*
X664068Y1053429D01*
X664674Y1053332D01*
X665277Y1053220D01*
X665878Y1053093D01*
X666475Y1052951D01*
X667068Y1052794D01*
X667657Y1052624D01*
X668242Y1052438D01*
X668822Y1052239D01*
X669397Y1052025D01*
X669967Y1051797D01*
X670531Y1051555D01*
X671089Y1051300D01*
X671640Y1051031D01*
X672185Y1050748D01*
X672722Y1050452D01*
X673253Y1050143D01*
X673775Y1049821D01*
X674289Y1049487D01*
X674795Y1049140D01*
X675292Y1048780D01*
X675781Y1048409D01*
X676260Y1048025D01*
X676729Y1047630D01*
X677189Y1047224D01*
X677639Y1046806D01*
X678078Y1046378D01*
X678506Y1045939D01*
X678924Y1045489D01*
X679330Y1045029D01*
X679725Y1044560D01*
X680109Y1044081D01*
X680480Y1043592D01*
X680840Y1043095D01*
X681187Y1042589D01*
X681521Y1042075D01*
X681843Y1041553D01*
X682152Y1041022D01*
X682448Y1040485D01*
X682731Y1039940D01*
X683000Y1039389D01*
X683255Y1038831D01*
X683497Y1038267D01*
X683725Y1037697D01*
X683939Y1037122D01*
X684138Y1036542D01*
X684324Y1035957D01*
X684494Y1035368D01*
X684651Y1034775D01*
X684793Y1034178D01*
X684920Y1033577D01*
X685032Y1032974D01*
X685129Y1032368D01*
X685212Y1031760D01*
X685280Y1031150D01*
X685332Y1030539D01*
X685370Y1029927D01*
X685392Y1029314D01*
X685400Y1028700D01*
X685392Y1028086D01*
X685370Y1027473D01*
X685332Y1026861D01*
X685280Y1026250D01*
X685212Y1025640D01*
X685129Y1025032D01*
X685032Y1024426D01*
X684920Y1023823D01*
X684793Y1023222D01*
X684651Y1022625D01*
X684494Y1022032D01*
X684324Y1021443D01*
X684138Y1020858D01*
X683939Y1020278D01*
X683725Y1019703D01*
X683497Y1019133D01*
X683255Y1018569D01*
X683000Y1018011D01*
X682731Y1017460D01*
X682448Y1016915D01*
X682152Y1016378D01*
X681843Y1015847D01*
X681521Y1015325D01*
X681187Y1014811D01*
X680840Y1014305D01*
X680480Y1013808D01*
X680109Y1013319D01*
X679725Y1012840D01*
X679330Y1012371D01*
X678924Y1011911D01*
X678506Y1011461D01*
X678078Y1011022D01*
X677639Y1010594D01*
X677189Y1010176D01*
X676729Y1009770D01*
X676260Y1009375D01*
X675781Y1008991D01*
X675292Y1008620D01*
X674795Y1008260D01*
X674289Y1007913D01*
X673775Y1007579D01*
X673253Y1007257D01*
X672722Y1006948D01*
X672185Y1006652D01*
X671640Y1006369D01*
X671089Y1006100D01*
X670531Y1005845D01*
X669967Y1005603D01*
X669397Y1005375D01*
X668822Y1005161D01*
X668242Y1004962D01*
X667657Y1004776D01*
X667068Y1004606D01*
X666475Y1004449D01*
X665878Y1004307D01*
X665277Y1004180D01*
X664674Y1004068D01*
X664068Y1003971D01*
X663460Y1003888D01*
X662850Y1003820D01*
X662239Y1003768D01*
X661627Y1003730D01*
X661014Y1003708D01*
X660400Y1003700D01*
X659786Y1003708D01*
X659173Y1003730D01*
X658561Y1003768D01*
X657950Y1003820D01*
X657340Y1003888D01*
X656732Y1003971D01*
X656126Y1004068D01*
X655523Y1004180D01*
X654922Y1004307D01*
X654325Y1004449D01*
X653732Y1004606D01*
X653143Y1004776D01*
X652558Y1004962D01*
X651978Y1005161D01*
X651403Y1005375D01*
X650833Y1005603D01*
X650269Y1005845D01*
X649711Y1006100D01*
X649160Y1006369D01*
X648615Y1006652D01*
X648078Y1006948D01*
X647547Y1007257D01*
X647025Y1007579D01*
X646511Y1007913D01*
X646005Y1008260D01*
X645508Y1008620D01*
X645019Y1008991D01*
X644540Y1009375D01*
X644071Y1009770D01*
X643611Y1010176D01*
X643161Y1010594D01*
X642722Y1011022D01*
X642294Y1011461D01*
X641876Y1011911D01*
X641470Y1012371D01*
X641075Y1012840D01*
X640691Y1013319D01*
X640320Y1013808D01*
X639960Y1014305D01*
X639613Y1014811D01*
X639279Y1015325D01*
X638957Y1015847D01*
X638648Y1016378D01*
X638352Y1016915D01*
X638069Y1017460D01*
X637800Y1018011D01*
X637545Y1018569D01*
X637303Y1019133D01*
X637075Y1019703D01*
X636861Y1020278D01*
X636662Y1020858D01*
X636476Y1021443D01*
X636306Y1022032D01*
X636149Y1022625D01*
X636007Y1023222D01*
X635880Y1023823D01*
X635768Y1024426D01*
X635671Y1025032D01*
X635588Y1025640D01*
X635520Y1026250D01*
X635468Y1026861D01*
X635430Y1027473D01*
X635408Y1028086D01*
X635400Y1028700D01*
X635400Y1092200D02*
X635408Y1092814D01*
X635430Y1093427D01*
X635468Y1094039D01*
X635520Y1094650D01*
X635588Y1095260D01*
X635671Y1095868D01*
X635768Y1096474D01*
X635880Y1097077D01*
X636007Y1097678D01*
X636149Y1098275D01*
X636306Y1098868D01*
X636476Y1099457D01*
X636662Y1100042D01*
X636861Y1100622D01*
X637075Y1101197D01*
X637303Y1101767D01*
X637545Y1102331D01*
X637800Y1102889D01*
X638069Y1103440D01*
X638352Y1103985D01*
X638648Y1104522D01*
X638957Y1105053D01*
X639279Y1105575D01*
X639613Y1106089D01*
X639960Y1106595D01*
X640320Y1107092D01*
X640691Y1107581D01*
X641075Y1108060D01*
X641470Y1108529D01*
X641876Y1108989D01*
X642294Y1109439D01*
X642722Y1109878D01*
X643161Y1110306D01*
X643611Y1110724D01*
X644071Y1111130D01*
X644540Y1111525D01*
X645019Y1111909D01*
X645508Y1112280D01*
X646005Y1112640D01*
X646511Y1112987D01*
X647025Y1113321D01*
X647547Y1113643D01*
X648078Y1113952D01*
X648615Y1114248D01*
X649160Y1114531D01*
X649711Y1114800D01*
X650269Y1115055D01*
X650833Y1115297D01*
X651403Y1115525D01*
X651978Y1115739D01*
X652558Y1115938D01*
X653143Y1116124D01*
X653732Y1116294D01*
X654325Y1116451D01*
X654922Y1116593D01*
X655523Y1116720D01*
X656126Y1116832D01*
X656732Y1116929D01*
X657340Y1117012D01*
X657950Y1117080D01*
X658561Y1117132D01*
X659173Y1117170D01*
X659786Y1117192D01*
X660400Y1117200D01*
X661014Y1117192D01*
X661627Y1117170D01*
X662239Y1117132D01*
X662850Y1117080D01*
X663460Y1117012D01*
X664068Y1116929D01*
X664674Y1116832D01*
X665277Y1116720D01*
X665878Y1116593D01*
X666475Y1116451D01*
X667068Y1116294D01*
X667657Y1116124D01*
X668242Y1115938D01*
X668822Y1115739D01*
X669397Y1115525D01*
X669967Y1115297D01*
X670531Y1115055D01*
X671089Y1114800D01*
X671640Y1114531D01*
X672185Y1114248D01*
X672722Y1113952D01*
X673253Y1113643D01*
X673775Y1113321D01*
X674289Y1112987D01*
X674795Y1112640D01*
X675292Y1112280D01*
X675781Y1111909D01*
X676260Y1111525D01*
X676729Y1111130D01*
X677189Y1110724D01*
X677639Y1110306D01*
X678078Y1109878D01*
X678506Y1109439D01*
X678924Y1108989D01*
X679330Y1108529D01*
X679725Y1108060D01*
X680109Y1107581D01*
X680480Y1107092D01*
X680840Y1106595D01*
X681187Y1106089D01*
X681521Y1105575D01*
X681843Y1105053D01*
X682152Y1104522D01*
X682448Y1103985D01*
X682731Y1103440D01*
X683000Y1102889D01*
X683255Y1102331D01*
X683497Y1101767D01*
X683725Y1101197D01*
X683939Y1100622D01*
X684138Y1100042D01*
X684324Y1099457D01*
X684494Y1098868D01*
X684651Y1098275D01*
X684793Y1097678D01*
X684920Y1097077D01*
X685032Y1096474D01*
X685129Y1095868D01*
X685212Y1095260D01*
X685280Y1094650D01*
X685332Y1094039D01*
X685370Y1093427D01*
X685392Y1092814D01*
X685400Y1092200D01*
X685392Y1091586D01*
X685370Y1090973D01*
X685332Y1090361D01*
X685280Y1089750D01*
X685212Y1089140D01*
X685129Y1088532D01*
X685032Y1087926D01*
X684920Y1087323D01*
X684793Y1086722D01*
X684651Y1086125D01*
X684494Y1085532D01*
X684324Y1084943D01*
X684138Y1084358D01*
X683939Y1083778D01*
X683725Y1083203D01*
X683497Y1082633D01*
X683255Y1082069D01*
X683000Y1081511D01*
X682731Y1080960D01*
X682448Y1080415D01*
X682152Y1079878D01*
X681843Y1079347D01*
X681521Y1078825D01*
X681187Y1078311D01*
X680840Y1077805D01*
X680480Y1077308D01*
X680109Y1076819D01*
X679725Y1076340D01*
X679330Y1075871D01*
X678924Y1075411D01*
X678506Y1074961D01*
X678078Y1074522D01*
X677639Y1074094D01*
X677189Y1073676D01*
X676729Y1073270D01*
X676260Y1072875D01*
X675781Y1072491D01*
X675292Y1072120D01*
X674795Y1071760D01*
X674289Y1071413D01*
X673775Y1071079D01*
X673253Y1070757D01*
X672722Y1070448D01*
X672185Y1070152D01*
X671640Y1069869D01*
X671089Y1069600D01*
X670531Y1069345D01*
X669967Y1069103D01*
X669397Y1068875D01*
X668822Y1068661D01*
X668242Y1068462D01*
X667657Y1068276D01*
X667068Y1068106D01*
X666475Y1067949D01*
X665878Y1067807D01*
X665277Y1067680D01*
X664674Y1067568D01*
X664068Y1067471D01*
X663460Y1067388D01*
X662850Y1067320D01*
X662239Y1067268D01*
X661627Y1067230D01*
X661014Y1067208D01*
X660400Y1067200D01*
X659786Y1067208D01*
X659173Y1067230D01*
X658561Y1067268D01*
X657950Y1067320D01*
X657340Y1067388D01*
X656732Y1067471D01*
X656126Y1067568D01*
X655523Y1067680D01*
X654922Y1067807D01*
X654325Y1067949D01*
X653732Y1068106D01*
X653143Y1068276D01*
X652558Y1068462D01*
X651978Y1068661D01*
X651403Y1068875D01*
X650833Y1069103D01*
X650269Y1069345D01*
X649711Y1069600D01*
X649160Y1069869D01*
X648615Y1070152D01*
X648078Y1070448D01*
X647547Y1070757D01*
X647025Y1071079D01*
X646511Y1071413D01*
X646005Y1071760D01*
X645508Y1072120D01*
X645019Y1072491D01*
X644540Y1072875D01*
X644071Y1073270D01*
X643611Y1073676D01*
X643161Y1074094D01*
X642722Y1074522D01*
X642294Y1074961D01*
X641876Y1075411D01*
X641470Y1075871D01*
X641075Y1076340D01*
X640691Y1076819D01*
X640320Y1077308D01*
X639960Y1077805D01*
X639613Y1078311D01*
X639279Y1078825D01*
X638957Y1079347D01*
X638648Y1079878D01*
X638352Y1080415D01*
X638069Y1080960D01*
X637800Y1081511D01*
X637545Y1082069D01*
X637303Y1082633D01*
X637075Y1083203D01*
X636861Y1083778D01*
X636662Y1084358D01*
X636476Y1084943D01*
X636306Y1085532D01*
X636149Y1086125D01*
X636007Y1086722D01*
X635880Y1087323D01*
X635768Y1087926D01*
X635671Y1088532D01*
X635588Y1089140D01*
X635520Y1089750D01*
X635468Y1090361D01*
X635430Y1090973D01*
X635408Y1091586D01*
X635400Y1092200D01*
X635400Y1155700D02*
X635408Y1156314D01*
X635430Y1156927D01*
X635468Y1157539D01*
X635520Y1158150D01*
X635588Y1158760D01*
X635671Y1159368D01*
X635768Y1159974D01*
X635880Y1160577D01*
X636007Y1161178D01*
X636149Y1161775D01*
X636306Y1162368D01*
X636476Y1162957D01*
X636662Y1163542D01*
X636861Y1164122D01*
X637075Y1164697D01*
X637303Y1165267D01*
X637545Y1165831D01*
X637800Y1166389D01*
X638069Y1166940D01*
X638352Y1167485D01*
X638648Y1168022D01*
X638957Y1168553D01*
X639279Y1169075D01*
X639613Y1169589D01*
X639960Y1170095D01*
X640320Y1170592D01*
X640691Y1171081D01*
X641075Y1171560D01*
X641470Y1172029D01*
X641876Y1172489D01*
X642294Y1172939D01*
X642722Y1173378D01*
X643161Y1173806D01*
X643611Y1174224D01*
X644071Y1174630D01*
X644540Y1175025D01*
X645019Y1175409D01*
X645508Y1175780D01*
X646005Y1176140D01*
X646511Y1176487D01*
X647025Y1176821D01*
X647547Y1177143D01*
X648078Y1177452D01*
X648615Y1177748D01*
X649160Y1178031D01*
X649711Y1178300D01*
X650269Y1178555D01*
X650833Y1178797D01*
X651403Y1179025D01*
X651978Y1179239D01*
X652558Y1179438D01*
X653143Y1179624D01*
X653732Y1179794D01*
X654325Y1179951D01*
X654922Y1180093D01*
X655523Y1180220D01*
X656126Y1180332D01*
X656732Y1180429D01*
X657340Y1180512D01*
X657950Y1180580D01*
X658561Y1180632D01*
X659173Y1180670D01*
X659786Y1180692D01*
X660400Y1180700D01*
X661014Y1180692D01*
X661627Y1180670D01*
X662239Y1180632D01*
X662850Y1180580D01*
X663460Y1180512D01*
X664068Y1180429D01*
X664674Y1180332D01*
X665277Y1180220D01*
X665878Y1180093D01*
X666475Y1179951D01*
X667068Y1179794D01*
X667657Y1179624D01*
X668242Y1179438D01*
X668822Y1179239D01*
X669397Y1179025D01*
X669967Y1178797D01*
X670531Y1178555D01*
X671089Y1178300D01*
X671640Y1178031D01*
X672185Y1177748D01*
X672722Y1177452D01*
X673253Y1177143D01*
X673775Y1176821D01*
X674289Y1176487D01*
X674795Y1176140D01*
X675292Y1175780D01*
X675781Y1175409D01*
X676260Y1175025D01*
X676729Y1174630D01*
X677189Y1174224D01*
X677639Y1173806D01*
X678078Y1173378D01*
X678506Y1172939D01*
X678924Y1172489D01*
X679330Y1172029D01*
X679725Y1171560D01*
X680109Y1171081D01*
X680480Y1170592D01*
X680840Y1170095D01*
X681187Y1169589D01*
X681521Y1169075D01*
X681843Y1168553D01*
X682152Y1168022D01*
X682448Y1167485D01*
X682731Y1166940D01*
X683000Y1166389D01*
X683255Y1165831D01*
X683497Y1165267D01*
X683725Y1164697D01*
X683939Y1164122D01*
X684138Y1163542D01*
X684324Y1162957D01*
X684494Y1162368D01*
X684651Y1161775D01*
X684793Y1161178D01*
X684920Y1160577D01*
X685032Y1159974D01*
X685129Y1159368D01*
X685212Y1158760D01*
X685280Y1158150D01*
X685332Y1157539D01*
X685370Y1156927D01*
X685392Y1156314D01*
X685400Y1155700D01*
X685392Y1155086D01*
X685370Y1154473D01*
X685332Y1153861D01*
X685280Y1153250D01*
X685212Y1152640D01*
X685129Y1152032D01*
X685032Y1151426D01*
X684920Y1150823D01*
X684793Y1150222D01*
X684651Y1149625D01*
X684494Y1149032D01*
X684324Y1148443D01*
X684138Y1147858D01*
X683939Y1147278D01*
X683725Y1146703D01*
X683497Y1146133D01*
X683255Y1145569D01*
X683000Y1145011D01*
X682731Y1144460D01*
X682448Y1143915D01*
X682152Y1143378D01*
X681843Y1142847D01*
X681521Y1142325D01*
X681187Y1141811D01*
X680840Y1141305D01*
X680480Y1140808D01*
X680109Y1140319D01*
X679725Y1139840D01*
X679330Y1139371D01*
X678924Y1138911D01*
X678506Y1138461D01*
X678078Y1138022D01*
X677639Y1137594D01*
X677189Y1137176D01*
X676729Y1136770D01*
X676260Y1136375D01*
X675781Y1135991D01*
X675292Y1135620D01*
X674795Y1135260D01*
X674289Y1134913D01*
X673775Y1134579D01*
X673253Y1134257D01*
X672722Y1133948D01*
X672185Y1133652D01*
X671640Y1133369D01*
X671089Y1133100D01*
X670531Y1132845D01*
X669967Y1132603D01*
X669397Y1132375D01*
X668822Y1132161D01*
X668242Y1131962D01*
X667657Y1131776D01*
X667068Y1131606D01*
X666475Y1131449D01*
X665878Y1131307D01*
X665277Y1131180D01*
X664674Y1131068D01*
X664068Y1130971D01*
X663460Y1130888D01*
X662850Y1130820D01*
X662239Y1130768D01*
X661627Y1130730D01*
X661014Y1130708D01*
X660400Y1130700D01*
X659786Y1130708D01*
X659173Y1130730D01*
X658561Y1130768D01*
X657950Y1130820D01*
X657340Y1130888D01*
X656732Y1130971D01*
X656126Y1131068D01*
X655523Y1131180D01*
X654922Y1131307D01*
X654325Y1131449D01*
X653732Y1131606D01*
X653143Y1131776D01*
X652558Y1131962D01*
X651978Y1132161D01*
X651403Y1132375D01*
X650833Y1132603D01*
X650269Y1132845D01*
X649711Y1133100D01*
X649160Y1133369D01*
X648615Y1133652D01*
X648078Y1133948D01*
X647547Y1134257D01*
X647025Y1134579D01*
X646511Y1134913D01*
X646005Y1135260D01*
X645508Y1135620D01*
X645019Y1135991D01*
X644540Y1136375D01*
X644071Y1136770D01*
X643611Y1137176D01*
X643161Y1137594D01*
X642722Y1138022D01*
X642294Y1138461D01*
X641876Y1138911D01*
X641470Y1139371D01*
X641075Y1139840D01*
X640691Y1140319D01*
X640320Y1140808D01*
X639960Y1141305D01*
X639613Y1141811D01*
X639279Y1142325D01*
X638957Y1142847D01*
X638648Y1143378D01*
X638352Y1143915D01*
X638069Y1144460D01*
X637800Y1145011D01*
X637545Y1145569D01*
X637303Y1146133D01*
X637075Y1146703D01*
X636861Y1147278D01*
X636662Y1147858D01*
X636476Y1148443D01*
X636306Y1149032D01*
X636149Y1149625D01*
X636007Y1150222D01*
X635880Y1150823D01*
X635768Y1151426D01*
X635671Y1152032D01*
X635588Y1152640D01*
X635520Y1153250D01*
X635468Y1153861D01*
X635430Y1154473D01*
X635408Y1155086D01*
X635400Y1155700D01*
X51200Y1028700D02*
X51208Y1029314D01*
X51230Y1029927D01*
X51268Y1030539D01*
X51320Y1031150D01*
X51388Y1031760D01*
X51471Y1032368D01*
X51568Y1032974D01*
X51680Y1033577D01*
X51807Y1034178D01*
X51949Y1034775D01*
X52106Y1035368D01*
X52276Y1035957D01*
X52462Y1036542D01*
X52661Y1037122D01*
X52875Y1037697D01*
X53103Y1038267D01*
X53345Y1038831D01*
X53600Y1039389D01*
X53869Y1039940D01*
X54152Y1040485D01*
X54448Y1041022D01*
X54757Y1041553D01*
X55079Y1042075D01*
X55413Y1042589D01*
X55760Y1043095D01*
X56120Y1043592D01*
X56491Y1044081D01*
X56875Y1044560D01*
X57270Y1045029D01*
X57676Y1045489D01*
X58094Y1045939D01*
X58522Y1046378D01*
X58961Y1046806D01*
X59411Y1047224D01*
X59871Y1047630D01*
X60340Y1048025D01*
X60819Y1048409D01*
X61308Y1048780D01*
X61805Y1049140D01*
X62311Y1049487D01*
X62825Y1049821D01*
X63347Y1050143D01*
X63878Y1050452D01*
X64415Y1050748D01*
X64960Y1051031D01*
X65511Y1051300D01*
X66069Y1051555D01*
X66633Y1051797D01*
X67203Y1052025D01*
X67778Y1052239D01*
X68358Y1052438D01*
X68943Y1052624D01*
X69532Y1052794D01*
X70125Y1052951D01*
X70722Y1053093D01*
X71323Y1053220D01*
X71926Y1053332D01*
X72532Y1053429D01*
X73140Y1053512D01*
X73750Y1053580D01*
X74361Y1053632D01*
X74973Y1053670D01*
X75586Y1053692D01*
X76200Y1053700D01*
X76814Y1053692D01*
X77427Y1053670D01*
X78039Y1053632D01*
X78650Y1053580D01*
X79260Y1053512D01*
X79868Y1053429D01*
X80474Y1053332D01*
X81077Y1053220D01*
X81678Y1053093D01*
X82275Y1052951D01*
X82868Y1052794D01*
X83457Y1052624D01*
X84042Y1052438D01*
X84622Y1052239D01*
X85197Y1052025D01*
X85767Y1051797D01*
X86331Y1051555D01*
X86889Y1051300D01*
X87440Y1051031D01*
X87985Y1050748D01*
X88522Y1050452D01*
X89053Y1050143D01*
X89575Y1049821D01*
X90089Y1049487D01*
X90595Y1049140D01*
X91092Y1048780D01*
X91581Y1048409D01*
X92060Y1048025D01*
X92529Y1047630D01*
X92989Y1047224D01*
X93439Y1046806D01*
X93878Y1046378D01*
X94306Y1045939D01*
X94724Y1045489D01*
X95130Y1045029D01*
X95525Y1044560D01*
X95909Y1044081D01*
X96280Y1043592D01*
X96640Y1043095D01*
X96987Y1042589D01*
X97321Y1042075D01*
X97643Y1041553D01*
X97952Y1041022D01*
X98248Y1040485D01*
X98531Y1039940D01*
X98800Y1039389D01*
X99055Y1038831D01*
X99297Y1038267D01*
X99525Y1037697D01*
X99739Y1037122D01*
X99938Y1036542D01*
X100124Y1035957D01*
X100294Y1035368D01*
X100451Y1034775D01*
X100593Y1034178D01*
X100720Y1033577D01*
X100832Y1032974D01*
X100929Y1032368D01*
X101012Y1031760D01*
X101080Y1031150D01*
X101132Y1030539D01*
X101170Y1029927D01*
X101192Y1029314D01*
X101200Y1028700D01*
X101192Y1028086D01*
X101170Y1027473D01*
X101132Y1026861D01*
X101080Y1026250D01*
X101012Y1025640D01*
X100929Y1025032D01*
X100832Y1024426D01*
X100720Y1023823D01*
X100593Y1023222D01*
X100451Y1022625D01*
X100294Y1022032D01*
X100124Y1021443D01*
X99938Y1020858D01*
X99739Y1020278D01*
X99525Y1019703D01*
X99297Y1019133D01*
X99055Y1018569D01*
X98800Y1018011D01*
X98531Y1017460D01*
X98248Y1016915D01*
X97952Y1016378D01*
X97643Y1015847D01*
X97321Y1015325D01*
X96987Y1014811D01*
X96640Y1014305D01*
X96280Y1013808D01*
X95909Y1013319D01*
X95525Y1012840D01*
X95130Y1012371D01*
X94724Y1011911D01*
X94306Y1011461D01*
X93878Y1011022D01*
X93439Y1010594D01*
X92989Y1010176D01*
X92529Y1009770D01*
X92060Y1009375D01*
X91581Y1008991D01*
X91092Y1008620D01*
X90595Y1008260D01*
X90089Y1007913D01*
X89575Y1007579D01*
X89053Y1007257D01*
X88522Y1006948D01*
X87985Y1006652D01*
X87440Y1006369D01*
X86889Y1006100D01*
X86331Y1005845D01*
X85767Y1005603D01*
X85197Y1005375D01*
X84622Y1005161D01*
X84042Y1004962D01*
X83457Y1004776D01*
X82868Y1004606D01*
X82275Y1004449D01*
X81678Y1004307D01*
X81077Y1004180D01*
X80474Y1004068D01*
X79868Y1003971D01*
X79260Y1003888D01*
X78650Y1003820D01*
X78039Y1003768D01*
X77427Y1003730D01*
X76814Y1003708D01*
X76200Y1003700D01*
X75586Y1003708D01*
X74973Y1003730D01*
X74361Y1003768D01*
X73750Y1003820D01*
X73140Y1003888D01*
X72532Y1003971D01*
X71926Y1004068D01*
X71323Y1004180D01*
X70722Y1004307D01*
X70125Y1004449D01*
X69532Y1004606D01*
X68943Y1004776D01*
X68358Y1004962D01*
X67778Y1005161D01*
X67203Y1005375D01*
X66633Y1005603D01*
X66069Y1005845D01*
X65511Y1006100D01*
X64960Y1006369D01*
X64415Y1006652D01*
X63878Y1006948D01*
X63347Y1007257D01*
X62825Y1007579D01*
X62311Y1007913D01*
X61805Y1008260D01*
X61308Y1008620D01*
X60819Y1008991D01*
X60340Y1009375D01*
X59871Y1009770D01*
X59411Y1010176D01*
X58961Y1010594D01*
X58522Y1011022D01*
X58094Y1011461D01*
X57676Y1011911D01*
X57270Y1012371D01*
X56875Y1012840D01*
X56491Y1013319D01*
X56120Y1013808D01*
X55760Y1014305D01*
X55413Y1014811D01*
X55079Y1015325D01*
X54757Y1015847D01*
X54448Y1016378D01*
X54152Y1016915D01*
X53869Y1017460D01*
X53600Y1018011D01*
X53345Y1018569D01*
X53103Y1019133D01*
X52875Y1019703D01*
X52661Y1020278D01*
X52462Y1020858D01*
X52276Y1021443D01*
X52106Y1022032D01*
X51949Y1022625D01*
X51807Y1023222D01*
X51680Y1023823D01*
X51568Y1024426D01*
X51471Y1025032D01*
X51388Y1025640D01*
X51320Y1026250D01*
X51268Y1026861D01*
X51230Y1027473D01*
X51208Y1028086D01*
X51200Y1028700D01*
X51200Y1092200D02*
X51208Y1092814D01*
X51230Y1093427D01*
X51268Y1094039D01*
X51320Y1094650D01*
X51388Y1095260D01*
X51471Y1095868D01*
X51568Y1096474D01*
X51680Y1097077D01*
X51807Y1097678D01*
X51949Y1098275D01*
X52106Y1098868D01*
X52276Y1099457D01*
X52462Y1100042D01*
X52661Y1100622D01*
X52875Y1101197D01*
X53103Y1101767D01*
X53345Y1102331D01*
X53600Y1102889D01*
X53869Y1103440D01*
X54152Y1103985D01*
X54448Y1104522D01*
X54757Y1105053D01*
X55079Y1105575D01*
X55413Y1106089D01*
X55760Y1106595D01*
X56120Y1107092D01*
X56491Y1107581D01*
X56875Y1108060D01*
X57270Y1108529D01*
X57676Y1108989D01*
X58094Y1109439D01*
X58522Y1109878D01*
X58961Y1110306D01*
X59411Y1110724D01*
X59871Y1111130D01*
X60340Y1111525D01*
X60819Y1111909D01*
X61308Y1112280D01*
X61805Y1112640D01*
X62311Y1112987D01*
X62825Y1113321D01*
X63347Y1113643D01*
X63878Y1113952D01*
X64415Y1114248D01*
X64960Y1114531D01*
X65511Y1114800D01*
X66069Y1115055D01*
X66633Y1115297D01*
X67203Y1115525D01*
X67778Y1115739D01*
X68358Y1115938D01*
X68943Y1116124D01*
X69532Y1116294D01*
X70125Y1116451D01*
X70722Y1116593D01*
X71323Y1116720D01*
X71926Y1116832D01*
X72532Y1116929D01*
X73140Y1117012D01*
X73750Y1117080D01*
X74361Y1117132D01*
X74973Y1117170D01*
X75586Y1117192D01*
X76200Y1117200D01*
X76814Y1117192D01*
X77427Y1117170D01*
X78039Y1117132D01*
X78650Y1117080D01*
X79260Y1117012D01*
X79868Y1116929D01*
X80474Y1116832D01*
X81077Y1116720D01*
X81678Y1116593D01*
X82275Y1116451D01*
X82868Y1116294D01*
X83457Y1116124D01*
X84042Y1115938D01*
X84622Y1115739D01*
X85197Y1115525D01*
X85767Y1115297D01*
X86331Y1115055D01*
X86889Y1114800D01*
X87440Y1114531D01*
X87985Y1114248D01*
X88522Y1113952D01*
X89053Y1113643D01*
X89575Y1113321D01*
X90089Y1112987D01*
X90595Y1112640D01*
X91092Y1112280D01*
X91581Y1111909D01*
X92060Y1111525D01*
X92529Y1111130D01*
X92989Y1110724D01*
X93439Y1110306D01*
X93878Y1109878D01*
X94306Y1109439D01*
X94724Y1108989D01*
X95130Y1108529D01*
X95525Y1108060D01*
X95909Y1107581D01*
X96280Y1107092D01*
X96640Y1106595D01*
X96987Y1106089D01*
X97321Y1105575D01*
X97643Y1105053D01*
X97952Y1104522D01*
X98248Y1103985D01*
X98531Y1103440D01*
X98800Y1102889D01*
X99055Y1102331D01*
X99297Y1101767D01*
X99525Y1101197D01*
X99739Y1100622D01*
X99938Y1100042D01*
X100124Y1099457D01*
X100294Y1098868D01*
X100451Y1098275D01*
X100593Y1097678D01*
X100720Y1097077D01*
X100832Y1096474D01*
X100929Y1095868D01*
X101012Y1095260D01*
X101080Y1094650D01*
X101132Y1094039D01*
X101170Y1093427D01*
X101192Y1092814D01*
X101200Y1092200D01*
X101192Y1091586D01*
X101170Y1090973D01*
X101132Y1090361D01*
X101080Y1089750D01*
X101012Y1089140D01*
X100929Y1088532D01*
X100832Y1087926D01*
X100720Y1087323D01*
X100593Y1086722D01*
X100451Y1086125D01*
X100294Y1085532D01*
X100124Y1084943D01*
X99938Y1084358D01*
X99739Y1083778D01*
X99525Y1083203D01*
X99297Y1082633D01*
X99055Y1082069D01*
X98800Y1081511D01*
X98531Y1080960D01*
X98248Y1080415D01*
X97952Y1079878D01*
X97643Y1079347D01*
X97321Y1078825D01*
X96987Y1078311D01*
X96640Y1077805D01*
X96280Y1077308D01*
X95909Y1076819D01*
X95525Y1076340D01*
X95130Y1075871D01*
X94724Y1075411D01*
X94306Y1074961D01*
X93878Y1074522D01*
X93439Y1074094D01*
X92989Y1073676D01*
X92529Y1073270D01*
X92060Y1072875D01*
X91581Y1072491D01*
X91092Y1072120D01*
X90595Y1071760D01*
X90089Y1071413D01*
X89575Y1071079D01*
X89053Y1070757D01*
X88522Y1070448D01*
X87985Y1070152D01*
X87440Y1069869D01*
X86889Y1069600D01*
X86331Y1069345D01*
X85767Y1069103D01*
X85197Y1068875D01*
X84622Y1068661D01*
X84042Y1068462D01*
X83457Y1068276D01*
X82868Y1068106D01*
X82275Y1067949D01*
X81678Y1067807D01*
X81077Y1067680D01*
X80474Y1067568D01*
X79868Y1067471D01*
X79260Y1067388D01*
X78650Y1067320D01*
X78039Y1067268D01*
X77427Y1067230D01*
X76814Y1067208D01*
X76200Y1067200D01*
X75586Y1067208D01*
X74973Y1067230D01*
X74361Y1067268D01*
X73750Y1067320D01*
X73140Y1067388D01*
X72532Y1067471D01*
X71926Y1067568D01*
X71323Y1067680D01*
X70722Y1067807D01*
X70125Y1067949D01*
X69532Y1068106D01*
X68943Y1068276D01*
X68358Y1068462D01*
X67778Y1068661D01*
X67203Y1068875D01*
X66633Y1069103D01*
X66069Y1069345D01*
X65511Y1069600D01*
X64960Y1069869D01*
X64415Y1070152D01*
X63878Y1070448D01*
X63347Y1070757D01*
X62825Y1071079D01*
X62311Y1071413D01*
X61805Y1071760D01*
X61308Y1072120D01*
X60819Y1072491D01*
X60340Y1072875D01*
X59871Y1073270D01*
X59411Y1073676D01*
X58961Y1074094D01*
X58522Y1074522D01*
X58094Y1074961D01*
X57676Y1075411D01*
X57270Y1075871D01*
X56875Y1076340D01*
X56491Y1076819D01*
X56120Y1077308D01*
X55760Y1077805D01*
X55413Y1078311D01*
X55079Y1078825D01*
X54757Y1079347D01*
X54448Y1079878D01*
X54152Y1080415D01*
X53869Y1080960D01*
X53600Y1081511D01*
X53345Y1082069D01*
X53103Y1082633D01*
X52875Y1083203D01*
X52661Y1083778D01*
X52462Y1084358D01*
X52276Y1084943D01*
X52106Y1085532D01*
X51949Y1086125D01*
X51807Y1086722D01*
X51680Y1087323D01*
X51568Y1087926D01*
X51471Y1088532D01*
X51388Y1089140D01*
X51320Y1089750D01*
X51268Y1090361D01*
X51230Y1090973D01*
X51208Y1091586D01*
X51200Y1092200D01*
X51200Y1155700D02*
X51208Y1156314D01*
X51230Y1156927D01*
X51268Y1157539D01*
X51320Y1158150D01*
X51388Y1158760D01*
X51471Y1159368D01*
X51568Y1159974D01*
X51680Y1160577D01*
X51807Y1161178D01*
X51949Y1161775D01*
X52106Y1162368D01*
X52276Y1162957D01*
X52462Y1163542D01*
X52661Y1164122D01*
X52875Y1164697D01*
X53103Y1165267D01*
X53345Y1165831D01*
X53600Y1166389D01*
X53869Y1166940D01*
X54152Y1167485D01*
X54448Y1168022D01*
X54757Y1168553D01*
X55079Y1169075D01*
X55413Y1169589D01*
X55760Y1170095D01*
X56120Y1170592D01*
X56491Y1171081D01*
X56875Y1171560D01*
X57270Y1172029D01*
X57676Y1172489D01*
X58094Y1172939D01*
X58522Y1173378D01*
X58961Y1173806D01*
X59411Y1174224D01*
X59871Y1174630D01*
X60340Y1175025D01*
X60819Y1175409D01*
X61308Y1175780D01*
X61805Y1176140D01*
X62311Y1176487D01*
X62825Y1176821D01*
X63347Y1177143D01*
X63878Y1177452D01*
X64415Y1177748D01*
X64960Y1178031D01*
X65511Y1178300D01*
X66069Y1178555D01*
X66633Y1178797D01*
X67203Y1179025D01*
X67778Y1179239D01*
X68358Y1179438D01*
X68943Y1179624D01*
X69532Y1179794D01*
X70125Y1179951D01*
X70722Y1180093D01*
X71323Y1180220D01*
X71926Y1180332D01*
X72532Y1180429D01*
X73140Y1180512D01*
X73750Y1180580D01*
X74361Y1180632D01*
X74973Y1180670D01*
X75586Y1180692D01*
X76200Y1180700D01*
X76814Y1180692D01*
X77427Y1180670D01*
X78039Y1180632D01*
X78650Y1180580D01*
X79260Y1180512D01*
X79868Y1180429D01*
X80474Y1180332D01*
X81077Y1180220D01*
X81678Y1180093D01*
X82275Y1179951D01*
X82868Y1179794D01*
X83457Y1179624D01*
X84042Y1179438D01*
X84622Y1179239D01*
X85197Y1179025D01*
X85767Y1178797D01*
X86331Y1178555D01*
X86889Y1178300D01*
X87440Y1178031D01*
X87985Y1177748D01*
X88522Y1177452D01*
X89053Y1177143D01*
X89575Y1176821D01*
X90089Y1176487D01*
X90595Y1176140D01*
X91092Y1175780D01*
X91581Y1175409D01*
X92060Y1175025D01*
X92529Y1174630D01*
X92989Y1174224D01*
X93439Y1173806D01*
X93878Y1173378D01*
X94306Y1172939D01*
X94724Y1172489D01*
X95130Y1172029D01*
X95525Y1171560D01*
X95909Y1171081D01*
X96280Y1170592D01*
X96640Y1170095D01*
X96987Y1169589D01*
X97321Y1169075D01*
X97643Y1168553D01*
X97952Y1168022D01*
X98248Y1167485D01*
X98531Y1166940D01*
X98800Y1166389D01*
X99055Y1165831D01*
X99297Y1165267D01*
X99525Y1164697D01*
X99739Y1164122D01*
X99938Y1163542D01*
X100124Y1162957D01*
X100294Y1162368D01*
X100451Y1161775D01*
X100593Y1161178D01*
X100720Y1160577D01*
X100832Y1159974D01*
X100929Y1159368D01*
X101012Y1158760D01*
X101080Y1158150D01*
X101132Y1157539D01*
X101170Y1156927D01*
X101192Y1156314D01*
X101200Y1155700D01*
X101192Y1155086D01*
X101170Y1154473D01*
X101132Y1153861D01*
X101080Y1153250D01*
X101012Y1152640D01*
X100929Y1152032D01*
X100832Y1151426D01*
X100720Y1150823D01*
X100593Y1150222D01*
X100451Y1149625D01*
X100294Y1149032D01*
X100124Y1148443D01*
X99938Y1147858D01*
X99739Y1147278D01*
X99525Y1146703D01*
X99297Y1146133D01*
X99055Y1145569D01*
X98800Y1145011D01*
X98531Y1144460D01*
X98248Y1143915D01*
X97952Y1143378D01*
X97643Y1142847D01*
X97321Y1142325D01*
X96987Y1141811D01*
X96640Y1141305D01*
X96280Y1140808D01*
X95909Y1140319D01*
X95525Y1139840D01*
X95130Y1139371D01*
X94724Y1138911D01*
X94306Y1138461D01*
X93878Y1138022D01*
X93439Y1137594D01*
X92989Y1137176D01*
X92529Y1136770D01*
X92060Y1136375D01*
X91581Y1135991D01*
X91092Y1135620D01*
X90595Y1135260D01*
X90089Y1134913D01*
X89575Y1134579D01*
X89053Y1134257D01*
X88522Y1133948D01*
X87985Y1133652D01*
X87440Y1133369D01*
X86889Y1133100D01*
X86331Y1132845D01*
X85767Y1132603D01*
X85197Y1132375D01*
X84622Y1132161D01*
X84042Y1131962D01*
X83457Y1131776D01*
X82868Y1131606D01*
X82275Y1131449D01*
X81678Y1131307D01*
X81077Y1131180D01*
X80474Y1131068D01*
X79868Y1130971D01*
X79260Y1130888D01*
X78650Y1130820D01*
X78039Y1130768D01*
X77427Y1130730D01*
X76814Y1130708D01*
X76200Y1130700D01*
X75586Y1130708D01*
X74973Y1130730D01*
X74361Y1130768D01*
X73750Y1130820D01*
X73140Y1130888D01*
X72532Y1130971D01*
X71926Y1131068D01*
X71323Y1131180D01*
X70722Y1131307D01*
X70125Y1131449D01*
X69532Y1131606D01*
X68943Y1131776D01*
X68358Y1131962D01*
X67778Y1132161D01*
X67203Y1132375D01*
X66633Y1132603D01*
X66069Y1132845D01*
X65511Y1133100D01*
X64960Y1133369D01*
X64415Y1133652D01*
X63878Y1133948D01*
X63347Y1134257D01*
X62825Y1134579D01*
X62311Y1134913D01*
X61805Y1135260D01*
X61308Y1135620D01*
X60819Y1135991D01*
X60340Y1136375D01*
X59871Y1136770D01*
X59411Y1137176D01*
X58961Y1137594D01*
X58522Y1138022D01*
X58094Y1138461D01*
X57676Y1138911D01*
X57270Y1139371D01*
X56875Y1139840D01*
X56491Y1140319D01*
X56120Y1140808D01*
X55760Y1141305D01*
X55413Y1141811D01*
X55079Y1142325D01*
X54757Y1142847D01*
X54448Y1143378D01*
X54152Y1143915D01*
X53869Y1144460D01*
X53600Y1145011D01*
X53345Y1145569D01*
X53103Y1146133D01*
X52875Y1146703D01*
X52661Y1147278D01*
X52462Y1147858D01*
X52276Y1148443D01*
X52106Y1149032D01*
X51949Y1149625D01*
X51807Y1150222D01*
X51680Y1150823D01*
X51568Y1151426D01*
X51471Y1152032D01*
X51388Y1152640D01*
X51320Y1153250D01*
X51268Y1153861D01*
X51230Y1154473D01*
X51208Y1155086D01*
X51200Y1155700D01*
X33300Y914400D02*
X33305Y914829D01*
X33321Y915259D01*
X33347Y915687D01*
X33384Y916115D01*
X33432Y916542D01*
X33489Y916968D01*
X33558Y917392D01*
X33636Y917814D01*
X33725Y918234D01*
X33824Y918652D01*
X33934Y919067D01*
X34054Y919480D01*
X34183Y919889D01*
X34323Y920296D01*
X34473Y920698D01*
X34632Y921097D01*
X34801Y921492D01*
X34980Y921882D01*
X35169Y922268D01*
X35366Y922649D01*
X35573Y923026D01*
X35790Y923397D01*
X36015Y923762D01*
X36249Y924122D01*
X36492Y924477D01*
X36744Y924825D01*
X37004Y925167D01*
X37272Y925502D01*
X37549Y925831D01*
X37833Y926152D01*
X38126Y926467D01*
X38426Y926774D01*
X38733Y927074D01*
X39048Y927367D01*
X39369Y927651D01*
X39698Y927928D01*
X40033Y928196D01*
X40375Y928456D01*
X40723Y928708D01*
X41078Y928951D01*
X41438Y929185D01*
X41803Y929410D01*
X42174Y929627D01*
X42551Y929834D01*
X42932Y930031D01*
X43318Y930220D01*
X43708Y930399D01*
X44103Y930568D01*
X44502Y930727D01*
X44904Y930877D01*
X45311Y931017D01*
X45720Y931146D01*
X46133Y931266D01*
X46548Y931376D01*
X46966Y931475D01*
X47386Y931564D01*
X47808Y931642D01*
X48232Y931711D01*
X48658Y931768D01*
X49085Y931816D01*
X49513Y931853D01*
X49941Y931879D01*
X50371Y931895D01*
X50800Y931900D01*
X51229Y931895D01*
X51659Y931879D01*
X52087Y931853D01*
X52515Y931816D01*
X52942Y931768D01*
X53368Y931711D01*
X53792Y931642D01*
X54214Y931564D01*
X54634Y931475D01*
X55052Y931376D01*
X55467Y931266D01*
X55880Y931146D01*
X56289Y931017D01*
X56696Y930877D01*
X57098Y930727D01*
X57497Y930568D01*
X57892Y930399D01*
X58282Y930220D01*
X58668Y930031D01*
X59049Y929834D01*
X59426Y929627D01*
X59797Y929410D01*
X60162Y929185D01*
X60522Y928951D01*
X60877Y928708D01*
X61225Y928456D01*
X61567Y928196D01*
X61902Y927928D01*
X62231Y927651D01*
X62552Y927367D01*
X62867Y927074D01*
X63174Y926774D01*
X63474Y926467D01*
X63767Y926152D01*
X64051Y925831D01*
X64328Y925502D01*
X64596Y925167D01*
X64856Y924825D01*
X65108Y924477D01*
X65351Y924122D01*
X65585Y923762D01*
X65810Y923397D01*
X66027Y923026D01*
X66234Y922649D01*
X66431Y922268D01*
X66620Y921882D01*
X66799Y921492D01*
X66968Y921097D01*
X67127Y920698D01*
X67277Y920296D01*
X67417Y919889D01*
X67546Y919480D01*
X67666Y919067D01*
X67776Y918652D01*
X67875Y918234D01*
X67964Y917814D01*
X68042Y917392D01*
X68111Y916968D01*
X68168Y916542D01*
X68216Y916115D01*
X68253Y915687D01*
X68279Y915259D01*
X68295Y914829D01*
X68300Y914400D01*
X68295Y913971D01*
X68279Y913541D01*
X68253Y913113D01*
X68216Y912685D01*
X68168Y912258D01*
X68111Y911832D01*
X68042Y911408D01*
X67964Y910986D01*
X67875Y910566D01*
X67776Y910148D01*
X67666Y909733D01*
X67546Y909320D01*
X67417Y908911D01*
X67277Y908504D01*
X67127Y908102D01*
X66968Y907703D01*
X66799Y907308D01*
X66620Y906918D01*
X66431Y906532D01*
X66234Y906151D01*
X66027Y905774D01*
X65810Y905403D01*
X65585Y905038D01*
X65351Y904678D01*
X65108Y904323D01*
X64856Y903975D01*
X64596Y903633D01*
X64328Y903298D01*
X64051Y902969D01*
X63767Y902648D01*
X63474Y902333D01*
X63174Y902026D01*
X62867Y901726D01*
X62552Y901433D01*
X62231Y901149D01*
X61902Y900872D01*
X61567Y900604D01*
X61225Y900344D01*
X60877Y900092D01*
X60522Y899849D01*
X60162Y899615D01*
X59797Y899390D01*
X59426Y899173D01*
X59049Y898966D01*
X58668Y898769D01*
X58282Y898580D01*
X57892Y898401D01*
X57497Y898232D01*
X57098Y898073D01*
X56696Y897923D01*
X56289Y897783D01*
X55880Y897654D01*
X55467Y897534D01*
X55052Y897424D01*
X54634Y897325D01*
X54214Y897236D01*
X53792Y897158D01*
X53368Y897089D01*
X52942Y897032D01*
X52515Y896984D01*
X52087Y896947D01*
X51659Y896921D01*
X51229Y896905D01*
X50800Y896900D01*
X50371Y896905D01*
X49941Y896921D01*
X49513Y896947D01*
X49085Y896984D01*
X48658Y897032D01*
X48232Y897089D01*
X47808Y897158D01*
X47386Y897236D01*
X46966Y897325D01*
X46548Y897424D01*
X46133Y897534D01*
X45720Y897654D01*
X45311Y897783D01*
X44904Y897923D01*
X44502Y898073D01*
X44103Y898232D01*
X43708Y898401D01*
X43318Y898580D01*
X42932Y898769D01*
X42551Y898966D01*
X42174Y899173D01*
X41803Y899390D01*
X41438Y899615D01*
X41078Y899849D01*
X40723Y900092D01*
X40375Y900344D01*
X40033Y900604D01*
X39698Y900872D01*
X39369Y901149D01*
X39048Y901433D01*
X38733Y901726D01*
X38426Y902026D01*
X38126Y902333D01*
X37833Y902648D01*
X37549Y902969D01*
X37272Y903298D01*
X37004Y903633D01*
X36744Y903975D01*
X36492Y904323D01*
X36249Y904678D01*
X36015Y905038D01*
X35790Y905403D01*
X35573Y905774D01*
X35366Y906151D01*
X35169Y906532D01*
X34980Y906918D01*
X34801Y907308D01*
X34632Y907703D01*
X34473Y908102D01*
X34323Y908504D01*
X34183Y908911D01*
X34054Y909320D01*
X33934Y909733D01*
X33824Y910148D01*
X33725Y910566D01*
X33636Y910986D01*
X33558Y911408D01*
X33489Y911832D01*
X33432Y912258D01*
X33384Y912685D01*
X33347Y913113D01*
X33321Y913541D01*
X33305Y913971D01*
X33300Y914400D01*
X33300Y50800D02*
X33305Y51229D01*
X33321Y51659D01*
X33347Y52087D01*
X33384Y52515D01*
X33432Y52942D01*
X33489Y53368D01*
X33558Y53792D01*
X33636Y54214D01*
X33725Y54634D01*
X33824Y55052D01*
X33934Y55467D01*
X34054Y55880D01*
X34183Y56289D01*
X34323Y56696D01*
X34473Y57098D01*
X34632Y57497D01*
X34801Y57892D01*
X34980Y58282D01*
X35169Y58668D01*
X35366Y59049D01*
X35573Y59426D01*
X35790Y59797D01*
X36015Y60162D01*
X36249Y60522D01*
X36492Y60877D01*
X36744Y61225D01*
X37004Y61567D01*
X37272Y61902D01*
X37549Y62231D01*
X37833Y62552D01*
X38126Y62867D01*
X38426Y63174D01*
X38733Y63474D01*
X39048Y63767D01*
X39369Y64051D01*
X39698Y64328D01*
X40033Y64596D01*
X40375Y64856D01*
X40723Y65108D01*
X41078Y65351D01*
X41438Y65585D01*
X41803Y65810D01*
X42174Y66027D01*
X42551Y66234D01*
X42932Y66431D01*
X43318Y66620D01*
X43708Y66799D01*
X44103Y66968D01*
X44502Y67127D01*
X44904Y67277D01*
X45311Y67417D01*
X45720Y67546D01*
X46133Y67666D01*
X46548Y67776D01*
X46966Y67875D01*
X47386Y67964D01*
X47808Y68042D01*
X48232Y68111D01*
X48658Y68168D01*
X49085Y68216D01*
X49513Y68253D01*
X49941Y68279D01*
X50371Y68295D01*
X50800Y68300D01*
X51229Y68295D01*
X51659Y68279D01*
X52087Y68253D01*
X52515Y68216D01*
X52942Y68168D01*
X53368Y68111D01*
X53792Y68042D01*
X54214Y67964D01*
X54634Y67875D01*
X55052Y67776D01*
X55467Y67666D01*
X55880Y67546D01*
X56289Y67417D01*
X56696Y67277D01*
X57098Y67127D01*
X57497Y66968D01*
X57892Y66799D01*
X58282Y66620D01*
X58668Y66431D01*
X59049Y66234D01*
X59426Y66027D01*
X59797Y65810D01*
X60162Y65585D01*
X60522Y65351D01*
X60877Y65108D01*
X61225Y64856D01*
X61567Y64596D01*
X61902Y64328D01*
X62231Y64051D01*
X62552Y63767D01*
X62867Y63474D01*
X63174Y63174D01*
X63474Y62867D01*
X63767Y62552D01*
X64051Y62231D01*
X64328Y61902D01*
X64596Y61567D01*
X64856Y61225D01*
X65108Y60877D01*
X65351Y60522D01*
X65585Y60162D01*
X65810Y59797D01*
X66027Y59426D01*
X66234Y59049D01*
X66431Y58668D01*
X66620Y58282D01*
X66799Y57892D01*
X66968Y57497D01*
X67127Y57098D01*
X67277Y56696D01*
X67417Y56289D01*
X67546Y55880D01*
X67666Y55467D01*
X67776Y55052D01*
X67875Y54634D01*
X67964Y54214D01*
X68042Y53792D01*
X68111Y53368D01*
X68168Y52942D01*
X68216Y52515D01*
X68253Y52087D01*
X68279Y51659D01*
X68295Y51229D01*
X68300Y50800D01*
X68295Y50371D01*
X68279Y49941D01*
X68253Y49513D01*
X68216Y49085D01*
X68168Y48658D01*
X68111Y48232D01*
X68042Y47808D01*
X67964Y47386D01*
X67875Y46966D01*
X67776Y46548D01*
X67666Y46133D01*
X67546Y45720D01*
X67417Y45311D01*
X67277Y44904D01*
X67127Y44502D01*
X66968Y44103D01*
X66799Y43708D01*
X66620Y43318D01*
X66431Y42932D01*
X66234Y42551D01*
X66027Y42174D01*
X65810Y41803D01*
X65585Y41438D01*
X65351Y41078D01*
X65108Y40723D01*
X64856Y40375D01*
X64596Y40033D01*
X64328Y39698D01*
X64051Y39369D01*
X63767Y39048D01*
X63474Y38733D01*
X63174Y38426D01*
X62867Y38126D01*
X62552Y37833D01*
X62231Y37549D01*
X61902Y37272D01*
X61567Y37004D01*
X61225Y36744D01*
X60877Y36492D01*
X60522Y36249D01*
X60162Y36015D01*
X59797Y35790D01*
X59426Y35573D01*
X59049Y35366D01*
X58668Y35169D01*
X58282Y34980D01*
X57892Y34801D01*
X57497Y34632D01*
X57098Y34473D01*
X56696Y34323D01*
X56289Y34183D01*
X55880Y34054D01*
X55467Y33934D01*
X55052Y33824D01*
X54634Y33725D01*
X54214Y33636D01*
X53792Y33558D01*
X53368Y33489D01*
X52942Y33432D01*
X52515Y33384D01*
X52087Y33347D01*
X51659Y33321D01*
X51229Y33305D01*
X50800Y33300D01*
X50371Y33305D01*
X49941Y33321D01*
X49513Y33347D01*
X49085Y33384D01*
X48658Y33432D01*
X48232Y33489D01*
X47808Y33558D01*
X47386Y33636D01*
X46966Y33725D01*
X46548Y33824D01*
X46133Y33934D01*
X45720Y34054D01*
X45311Y34183D01*
X44904Y34323D01*
X44502Y34473D01*
X44103Y34632D01*
X43708Y34801D01*
X43318Y34980D01*
X42932Y35169D01*
X42551Y35366D01*
X42174Y35573D01*
X41803Y35790D01*
X41438Y36015D01*
X41078Y36249D01*
X40723Y36492D01*
X40375Y36744D01*
X40033Y37004D01*
X39698Y37272D01*
X39369Y37549D01*
X39048Y37833D01*
X38733Y38126D01*
X38426Y38426D01*
X38126Y38733D01*
X37833Y39048D01*
X37549Y39369D01*
X37272Y39698D01*
X37004Y40033D01*
X36744Y40375D01*
X36492Y40723D01*
X36249Y41078D01*
X36015Y41438D01*
X35790Y41803D01*
X35573Y42174D01*
X35366Y42551D01*
X35169Y42932D01*
X34980Y43318D01*
X34801Y43708D01*
X34632Y44103D01*
X34473Y44502D01*
X34323Y44904D01*
X34183Y45311D01*
X34054Y45720D01*
X33934Y46133D01*
X33824Y46548D01*
X33725Y46966D01*
X33636Y47386D01*
X33558Y47808D01*
X33489Y48232D01*
X33432Y48658D01*
X33384Y49085D01*
X33347Y49513D01*
X33321Y49941D01*
X33305Y50371D01*
X33300Y50800D01*
X808000Y50800D02*
X808005Y51229D01*
X808021Y51659D01*
X808047Y52087D01*
X808084Y52515D01*
X808132Y52942D01*
X808189Y53368D01*
X808258Y53792D01*
X808336Y54214D01*
X808425Y54634D01*
X808524Y55052D01*
X808634Y55467D01*
X808754Y55880D01*
X808883Y56289D01*
X809023Y56696D01*
X809173Y57098D01*
X809332Y57497D01*
X809501Y57892D01*
X809680Y58282D01*
X809869Y58668D01*
X810066Y59049D01*
X810273Y59426D01*
X810490Y59797D01*
X810715Y60162D01*
X810949Y60522D01*
X811192Y60877D01*
X811444Y61225D01*
X811704Y61567D01*
X811972Y61902D01*
X812249Y62231D01*
X812533Y62552D01*
X812826Y62867D01*
X813126Y63174D01*
X813433Y63474D01*
X813748Y63767D01*
X814069Y64051D01*
X814398Y64328D01*
X814733Y64596D01*
X815075Y64856D01*
X815423Y65108D01*
X815778Y65351D01*
X816138Y65585D01*
X816503Y65810D01*
X816874Y66027D01*
X817251Y66234D01*
X817632Y66431D01*
X818018Y66620D01*
X818408Y66799D01*
X818803Y66968D01*
X819202Y67127D01*
X819604Y67277D01*
X820011Y67417D01*
X820420Y67546D01*
X820833Y67666D01*
X821248Y67776D01*
X821666Y67875D01*
X822086Y67964D01*
X822508Y68042D01*
X822932Y68111D01*
X823358Y68168D01*
X823785Y68216D01*
X824213Y68253D01*
X824641Y68279D01*
X825071Y68295D01*
X825500Y68300D01*
X825929Y68295D01*
X826359Y68279D01*
X826787Y68253D01*
X827215Y68216D01*
X827642Y68168D01*
X828068Y68111D01*
X828492Y68042D01*
X828914Y67964D01*
X829334Y67875D01*
X829752Y67776D01*
X830167Y67666D01*
X830580Y67546D01*
X830989Y67417D01*
X831396Y67277D01*
X831798Y67127D01*
X832197Y66968D01*
X832592Y66799D01*
X832982Y66620D01*
X833368Y66431D01*
X833749Y66234D01*
X834126Y66027D01*
X834497Y65810D01*
X834862Y65585D01*
X835222Y65351D01*
X835577Y65108D01*
X835925Y64856D01*
X836267Y64596D01*
X836602Y64328D01*
X836931Y64051D01*
X837252Y63767D01*
X837567Y63474D01*
X837874Y63174D01*
X838174Y62867D01*
X838467Y62552D01*
X838751Y62231D01*
X839028Y61902D01*
X839296Y61567D01*
X839556Y61225D01*
X839808Y60877D01*
X840051Y60522D01*
X840285Y60162D01*
X840510Y59797D01*
X840727Y59426D01*
X840934Y59049D01*
X841131Y58668D01*
X841320Y58282D01*
X841499Y57892D01*
X841668Y57497D01*
X841827Y57098D01*
X841977Y56696D01*
X842117Y56289D01*
X842246Y55880D01*
X842366Y55467D01*
X842476Y55052D01*
X842575Y54634D01*
X842664Y54214D01*
X842742Y53792D01*
X842811Y53368D01*
X842868Y52942D01*
X842916Y52515D01*
X842953Y52087D01*
X842979Y51659D01*
X842995Y51229D01*
X843000Y50800D01*
X842995Y50371D01*
X842979Y49941D01*
X842953Y49513D01*
X842916Y49085D01*
X842868Y48658D01*
X842811Y48232D01*
X842742Y47808D01*
X842664Y47386D01*
X842575Y46966D01*
X842476Y46548D01*
X842366Y46133D01*
X842246Y45720D01*
X842117Y45311D01*
X841977Y44904D01*
X841827Y44502D01*
X841668Y44103D01*
X841499Y43708D01*
X841320Y43318D01*
X841131Y42932D01*
X840934Y42551D01*
X840727Y42174D01*
X840510Y41803D01*
X840285Y41438D01*
X840051Y41078D01*
X839808Y40723D01*
X839556Y40375D01*
X839296Y40033D01*
X839028Y39698D01*
X838751Y39369D01*
X838467Y39048D01*
X838174Y38733D01*
X837874Y38426D01*
X837567Y38126D01*
X837252Y37833D01*
X836931Y37549D01*
X836602Y37272D01*
X836267Y37004D01*
X835925Y36744D01*
X835577Y36492D01*
X835222Y36249D01*
X834862Y36015D01*
X834497Y35790D01*
X834126Y35573D01*
X833749Y35366D01*
X833368Y35169D01*
X832982Y34980D01*
X832592Y34801D01*
X832197Y34632D01*
X831798Y34473D01*
X831396Y34323D01*
X830989Y34183D01*
X830580Y34054D01*
X830167Y33934D01*
X829752Y33824D01*
X829334Y33725D01*
X828914Y33636D01*
X828492Y33558D01*
X828068Y33489D01*
X827642Y33432D01*
X827215Y33384D01*
X826787Y33347D01*
X826359Y33321D01*
X825929Y33305D01*
X825500Y33300D01*
X825071Y33305D01*
X824641Y33321D01*
X824213Y33347D01*
X823785Y33384D01*
X823358Y33432D01*
X822932Y33489D01*
X822508Y33558D01*
X822086Y33636D01*
X821666Y33725D01*
X821248Y33824D01*
X820833Y33934D01*
X820420Y34054D01*
X820011Y34183D01*
X819604Y34323D01*
X819202Y34473D01*
X818803Y34632D01*
X818408Y34801D01*
X818018Y34980D01*
X817632Y35169D01*
X817251Y35366D01*
X816874Y35573D01*
X816503Y35790D01*
X816138Y36015D01*
X815778Y36249D01*
X815423Y36492D01*
X815075Y36744D01*
X814733Y37004D01*
X814398Y37272D01*
X814069Y37549D01*
X813748Y37833D01*
X813433Y38126D01*
X813126Y38426D01*
X812826Y38733D01*
X812533Y39048D01*
X812249Y39369D01*
X811972Y39698D01*
X811704Y40033D01*
X811444Y40375D01*
X811192Y40723D01*
X810949Y41078D01*
X810715Y41438D01*
X810490Y41803D01*
X810273Y42174D01*
X810066Y42551D01*
X809869Y42932D01*
X809680Y43318D01*
X809501Y43708D01*
X809332Y44103D01*
X809173Y44502D01*
X809023Y44904D01*
X808883Y45311D01*
X808754Y45720D01*
X808634Y46133D01*
X808524Y46548D01*
X808425Y46966D01*
X808336Y47386D01*
X808258Y47808D01*
X808189Y48232D01*
X808132Y48658D01*
X808084Y49085D01*
X808047Y49513D01*
X808021Y49941D01*
X808005Y50371D01*
X808000Y50800D01*
X808000Y914400D02*
X808005Y914829D01*
X808021Y915259D01*
X808047Y915687D01*
X808084Y916115D01*
X808132Y916542D01*
X808189Y916968D01*
X808258Y917392D01*
X808336Y917814D01*
X808425Y918234D01*
X808524Y918652D01*
X808634Y919067D01*
X808754Y919480D01*
X808883Y919889D01*
X809023Y920296D01*
X809173Y920698D01*
X809332Y921097D01*
X809501Y921492D01*
X809680Y921882D01*
X809869Y922268D01*
X810066Y922649D01*
X810273Y923026D01*
X810490Y923397D01*
X810715Y923762D01*
X810949Y924122D01*
X811192Y924477D01*
X811444Y924825D01*
X811704Y925167D01*
X811972Y925502D01*
X812249Y925831D01*
X812533Y926152D01*
X812826Y926467D01*
X813126Y926774D01*
X813433Y927074D01*
X813748Y927367D01*
X814069Y927651D01*
X814398Y927928D01*
X814733Y928196D01*
X815075Y928456D01*
X815423Y928708D01*
X815778Y928951D01*
X816138Y929185D01*
X816503Y929410D01*
X816874Y929627D01*
X817251Y929834D01*
X817632Y930031D01*
X818018Y930220D01*
X818408Y930399D01*
X818803Y930568D01*
X819202Y930727D01*
X819604Y930877D01*
X820011Y931017D01*
X820420Y931146D01*
X820833Y931266D01*
X821248Y931376D01*
X821666Y931475D01*
X822086Y931564D01*
X822508Y931642D01*
X822932Y931711D01*
X823358Y931768D01*
X823785Y931816D01*
X824213Y931853D01*
X824641Y931879D01*
X825071Y931895D01*
X825500Y931900D01*
X825929Y931895D01*
X826359Y931879D01*
X826787Y931853D01*
X827215Y931816D01*
X827642Y931768D01*
X828068Y931711D01*
X828492Y931642D01*
X828914Y931564D01*
X829334Y931475D01*
X829752Y931376D01*
X830167Y931266D01*
X830580Y931146D01*
X830989Y931017D01*
X831396Y930877D01*
X831798Y930727D01*
X832197Y930568D01*
X832592Y930399D01*
X832982Y930220D01*
X833368Y930031D01*
X833749Y929834D01*
X834126Y929627D01*
X834497Y929410D01*
X834862Y929185D01*
X835222Y928951D01*
X835577Y928708D01*
X835925Y928456D01*
X836267Y928196D01*
X836602Y927928D01*
X836931Y927651D01*
X837252Y927367D01*
X837567Y927074D01*
X837874Y926774D01*
X838174Y926467D01*
X838467Y926152D01*
X838751Y925831D01*
X839028Y925502D01*
X839296Y925167D01*
X839556Y924825D01*
X839808Y924477D01*
X840051Y924122D01*
X840285Y923762D01*
X840510Y923397D01*
X840727Y923026D01*
X840934Y922649D01*
X841131Y922268D01*
X841320Y921882D01*
X841499Y921492D01*
X841668Y921097D01*
X841827Y920698D01*
X841977Y920296D01*
X842117Y919889D01*
X842246Y919480D01*
X842366Y919067D01*
X842476Y918652D01*
X842575Y918234D01*
X842664Y917814D01*
X842742Y917392D01*
X842811Y916968D01*
X842868Y916542D01*
X842916Y916115D01*
X842953Y915687D01*
X842979Y915259D01*
X842995Y914829D01*
X843000Y914400D01*
X842995Y913971D01*
X842979Y913541D01*
X842953Y913113D01*
X842916Y912685D01*
X842868Y912258D01*
X842811Y911832D01*
X842742Y911408D01*
X842664Y910986D01*
X842575Y910566D01*
X842476Y910148D01*
X842366Y909733D01*
X842246Y909320D01*
X842117Y908911D01*
X841977Y908504D01*
X841827Y908102D01*
X841668Y907703D01*
X841499Y907308D01*
X841320Y906918D01*
X841131Y906532D01*
X840934Y906151D01*
X840727Y905774D01*
X840510Y905403D01*
X840285Y905038D01*
X840051Y904678D01*
X839808Y904323D01*
X839556Y903975D01*
X839296Y903633D01*
X839028Y903298D01*
X838751Y902969D01*
X838467Y902648D01*
X838174Y902333D01*
X837874Y902026D01*
X837567Y901726D01*
X837252Y901433D01*
X836931Y901149D01*
X836602Y900872D01*
X836267Y900604D01*
X835925Y900344D01*
X835577Y900092D01*
X835222Y899849D01*
X834862Y899615D01*
X834497Y899390D01*
X834126Y899173D01*
X833749Y898966D01*
X833368Y898769D01*
X832982Y898580D01*
X832592Y898401D01*
X832197Y898232D01*
X831798Y898073D01*
X831396Y897923D01*
X830989Y897783D01*
X830580Y897654D01*
X830167Y897534D01*
X829752Y897424D01*
X829334Y897325D01*
X828914Y897236D01*
X828492Y897158D01*
X828068Y897089D01*
X827642Y897032D01*
X827215Y896984D01*
X826787Y896947D01*
X826359Y896921D01*
X825929Y896905D01*
X825500Y896900D01*
X825071Y896905D01*
X824641Y896921D01*
X824213Y896947D01*
X823785Y896984D01*
X823358Y897032D01*
X822932Y897089D01*
X822508Y897158D01*
X822086Y897236D01*
X821666Y897325D01*
X821248Y897424D01*
X820833Y897534D01*
X820420Y897654D01*
X820011Y897783D01*
X819604Y897923D01*
X819202Y898073D01*
X818803Y898232D01*
X818408Y898401D01*
X818018Y898580D01*
X817632Y898769D01*
X817251Y898966D01*
X816874Y899173D01*
X816503Y899390D01*
X816138Y899615D01*
X815778Y899849D01*
X815423Y900092D01*
X815075Y900344D01*
X814733Y900604D01*
X814398Y900872D01*
X814069Y901149D01*
X813748Y901433D01*
X813433Y901726D01*
X813126Y902026D01*
X812826Y902333D01*
X812533Y902648D01*
X812249Y902969D01*
X811972Y903298D01*
X811704Y903633D01*
X811444Y903975D01*
X811192Y904323D01*
X810949Y904678D01*
X810715Y905038D01*
X810490Y905403D01*
X810273Y905774D01*
X810066Y906151D01*
X809869Y906532D01*
X809680Y906918D01*
X809501Y907308D01*
X809332Y907703D01*
X809173Y908102D01*
X809023Y908504D01*
X808883Y908911D01*
X808754Y909320D01*
X808634Y909733D01*
X808524Y910148D01*
X808425Y910566D01*
X808336Y910986D01*
X808258Y911408D01*
X808189Y911832D01*
X808132Y912258D01*
X808084Y912685D01*
X808047Y913113D01*
X808021Y913541D01*
X808005Y913971D01*
X808000Y914400D01*
X607900Y123900D02*
X607905Y124329D01*
X607921Y124759D01*
X607947Y125187D01*
X607984Y125615D01*
X608032Y126042D01*
X608089Y126468D01*
X608158Y126892D01*
X608236Y127314D01*
X608325Y127734D01*
X608424Y128152D01*
X608534Y128567D01*
X608654Y128980D01*
X608783Y129389D01*
X608923Y129796D01*
X609073Y130198D01*
X609232Y130597D01*
X609401Y130992D01*
X609580Y131382D01*
X609769Y131768D01*
X609966Y132149D01*
X610173Y132526D01*
X610390Y132897D01*
X610615Y133262D01*
X610849Y133622D01*
X611092Y133977D01*
X611344Y134325D01*
X611604Y134667D01*
X611872Y135002D01*
X612149Y135331D01*
X612433Y135652D01*
X612726Y135967D01*
X613026Y136274D01*
X613333Y136574D01*
X613648Y136867D01*
X613969Y137151D01*
X614298Y137428D01*
X614633Y137696D01*
X614975Y137956D01*
X615323Y138208D01*
X615678Y138451D01*
X616038Y138685D01*
X616403Y138910D01*
X616774Y139127D01*
X617151Y139334D01*
X617532Y139531D01*
X617918Y139720D01*
X618308Y139899D01*
X618703Y140068D01*
X619102Y140227D01*
X619504Y140377D01*
X619911Y140517D01*
X620320Y140646D01*
X620733Y140766D01*
X621148Y140876D01*
X621566Y140975D01*
X621986Y141064D01*
X622408Y141142D01*
X622832Y141211D01*
X623258Y141268D01*
X623685Y141316D01*
X624113Y141353D01*
X624541Y141379D01*
X624971Y141395D01*
X625400Y141400D01*
X625829Y141395D01*
X626259Y141379D01*
X626687Y141353D01*
X627115Y141316D01*
X627542Y141268D01*
X627968Y141211D01*
X628392Y141142D01*
X628814Y141064D01*
X629234Y140975D01*
X629652Y140876D01*
X630067Y140766D01*
X630480Y140646D01*
X630889Y140517D01*
X631296Y140377D01*
X631698Y140227D01*
X632097Y140068D01*
X632492Y139899D01*
X632882Y139720D01*
X633268Y139531D01*
X633649Y139334D01*
X634026Y139127D01*
X634397Y138910D01*
X634762Y138685D01*
X635122Y138451D01*
X635477Y138208D01*
X635825Y137956D01*
X636167Y137696D01*
X636502Y137428D01*
X636831Y137151D01*
X637152Y136867D01*
X637467Y136574D01*
X637774Y136274D01*
X638074Y135967D01*
X638367Y135652D01*
X638651Y135331D01*
X638928Y135002D01*
X639196Y134667D01*
X639456Y134325D01*
X639708Y133977D01*
X639951Y133622D01*
X640185Y133262D01*
X640410Y132897D01*
X640627Y132526D01*
X640834Y132149D01*
X641031Y131768D01*
X641220Y131382D01*
X641399Y130992D01*
X641568Y130597D01*
X641727Y130198D01*
X641877Y129796D01*
X642017Y129389D01*
X642146Y128980D01*
X642266Y128567D01*
X642376Y128152D01*
X642475Y127734D01*
X642564Y127314D01*
X642642Y126892D01*
X642711Y126468D01*
X642768Y126042D01*
X642816Y125615D01*
X642853Y125187D01*
X642879Y124759D01*
X642895Y124329D01*
X642900Y123900D01*
X642895Y123471D01*
X642879Y123041D01*
X642853Y122613D01*
X642816Y122185D01*
X642768Y121758D01*
X642711Y121332D01*
X642642Y120908D01*
X642564Y120486D01*
X642475Y120066D01*
X642376Y119648D01*
X642266Y119233D01*
X642146Y118820D01*
X642017Y118411D01*
X641877Y118004D01*
X641727Y117602D01*
X641568Y117203D01*
X641399Y116808D01*
X641220Y116418D01*
X641031Y116032D01*
X640834Y115651D01*
X640627Y115274D01*
X640410Y114903D01*
X640185Y114538D01*
X639951Y114178D01*
X639708Y113823D01*
X639456Y113475D01*
X639196Y113133D01*
X638928Y112798D01*
X638651Y112469D01*
X638367Y112148D01*
X638074Y111833D01*
X637774Y111526D01*
X637467Y111226D01*
X637152Y110933D01*
X636831Y110649D01*
X636502Y110372D01*
X636167Y110104D01*
X635825Y109844D01*
X635477Y109592D01*
X635122Y109349D01*
X634762Y109115D01*
X634397Y108890D01*
X634026Y108673D01*
X633649Y108466D01*
X633268Y108269D01*
X632882Y108080D01*
X632492Y107901D01*
X632097Y107732D01*
X631698Y107573D01*
X631296Y107423D01*
X630889Y107283D01*
X630480Y107154D01*
X630067Y107034D01*
X629652Y106924D01*
X629234Y106825D01*
X628814Y106736D01*
X628392Y106658D01*
X627968Y106589D01*
X627542Y106532D01*
X627115Y106484D01*
X626687Y106447D01*
X626259Y106421D01*
X625829Y106405D01*
X625400Y106400D01*
X624971Y106405D01*
X624541Y106421D01*
X624113Y106447D01*
X623685Y106484D01*
X623258Y106532D01*
X622832Y106589D01*
X622408Y106658D01*
X621986Y106736D01*
X621566Y106825D01*
X621148Y106924D01*
X620733Y107034D01*
X620320Y107154D01*
X619911Y107283D01*
X619504Y107423D01*
X619102Y107573D01*
X618703Y107732D01*
X618308Y107901D01*
X617918Y108080D01*
X617532Y108269D01*
X617151Y108466D01*
X616774Y108673D01*
X616403Y108890D01*
X616038Y109115D01*
X615678Y109349D01*
X615323Y109592D01*
X614975Y109844D01*
X614633Y110104D01*
X614298Y110372D01*
X613969Y110649D01*
X613648Y110933D01*
X613333Y111226D01*
X613026Y111526D01*
X612726Y111833D01*
X612433Y112148D01*
X612149Y112469D01*
X611872Y112798D01*
X611604Y113133D01*
X611344Y113475D01*
X611092Y113823D01*
X610849Y114178D01*
X610615Y114538D01*
X610390Y114903D01*
X610173Y115274D01*
X609966Y115651D01*
X609769Y116032D01*
X609580Y116418D01*
X609401Y116808D01*
X609232Y117203D01*
X609073Y117602D01*
X608923Y118004D01*
X608783Y118411D01*
X608654Y118820D01*
X608534Y119233D01*
X608424Y119648D01*
X608325Y120066D01*
X608236Y120486D01*
X608158Y120908D01*
X608089Y121332D01*
X608032Y121758D01*
X607984Y122185D01*
X607947Y122613D01*
X607921Y123041D01*
X607905Y123471D01*
X607900Y123900D01*
X117900Y123900D02*
X117905Y124329D01*
X117921Y124759D01*
X117947Y125187D01*
X117984Y125615D01*
X118032Y126042D01*
X118089Y126468D01*
X118158Y126892D01*
X118236Y127314D01*
X118325Y127734D01*
X118424Y128152D01*
X118534Y128567D01*
X118654Y128980D01*
X118783Y129389D01*
X118923Y129796D01*
X119073Y130198D01*
X119232Y130597D01*
X119401Y130992D01*
X119580Y131382D01*
X119769Y131768D01*
X119966Y132149D01*
X120173Y132526D01*
X120390Y132897D01*
X120615Y133262D01*
X120849Y133622D01*
X121092Y133977D01*
X121344Y134325D01*
X121604Y134667D01*
X121872Y135002D01*
X122149Y135331D01*
X122433Y135652D01*
X122726Y135967D01*
X123026Y136274D01*
X123333Y136574D01*
X123648Y136867D01*
X123969Y137151D01*
X124298Y137428D01*
X124633Y137696D01*
X124975Y137956D01*
X125323Y138208D01*
X125678Y138451D01*
X126038Y138685D01*
X126403Y138910D01*
X126774Y139127D01*
X127151Y139334D01*
X127532Y139531D01*
X127918Y139720D01*
X128308Y139899D01*
X128703Y140068D01*
X129102Y140227D01*
X129504Y140377D01*
X129911Y140517D01*
X130320Y140646D01*
X130733Y140766D01*
X131148Y140876D01*
X131566Y140975D01*
X131986Y141064D01*
X132408Y141142D01*
X132832Y141211D01*
X133258Y141268D01*
X133685Y141316D01*
X134113Y141353D01*
X134541Y141379D01*
X134971Y141395D01*
X135400Y141400D01*
X135829Y141395D01*
X136259Y141379D01*
X136687Y141353D01*
X137115Y141316D01*
X137542Y141268D01*
X137968Y141211D01*
X138392Y141142D01*
X138814Y141064D01*
X139234Y140975D01*
X139652Y140876D01*
X140067Y140766D01*
X140480Y140646D01*
X140889Y140517D01*
X141296Y140377D01*
X141698Y140227D01*
X142097Y140068D01*
X142492Y139899D01*
X142882Y139720D01*
X143268Y139531D01*
X143649Y139334D01*
X144026Y139127D01*
X144397Y138910D01*
X144762Y138685D01*
X145122Y138451D01*
X145477Y138208D01*
X145825Y137956D01*
X146167Y137696D01*
X146502Y137428D01*
X146831Y137151D01*
X147152Y136867D01*
X147467Y136574D01*
X147774Y136274D01*
X148074Y135967D01*
X148367Y135652D01*
X148651Y135331D01*
X148928Y135002D01*
X149196Y134667D01*
X149456Y134325D01*
X149708Y133977D01*
X149951Y133622D01*
X150185Y133262D01*
X150410Y132897D01*
X150627Y132526D01*
X150834Y132149D01*
X151031Y131768D01*
X151220Y131382D01*
X151399Y130992D01*
X151568Y130597D01*
X151727Y130198D01*
X151877Y129796D01*
X152017Y129389D01*
X152146Y128980D01*
X152266Y128567D01*
X152376Y128152D01*
X152475Y127734D01*
X152564Y127314D01*
X152642Y126892D01*
X152711Y126468D01*
X152768Y126042D01*
X152816Y125615D01*
X152853Y125187D01*
X152879Y124759D01*
X152895Y124329D01*
X152900Y123900D01*
X152895Y123471D01*
X152879Y123041D01*
X152853Y122613D01*
X152816Y122185D01*
X152768Y121758D01*
X152711Y121332D01*
X152642Y120908D01*
X152564Y120486D01*
X152475Y120066D01*
X152376Y119648D01*
X152266Y119233D01*
X152146Y118820D01*
X152017Y118411D01*
X151877Y118004D01*
X151727Y117602D01*
X151568Y117203D01*
X151399Y116808D01*
X151220Y116418D01*
X151031Y116032D01*
X150834Y115651D01*
X150627Y115274D01*
X150410Y114903D01*
X150185Y114538D01*
X149951Y114178D01*
X149708Y113823D01*
X149456Y113475D01*
X149196Y113133D01*
X148928Y112798D01*
X148651Y112469D01*
X148367Y112148D01*
X148074Y111833D01*
X147774Y111526D01*
X147467Y111226D01*
X147152Y110933D01*
X146831Y110649D01*
X146502Y110372D01*
X146167Y110104D01*
X145825Y109844D01*
X145477Y109592D01*
X145122Y109349D01*
X144762Y109115D01*
X144397Y108890D01*
X144026Y108673D01*
X143649Y108466D01*
X143268Y108269D01*
X142882Y108080D01*
X142492Y107901D01*
X142097Y107732D01*
X141698Y107573D01*
X141296Y107423D01*
X140889Y107283D01*
X140480Y107154D01*
X140067Y107034D01*
X139652Y106924D01*
X139234Y106825D01*
X138814Y106736D01*
X138392Y106658D01*
X137968Y106589D01*
X137542Y106532D01*
X137115Y106484D01*
X136687Y106447D01*
X136259Y106421D01*
X135829Y106405D01*
X135400Y106400D01*
X134971Y106405D01*
X134541Y106421D01*
X134113Y106447D01*
X133685Y106484D01*
X133258Y106532D01*
X132832Y106589D01*
X132408Y106658D01*
X131986Y106736D01*
X131566Y106825D01*
X131148Y106924D01*
X130733Y107034D01*
X130320Y107154D01*
X129911Y107283D01*
X129504Y107423D01*
X129102Y107573D01*
X128703Y107732D01*
X128308Y107901D01*
X127918Y108080D01*
X127532Y108269D01*
X127151Y108466D01*
X126774Y108673D01*
X126403Y108890D01*
X126038Y109115D01*
X125678Y109349D01*
X125323Y109592D01*
X124975Y109844D01*
X124633Y110104D01*
X124298Y110372D01*
X123969Y110649D01*
X123648Y110933D01*
X123333Y111226D01*
X123026Y111526D01*
X122726Y111833D01*
X122433Y112148D01*
X122149Y112469D01*
X121872Y112798D01*
X121604Y113133D01*
X121344Y113475D01*
X121092Y113823D01*
X120849Y114178D01*
X120615Y114538D01*
X120390Y114903D01*
X120173Y115274D01*
X119966Y115651D01*
X119769Y116032D01*
X119580Y116418D01*
X119401Y116808D01*
X119232Y117203D01*
X119073Y117602D01*
X118923Y118004D01*
X118783Y118411D01*
X118654Y118820D01*
X118534Y119233D01*
X118424Y119648D01*
X118325Y120066D01*
X118236Y120486D01*
X118158Y120908D01*
X118089Y121332D01*
X118032Y121758D01*
X117984Y122185D01*
X117947Y122613D01*
X117921Y123041D01*
X117905Y123471D01*
X117900Y123900D01*
X117900Y703900D02*
X117905Y704329D01*
X117921Y704759D01*
X117947Y705187D01*
X117984Y705615D01*
X118032Y706042D01*
X118089Y706468D01*
X118158Y706892D01*
X118236Y707314D01*
X118325Y707734D01*
X118424Y708152D01*
X118534Y708567D01*
X118654Y708980D01*
X118783Y709389D01*
X118923Y709796D01*
X119073Y710198D01*
X119232Y710597D01*
X119401Y710992D01*
X119580Y711382D01*
X119769Y711768D01*
X119966Y712149D01*
X120173Y712526D01*
X120390Y712897D01*
X120615Y713262D01*
X120849Y713622D01*
X121092Y713977D01*
X121344Y714325D01*
X121604Y714667D01*
X121872Y715002D01*
X122149Y715331D01*
X122433Y715652D01*
X122726Y715967D01*
X123026Y716274D01*
X123333Y716574D01*
X123648Y716867D01*
X123969Y717151D01*
X124298Y717428D01*
X124633Y717696D01*
X124975Y717956D01*
X125323Y718208D01*
X125678Y718451D01*
X126038Y718685D01*
X126403Y718910D01*
X126774Y719127D01*
X127151Y719334D01*
X127532Y719531D01*
X127918Y719720D01*
X128308Y719899D01*
X128703Y720068D01*
X129102Y720227D01*
X129504Y720377D01*
X129911Y720517D01*
X130320Y720646D01*
X130733Y720766D01*
X131148Y720876D01*
X131566Y720975D01*
X131986Y721064D01*
X132408Y721142D01*
X132832Y721211D01*
X133258Y721268D01*
X133685Y721316D01*
X134113Y721353D01*
X134541Y721379D01*
X134971Y721395D01*
X135400Y721400D01*
X135829Y721395D01*
X136259Y721379D01*
X136687Y721353D01*
X137115Y721316D01*
X137542Y721268D01*
X137968Y721211D01*
X138392Y721142D01*
X138814Y721064D01*
X139234Y720975D01*
X139652Y720876D01*
X140067Y720766D01*
X140480Y720646D01*
X140889Y720517D01*
X141296Y720377D01*
X141698Y720227D01*
X142097Y720068D01*
X142492Y719899D01*
X142882Y719720D01*
X143268Y719531D01*
X143649Y719334D01*
X144026Y719127D01*
X144397Y718910D01*
X144762Y718685D01*
X145122Y718451D01*
X145477Y718208D01*
X145825Y717956D01*
X146167Y717696D01*
X146502Y717428D01*
X146831Y717151D01*
X147152Y716867D01*
X147467Y716574D01*
X147774Y716274D01*
X148074Y715967D01*
X148367Y715652D01*
X148651Y715331D01*
X148928Y715002D01*
X149196Y714667D01*
X149456Y714325D01*
X149708Y713977D01*
X149951Y713622D01*
X150185Y713262D01*
X150410Y712897D01*
X150627Y712526D01*
X150834Y712149D01*
X151031Y711768D01*
X151220Y711382D01*
X151399Y710992D01*
X151568Y710597D01*
X151727Y710198D01*
X151877Y709796D01*
X152017Y709389D01*
X152146Y708980D01*
X152266Y708567D01*
X152376Y708152D01*
X152475Y707734D01*
X152564Y707314D01*
X152642Y706892D01*
X152711Y706468D01*
X152768Y706042D01*
X152816Y705615D01*
X152853Y705187D01*
X152879Y704759D01*
X152895Y704329D01*
X152900Y703900D01*
X152895Y703471D01*
X152879Y703041D01*
X152853Y702613D01*
X152816Y702185D01*
X152768Y701758D01*
X152711Y701332D01*
X152642Y700908D01*
X152564Y700486D01*
X152475Y700066D01*
X152376Y699648D01*
X152266Y699233D01*
X152146Y698820D01*
X152017Y698411D01*
X151877Y698004D01*
X151727Y697602D01*
X151568Y697203D01*
X151399Y696808D01*
X151220Y696418D01*
X151031Y696032D01*
X150834Y695651D01*
X150627Y695274D01*
X150410Y694903D01*
X150185Y694538D01*
X149951Y694178D01*
X149708Y693823D01*
X149456Y693475D01*
X149196Y693133D01*
X148928Y692798D01*
X148651Y692469D01*
X148367Y692148D01*
X148074Y691833D01*
X147774Y691526D01*
X147467Y691226D01*
X147152Y690933D01*
X146831Y690649D01*
X146502Y690372D01*
X146167Y690104D01*
X145825Y689844D01*
X145477Y689592D01*
X145122Y689349D01*
X144762Y689115D01*
X144397Y688890D01*
X144026Y688673D01*
X143649Y688466D01*
X143268Y688269D01*
X142882Y688080D01*
X142492Y687901D01*
X142097Y687732D01*
X141698Y687573D01*
X141296Y687423D01*
X140889Y687283D01*
X140480Y687154D01*
X140067Y687034D01*
X139652Y686924D01*
X139234Y686825D01*
X138814Y686736D01*
X138392Y686658D01*
X137968Y686589D01*
X137542Y686532D01*
X137115Y686484D01*
X136687Y686447D01*
X136259Y686421D01*
X135829Y686405D01*
X135400Y686400D01*
X134971Y686405D01*
X134541Y686421D01*
X134113Y686447D01*
X133685Y686484D01*
X133258Y686532D01*
X132832Y686589D01*
X132408Y686658D01*
X131986Y686736D01*
X131566Y686825D01*
X131148Y686924D01*
X130733Y687034D01*
X130320Y687154D01*
X129911Y687283D01*
X129504Y687423D01*
X129102Y687573D01*
X128703Y687732D01*
X128308Y687901D01*
X127918Y688080D01*
X127532Y688269D01*
X127151Y688466D01*
X126774Y688673D01*
X126403Y688890D01*
X126038Y689115D01*
X125678Y689349D01*
X125323Y689592D01*
X124975Y689844D01*
X124633Y690104D01*
X124298Y690372D01*
X123969Y690649D01*
X123648Y690933D01*
X123333Y691226D01*
X123026Y691526D01*
X122726Y691833D01*
X122433Y692148D01*
X122149Y692469D01*
X121872Y692798D01*
X121604Y693133D01*
X121344Y693475D01*
X121092Y693823D01*
X120849Y694178D01*
X120615Y694538D01*
X120390Y694903D01*
X120173Y695274D01*
X119966Y695651D01*
X119769Y696032D01*
X119580Y696418D01*
X119401Y696808D01*
X119232Y697203D01*
X119073Y697602D01*
X118923Y698004D01*
X118783Y698411D01*
X118654Y698820D01*
X118534Y699233D01*
X118424Y699648D01*
X118325Y700066D01*
X118236Y700486D01*
X118158Y700908D01*
X118089Y701332D01*
X118032Y701758D01*
X117984Y702185D01*
X117947Y702613D01*
X117921Y703041D01*
X117905Y703471D01*
X117900Y703900D01*
X607900Y703900D02*
X607905Y704329D01*
X607921Y704759D01*
X607947Y705187D01*
X607984Y705615D01*
X608032Y706042D01*
X608089Y706468D01*
X608158Y706892D01*
X608236Y707314D01*
X608325Y707734D01*
X608424Y708152D01*
X608534Y708567D01*
X608654Y708980D01*
X608783Y709389D01*
X608923Y709796D01*
X609073Y710198D01*
X609232Y710597D01*
X609401Y710992D01*
X609580Y711382D01*
X609769Y711768D01*
X609966Y712149D01*
X610173Y712526D01*
X610390Y712897D01*
X610615Y713262D01*
X610849Y713622D01*
X611092Y713977D01*
X611344Y714325D01*
X611604Y714667D01*
X611872Y715002D01*
X612149Y715331D01*
X612433Y715652D01*
X612726Y715967D01*
X613026Y716274D01*
X613333Y716574D01*
X613648Y716867D01*
X613969Y717151D01*
X614298Y717428D01*
X614633Y717696D01*
X614975Y717956D01*
X615323Y718208D01*
X615678Y718451D01*
X616038Y718685D01*
X616403Y718910D01*
X616774Y719127D01*
X617151Y719334D01*
X617532Y719531D01*
X617918Y719720D01*
X618308Y719899D01*
X618703Y720068D01*
X619102Y720227D01*
X619504Y720377D01*
X619911Y720517D01*
X620320Y720646D01*
X620733Y720766D01*
X621148Y720876D01*
X621566Y720975D01*
X621986Y721064D01*
X622408Y721142D01*
X622832Y721211D01*
X623258Y721268D01*
X623685Y721316D01*
X624113Y721353D01*
X624541Y721379D01*
X624971Y721395D01*
X625400Y721400D01*
X625829Y721395D01*
X626259Y721379D01*
X626687Y721353D01*
X627115Y721316D01*
X627542Y721268D01*
X627968Y721211D01*
X628392Y721142D01*
X628814Y721064D01*
X629234Y720975D01*
X629652Y720876D01*
X630067Y720766D01*
X630480Y720646D01*
X630889Y720517D01*
X631296Y720377D01*
X631698Y720227D01*
X632097Y720068D01*
X632492Y719899D01*
X632882Y719720D01*
X633268Y719531D01*
X633649Y719334D01*
X634026Y719127D01*
X634397Y718910D01*
X634762Y718685D01*
X635122Y718451D01*
X635477Y718208D01*
X635825Y717956D01*
X636167Y717696D01*
X636502Y717428D01*
X636831Y717151D01*
X637152Y716867D01*
X637467Y716574D01*
X637774Y716274D01*
X638074Y715967D01*
X638367Y715652D01*
X638651Y715331D01*
X638928Y715002D01*
X639196Y714667D01*
X639456Y714325D01*
X639708Y713977D01*
X639951Y713622D01*
X640185Y713262D01*
X640410Y712897D01*
X640627Y712526D01*
X640834Y712149D01*
X641031Y711768D01*
X641220Y711382D01*
X641399Y710992D01*
X641568Y710597D01*
X641727Y710198D01*
X641877Y709796D01*
X642017Y709389D01*
X642146Y708980D01*
X642266Y708567D01*
X642376Y708152D01*
X642475Y707734D01*
X642564Y707314D01*
X642642Y706892D01*
X642711Y706468D01*
X642768Y706042D01*
X642816Y705615D01*
X642853Y705187D01*
X642879Y704759D01*
X642895Y704329D01*
X642900Y703900D01*
X642895Y703471D01*
X642879Y703041D01*
X642853Y702613D01*
X642816Y702185D01*
X642768Y701758D01*
X642711Y701332D01*
X642642Y700908D01*
X642564Y700486D01*
X642475Y700066D01*
X642376Y699648D01*
X642266Y699233D01*
X642146Y698820D01*
X642017Y698411D01*
X641877Y698004D01*
X641727Y697602D01*
X641568Y697203D01*
X641399Y696808D01*
X641220Y696418D01*
X641031Y696032D01*
X640834Y695651D01*
X640627Y695274D01*
X640410Y694903D01*
X640185Y694538D01*
X639951Y694178D01*
X639708Y693823D01*
X639456Y693475D01*
X639196Y693133D01*
X638928Y692798D01*
X638651Y692469D01*
X638367Y692148D01*
X638074Y691833D01*
X637774Y691526D01*
X637467Y691226D01*
X637152Y690933D01*
X636831Y690649D01*
X636502Y690372D01*
X636167Y690104D01*
X635825Y689844D01*
X635477Y689592D01*
X635122Y689349D01*
X634762Y689115D01*
X634397Y688890D01*
X634026Y688673D01*
X633649Y688466D01*
X633268Y688269D01*
X632882Y688080D01*
X632492Y687901D01*
X632097Y687732D01*
X631698Y687573D01*
X631296Y687423D01*
X630889Y687283D01*
X630480Y687154D01*
X630067Y687034D01*
X629652Y686924D01*
X629234Y686825D01*
X628814Y686736D01*
X628392Y686658D01*
X627968Y686589D01*
X627542Y686532D01*
X627115Y686484D01*
X626687Y686447D01*
X626259Y686421D01*
X625829Y686405D01*
X625400Y686400D01*
X624971Y686405D01*
X624541Y686421D01*
X624113Y686447D01*
X623685Y686484D01*
X623258Y686532D01*
X622832Y686589D01*
X622408Y686658D01*
X621986Y686736D01*
X621566Y686825D01*
X621148Y686924D01*
X620733Y687034D01*
X620320Y687154D01*
X619911Y687283D01*
X619504Y687423D01*
X619102Y687573D01*
X618703Y687732D01*
X618308Y687901D01*
X617918Y688080D01*
X617532Y688269D01*
X617151Y688466D01*
X616774Y688673D01*
X616403Y688890D01*
X616038Y689115D01*
X615678Y689349D01*
X615323Y689592D01*
X614975Y689844D01*
X614633Y690104D01*
X614298Y690372D01*
X613969Y690649D01*
X613648Y690933D01*
X613333Y691226D01*
X613026Y691526D01*
X612726Y691833D01*
X612433Y692148D01*
X612149Y692469D01*
X611872Y692798D01*
X611604Y693133D01*
X611344Y693475D01*
X611092Y693823D01*
X610849Y694178D01*
X610615Y694538D01*
X610390Y694903D01*
X610173Y695274D01*
X609966Y695651D01*
X609769Y696032D01*
X609580Y696418D01*
X609401Y696808D01*
X609232Y697203D01*
X609073Y697602D01*
X608923Y698004D01*
X608783Y698411D01*
X608654Y698820D01*
X608534Y699233D01*
X608424Y699648D01*
X608325Y700066D01*
X608236Y700486D01*
X608158Y700908D01*
X608089Y701332D01*
X608032Y701758D01*
X607984Y702185D01*
X607947Y702613D01*
X607921Y703041D01*
X607905Y703471D01*
X607900Y703900D01*
M02*
