G04 EAGLE Gerber RS-274X export*
G75*
%MOMM*%
%FSLAX34Y34*%
%LPD*%
%INSilkscreen Bottom*%
%IPPOS*%
%AMOC8*
5,1,8,0,0,1.08239X$1,22.5*%
G01*
%ADD10C,0.101600*%
%ADD11R,0.200000X0.200000*%
%ADD12R,0.250000X0.150000*%


D10*
X795100Y704000D02*
X794967Y703876D01*
X794837Y703748D01*
X794710Y703618D01*
X794586Y703484D01*
X794465Y703348D01*
X794348Y703208D01*
X794235Y703066D01*
X794125Y702921D01*
X794018Y702773D01*
X793915Y702623D01*
X793816Y702470D01*
X793721Y702315D01*
X793629Y702158D01*
X793542Y701998D01*
X793458Y701836D01*
X793378Y701673D01*
X793302Y701507D01*
X793231Y701340D01*
X793163Y701170D01*
X793100Y701000D01*
X793041Y700828D01*
X792986Y700654D01*
X792935Y700479D01*
X792889Y700303D01*
X792847Y700126D01*
X792809Y699948D01*
X792776Y699768D01*
X792747Y699589D01*
X792723Y699408D01*
X792703Y699227D01*
X792687Y699046D01*
X792676Y698864D01*
X792669Y698682D01*
X792667Y698500D01*
X792669Y698318D01*
X792676Y698136D01*
X792687Y697954D01*
X792703Y697773D01*
X792723Y697592D01*
X792747Y697411D01*
X792776Y697232D01*
X792809Y697052D01*
X792847Y696874D01*
X792889Y696697D01*
X792935Y696521D01*
X792986Y696346D01*
X793041Y696172D01*
X793100Y696000D01*
X793163Y695830D01*
X793231Y695660D01*
X793302Y695493D01*
X793378Y695327D01*
X793458Y695164D01*
X793542Y695002D01*
X793629Y694842D01*
X793721Y694685D01*
X793816Y694530D01*
X793915Y694377D01*
X794018Y694227D01*
X794125Y694079D01*
X794235Y693934D01*
X794348Y693792D01*
X794465Y693652D01*
X794586Y693516D01*
X794710Y693382D01*
X794837Y693252D01*
X794967Y693124D01*
X795100Y693000D01*
X805100Y693000D02*
X805233Y693124D01*
X805363Y693252D01*
X805490Y693382D01*
X805614Y693516D01*
X805735Y693652D01*
X805852Y693792D01*
X805965Y693934D01*
X806075Y694079D01*
X806182Y694227D01*
X806285Y694377D01*
X806384Y694530D01*
X806479Y694685D01*
X806571Y694842D01*
X806658Y695002D01*
X806742Y695164D01*
X806822Y695327D01*
X806898Y695493D01*
X806969Y695660D01*
X807037Y695830D01*
X807100Y696000D01*
X807159Y696172D01*
X807214Y696346D01*
X807265Y696521D01*
X807311Y696697D01*
X807353Y696874D01*
X807391Y697052D01*
X807424Y697232D01*
X807453Y697411D01*
X807477Y697592D01*
X807497Y697773D01*
X807513Y697954D01*
X807524Y698136D01*
X807531Y698318D01*
X807533Y698500D01*
X807531Y698682D01*
X807524Y698864D01*
X807513Y699046D01*
X807497Y699227D01*
X807477Y699408D01*
X807453Y699589D01*
X807424Y699768D01*
X807391Y699948D01*
X807353Y700126D01*
X807311Y700303D01*
X807265Y700479D01*
X807214Y700654D01*
X807159Y700828D01*
X807100Y701000D01*
X807037Y701170D01*
X806969Y701340D01*
X806898Y701507D01*
X806822Y701673D01*
X806742Y701836D01*
X806658Y701998D01*
X806571Y702158D01*
X806479Y702315D01*
X806384Y702470D01*
X806285Y702623D01*
X806182Y702773D01*
X806075Y702921D01*
X805965Y703066D01*
X805852Y703208D01*
X805735Y703348D01*
X805614Y703484D01*
X805490Y703618D01*
X805363Y703748D01*
X805233Y703876D01*
X805100Y704000D01*
D11*
X800100Y698500D03*
D12*
X794350Y703750D03*
D10*
X813308Y686308D02*
X824992Y686308D01*
X813308Y686308D02*
X813308Y691501D01*
X813308Y696214D02*
X813308Y701407D01*
X813308Y696214D02*
X824992Y696214D01*
X824992Y701407D01*
X819799Y700109D02*
X819799Y696214D01*
X824992Y706097D02*
X813308Y706097D01*
X824992Y706097D02*
X824992Y709343D01*
X824990Y709456D01*
X824984Y709569D01*
X824974Y709682D01*
X824960Y709795D01*
X824943Y709907D01*
X824921Y710018D01*
X824896Y710128D01*
X824866Y710238D01*
X824833Y710346D01*
X824796Y710453D01*
X824756Y710559D01*
X824711Y710663D01*
X824663Y710766D01*
X824612Y710867D01*
X824557Y710966D01*
X824499Y711063D01*
X824437Y711158D01*
X824372Y711251D01*
X824304Y711341D01*
X824233Y711429D01*
X824158Y711515D01*
X824081Y711598D01*
X824001Y711678D01*
X823918Y711755D01*
X823832Y711830D01*
X823744Y711901D01*
X823654Y711969D01*
X823561Y712034D01*
X823466Y712096D01*
X823369Y712154D01*
X823270Y712209D01*
X823169Y712260D01*
X823066Y712308D01*
X822962Y712353D01*
X822856Y712393D01*
X822749Y712430D01*
X822641Y712463D01*
X822531Y712493D01*
X822421Y712518D01*
X822310Y712540D01*
X822198Y712557D01*
X822085Y712571D01*
X821972Y712581D01*
X821859Y712587D01*
X821746Y712589D01*
X816554Y712589D01*
X816441Y712587D01*
X816328Y712581D01*
X816215Y712571D01*
X816102Y712557D01*
X815990Y712540D01*
X815879Y712518D01*
X815769Y712493D01*
X815659Y712463D01*
X815551Y712430D01*
X815444Y712393D01*
X815338Y712353D01*
X815234Y712308D01*
X815131Y712260D01*
X815030Y712209D01*
X814931Y712154D01*
X814834Y712096D01*
X814739Y712034D01*
X814646Y711969D01*
X814556Y711901D01*
X814468Y711830D01*
X814382Y711755D01*
X814299Y711678D01*
X814219Y711598D01*
X814142Y711515D01*
X814067Y711429D01*
X813996Y711341D01*
X813928Y711251D01*
X813863Y711158D01*
X813801Y711063D01*
X813743Y710966D01*
X813688Y710867D01*
X813637Y710766D01*
X813589Y710663D01*
X813544Y710559D01*
X813504Y710453D01*
X813467Y710346D01*
X813434Y710238D01*
X813404Y710128D01*
X813379Y710018D01*
X813357Y709907D01*
X813340Y709795D01*
X813326Y709682D01*
X813316Y709569D01*
X813310Y709456D01*
X813308Y709343D01*
X813308Y706097D01*
X822396Y717908D02*
X824992Y721154D01*
X813308Y721154D01*
X813308Y724399D02*
X813308Y717908D01*
X774192Y686308D02*
X762508Y686308D01*
X774192Y686308D02*
X774192Y689554D01*
X774190Y689667D01*
X774184Y689780D01*
X774174Y689893D01*
X774160Y690006D01*
X774143Y690118D01*
X774121Y690229D01*
X774096Y690339D01*
X774066Y690449D01*
X774033Y690557D01*
X773996Y690664D01*
X773956Y690770D01*
X773911Y690874D01*
X773863Y690977D01*
X773812Y691078D01*
X773757Y691177D01*
X773699Y691274D01*
X773637Y691369D01*
X773572Y691462D01*
X773504Y691552D01*
X773433Y691640D01*
X773358Y691726D01*
X773281Y691809D01*
X773201Y691889D01*
X773118Y691966D01*
X773032Y692041D01*
X772944Y692112D01*
X772854Y692180D01*
X772761Y692245D01*
X772666Y692307D01*
X772569Y692365D01*
X772470Y692420D01*
X772369Y692471D01*
X772266Y692519D01*
X772162Y692564D01*
X772056Y692604D01*
X771949Y692641D01*
X771841Y692674D01*
X771731Y692704D01*
X771621Y692729D01*
X771510Y692751D01*
X771398Y692768D01*
X771285Y692782D01*
X771172Y692792D01*
X771059Y692798D01*
X770946Y692800D01*
X770833Y692798D01*
X770720Y692792D01*
X770607Y692782D01*
X770494Y692768D01*
X770382Y692751D01*
X770271Y692729D01*
X770161Y692704D01*
X770051Y692674D01*
X769943Y692641D01*
X769836Y692604D01*
X769730Y692564D01*
X769626Y692519D01*
X769523Y692471D01*
X769422Y692420D01*
X769323Y692365D01*
X769226Y692307D01*
X769131Y692245D01*
X769038Y692180D01*
X768948Y692112D01*
X768860Y692041D01*
X768774Y691966D01*
X768691Y691889D01*
X768611Y691809D01*
X768534Y691726D01*
X768459Y691640D01*
X768388Y691552D01*
X768320Y691462D01*
X768255Y691369D01*
X768193Y691274D01*
X768135Y691177D01*
X768080Y691078D01*
X768029Y690977D01*
X767981Y690874D01*
X767936Y690770D01*
X767896Y690664D01*
X767859Y690557D01*
X767826Y690449D01*
X767796Y690339D01*
X767771Y690229D01*
X767749Y690118D01*
X767732Y690006D01*
X767718Y689893D01*
X767708Y689780D01*
X767702Y689667D01*
X767700Y689554D01*
X767701Y689554D02*
X767701Y686308D01*
X767701Y690203D02*
X762508Y692799D01*
X771596Y697664D02*
X774192Y700910D01*
X762508Y700910D01*
X762508Y704155D02*
X762508Y697664D01*
M02*
