G04 EAGLE Gerber RS-274X export*
G75*
%MOMM*%
%FSLAX34Y34*%
%LPD*%
%INSoldermask Bottom*%
%IPPOS*%
%AMOC8*
5,1,8,0,0,1.08239X$1,22.5*%
G01*
%ADD10C,5.203200*%
%ADD11C,3.703200*%
%ADD12C,1.981200*%
%ADD13C,1.993900*%
%ADD14R,2.006200X1.803200*%
%ADD15R,2.203200X1.803200*%


D10*
X736600Y419100D03*
X800100Y419100D03*
X863600Y419100D03*
X736600Y279400D03*
X800100Y279400D03*
X863600Y279400D03*
X736600Y114300D03*
X800100Y114300D03*
X863600Y114300D03*
X736600Y558800D03*
X800100Y558800D03*
X863600Y558800D03*
X304800Y1028700D03*
X304800Y1092200D03*
X304800Y1155700D03*
X482600Y1028700D03*
X482600Y1092200D03*
X482600Y1155700D03*
X660400Y1028700D03*
X660400Y1092200D03*
X660400Y1155700D03*
X76200Y1028700D03*
X76200Y1092200D03*
X76200Y1155700D03*
D11*
X50800Y914400D03*
X50800Y50800D03*
X825500Y50800D03*
X825500Y914400D03*
X625400Y123900D03*
X135400Y123900D03*
X135400Y703900D03*
X625400Y703900D03*
D12*
X121920Y172720D03*
X147320Y172720D03*
X121920Y198120D03*
X147320Y198120D03*
X147320Y223520D03*
X121920Y223520D03*
X121920Y248920D03*
X147320Y248920D03*
X147320Y274320D03*
X121920Y274320D03*
X121920Y299720D03*
X147320Y299720D03*
X147320Y325120D03*
X121920Y325120D03*
X121920Y350520D03*
X147320Y350520D03*
X147320Y375920D03*
X121920Y375920D03*
X121920Y401320D03*
X147320Y401320D03*
X147320Y426720D03*
X121920Y426720D03*
X121920Y452120D03*
X147320Y452120D03*
X147320Y477520D03*
X121920Y477520D03*
X121920Y502920D03*
X147320Y502920D03*
X147320Y528320D03*
X121920Y528320D03*
X121920Y553720D03*
X147320Y553720D03*
X147320Y579120D03*
X121920Y579120D03*
X121920Y604520D03*
X147320Y604520D03*
X147320Y629920D03*
X121920Y629920D03*
X121920Y655320D03*
X147320Y655320D03*
D13*
X778447Y775100D02*
X796354Y775100D01*
X796354Y825100D02*
X778447Y825100D01*
D14*
X800100Y684280D03*
X800100Y712720D03*
D15*
X749300Y684500D03*
X749300Y712500D03*
M02*
