M48
;GenerationSoftware,Autodesk,EAGLE,9.3.2*%
;CreationDate,2020-01-03T12:35:12Z*%
FMAT,2
ICI,OFF
METRIC,TZ,000.000
T7C0.350
T6C0.700
T5C0.800
T4C1.000
T3C1.016
T2C1.020
T1C3.000
%
G90
M71
T1
X167640Y77470
X167640Y3810
X3810Y77470
X3810Y3810
T2
X22860Y13970
X7620Y13970
X22860Y16510
X22860Y26670
X7620Y8890
X22860Y11430
X7620Y11430
X7620Y44450
X22860Y44450
X7620Y41910
X22860Y41910
X7620Y16510
X22860Y19050
X7620Y19050
X22860Y21590
X7620Y21590
X22860Y24130
X7620Y24130
X22860Y8890
X7620Y26670
X22860Y29210
X7620Y29210
X22860Y31750
X7620Y31750
X22860Y34290
X7620Y34290
X22860Y36830
X7620Y36830
X22860Y39370
X7620Y39370
T3
X19329Y70409
X23851Y70409
X19329Y76911
X23851Y76911
X7899Y70409
X12421Y70409
X7899Y76911
X12421Y76911
T4
X11430Y54890
X8430Y59690
X14530Y59690
T5
X44450Y34290
X41910Y34290
X39370Y34290
X36830Y34290
X34290Y34290
X31750Y34290
X29210Y34290
X67310Y3810
X64770Y3810
X62230Y3810
X59690Y3810
X57150Y3810
X54610Y3810
X52070Y3810
X67310Y34290
X64770Y34290
X62230Y34290
X59690Y34290
X57150Y34290
X54610Y34290
X52070Y34290
X124460Y3810
X121920Y3810
X119380Y3810
X116840Y3810
X114300Y3810
X111760Y3810
X109220Y3810
X124460Y34290
X121920Y34290
X119380Y34290
X116840Y34290
X29210Y3810
X31750Y3810
X34290Y3810
X36830Y3810
X39370Y3810
X41910Y3810
X44450Y3810
X57785Y49530
X57785Y52070
X57785Y54610
X57785Y57150
X57785Y59690
X57785Y62230
X57785Y64770
X57785Y67310
X57785Y69850
X57785Y72390
X121920Y49530
X121920Y52070
X121920Y54610
X121920Y57150
X121920Y59690
X121920Y62230
X121920Y64770
X121920Y67310
X121920Y69850
X121920Y72390
X33020Y43180
X35560Y43180
X38100Y43180
X40640Y43180
X43180Y43180
X45720Y43180
X96520Y34290
X86360Y34290
X88900Y34290
X91440Y34290
X93980Y34290
X114300Y34290
X99060Y34290
X101600Y34290
X86360Y3810
X88900Y3810
X91440Y3810
X93980Y3810
X96520Y3810
X99060Y3810
X101600Y3810
X109220Y34290
X111760Y34290
T6
X151765Y76835
X146685Y76835
X141605Y76835
X136525Y76835
X161925Y76835
X161925Y4445
X154305Y4445
X151765Y4445
X149225Y4445
X146685Y4445
X144145Y4445
X141605Y4445
X139065Y4445
X136525Y4445
X133985Y4445
X131445Y4445
X159385Y4445
X156845Y4445
X159385Y76835
X156845Y76835
X154305Y76835
X149225Y76835
X144145Y76835
X139065Y76835
X133985Y76835
X131445Y76835
T7
X91440Y11430
X34290Y11430
X146050Y7620
X128270Y6350
X109220Y6350
X110490Y8890
X128270Y8890
X54610Y8890
X88900Y8890
X31750Y8890
X111760Y26670
X91440Y26670
X57150Y26670
X34290Y26670
X111760Y30480
X88900Y29210
X54610Y29210
X31750Y29210
X153670Y25400
X153670Y31750
X109220Y31750
X125730Y36830
X146050Y36830
X144780Y44450
X129540Y44450
X140970Y45720
X130810Y45720
X132080Y46990
X137160Y46990
X133350Y16510
X133350Y10160
X135890Y16510
X135890Y10160
X130810Y16510
X130810Y10160
X62230Y16510
X96520Y16510
X39370Y16510
X52070Y49530
X54610Y49530
X15240Y67310
X26670Y67310
X57150Y41910
X22860Y64770
X13970Y66040
X33020Y59690
X54610Y59690
X23851Y73660
X12421Y73660
X59690Y13970
X93980Y13970
X57150Y11430
X111760Y11430
X44450Y21590
X101600Y21590
X67310Y21590
X41910Y19050
X99060Y19050
X64770Y19050
X120650Y13970
X140970Y13970
X140970Y8890
X121920Y39370
X99060Y39370
X64770Y39370
X121920Y26670
X148590Y26670
X148590Y21590
X17780Y38100
X15240Y38100
X29210Y63500
X125730Y77470
X53340Y52070
X62230Y41910
X96520Y41910
X119380Y40640
X36830Y13970
M30