M48
;GenerationSoftware,Autodesk,EAGLE,9.3.2*%
;CreationDate,2020-10-06T07:28:36Z*%
FMAT,2
ICI,OFF
METRIC,TZ,000.000
T5C0.800
T4C1.000
T3C1.194
T2C1.778
T1C3.200
%
G90
M71
T1
X41810Y56310
X64810Y56310
X3810Y59690
X3810Y3810
X71120Y3810
X71120Y59690
T2
X19050Y45720
X34290Y45720
X34290Y5080
X19050Y5080
T3
X8255Y10160
X8255Y15240
T4
X8890Y40640
X8890Y43180
X8890Y45720
X8890Y26670
X8890Y29210
X8890Y31750
X54610Y8890
X54610Y6350
X57150Y8890
X57150Y6350
X59690Y8890
X59690Y6350
X62230Y8890
X62230Y6350
X64770Y8890
X64770Y6350
T5
X34290Y7620
X34290Y10160
X44450Y39370
X34290Y15240
X34290Y17780
X34290Y20320
X34290Y22860
X34290Y25400
X34290Y27940
X34290Y30480
X34290Y33020
X34290Y35560
X34290Y38100
X34290Y40640
X34290Y43180
X19050Y7620
X19050Y10160
X19050Y12700
X19050Y15240
X19050Y17780
X19050Y20320
X19050Y22860
X19050Y25400
X19050Y27940
X19050Y30480
X19050Y33020
X19050Y35560
X19050Y38100
X19050Y40640
X19050Y43180
X24130Y30480
X24130Y25400
X34290Y12700
M30