G04 EAGLE Gerber RS-274X export*
G75*
%MOMM*%
%FSLAX34Y34*%
%LPD*%
%INSoldermask Top*%
%IPPOS*%
%AMOC8*
5,1,8,0,0,1.08239X$1,22.5*%
G01*
%ADD10C,3.403200*%
%ADD11C,1.981200*%
%ADD12R,1.511200X1.511200*%
%ADD13C,1.511200*%
%ADD14R,1.703200X1.703200*%
%ADD15R,2.203200X1.803200*%
%ADD16C,2.133600*%
%ADD17C,1.993900*%
%ADD18C,1.711200*%
%ADD19C,1.409600*%


D10*
X38100Y596900D03*
X38100Y38100D03*
X711200Y38100D03*
X711200Y596900D03*
D11*
X190500Y457200D03*
D12*
X190500Y431800D03*
D13*
X190500Y406400D03*
X190500Y381000D03*
X190500Y355600D03*
X190500Y330200D03*
X190500Y304800D03*
X190500Y279400D03*
X190500Y254000D03*
X190500Y228600D03*
X190500Y203200D03*
X190500Y177800D03*
X190500Y152400D03*
X190500Y127000D03*
X190500Y101600D03*
X190500Y76200D03*
X342900Y76200D03*
X342900Y101600D03*
X342900Y127000D03*
X342900Y152400D03*
X342900Y177800D03*
X342900Y203200D03*
X342900Y228600D03*
X342900Y254000D03*
X342900Y279400D03*
X342900Y304800D03*
X342900Y330200D03*
X342900Y355600D03*
X342900Y381000D03*
X342900Y406400D03*
X342900Y431800D03*
D11*
X342900Y457200D03*
X342900Y50800D03*
X190500Y50800D03*
D14*
X215900Y550900D03*
X215900Y515900D03*
D15*
X317500Y547400D03*
X317500Y519400D03*
D10*
X418100Y563100D03*
X648100Y563100D03*
D16*
X647700Y63500D03*
X647700Y88900D03*
X622300Y63500D03*
X622300Y88900D03*
X596900Y63500D03*
X596900Y88900D03*
X571500Y63500D03*
X571500Y88900D03*
X546100Y63500D03*
X546100Y88900D03*
D17*
X91504Y152400D02*
X73597Y152400D01*
X73597Y101600D02*
X91504Y101600D01*
D18*
X96440Y317500D02*
X81360Y317500D01*
X81360Y292100D02*
X96440Y292100D01*
X96440Y266700D02*
X81360Y266700D01*
X81360Y457200D02*
X96440Y457200D01*
X96440Y431800D02*
X81360Y431800D01*
X81360Y406400D02*
X96440Y406400D01*
D19*
X444500Y393700D03*
X241300Y254000D03*
X241300Y304800D03*
M02*
