G04 EAGLE Gerber RS-274X export*
G75*
%MOMM*%
%FSLAX34Y34*%
%LPD*%
%IN*%
%IPPOS*%
%AMOC8*
5,1,8,0,0,1.08239X$1,22.5*%
G01*
%ADD10C,0.000000*%


D10*
X0Y0D02*
X276100Y0D01*
X276100Y203100D01*
X0Y203100D01*
X0Y0D01*
X9900Y177800D02*
X9905Y178180D01*
X9919Y178561D01*
X9942Y178940D01*
X9975Y179319D01*
X10017Y179697D01*
X10068Y180074D01*
X10128Y180450D01*
X10198Y180824D01*
X10277Y181196D01*
X10365Y181566D01*
X10461Y181934D01*
X10567Y182299D01*
X10682Y182662D01*
X10806Y183022D01*
X10939Y183378D01*
X11080Y183732D01*
X11230Y184081D01*
X11388Y184427D01*
X11555Y184769D01*
X11730Y185107D01*
X11914Y185440D01*
X12105Y185769D01*
X12305Y186092D01*
X12512Y186411D01*
X12727Y186725D01*
X12950Y187033D01*
X13181Y187336D01*
X13418Y187633D01*
X13663Y187924D01*
X13915Y188209D01*
X14174Y188488D01*
X14440Y188760D01*
X14712Y189026D01*
X14991Y189285D01*
X15276Y189537D01*
X15567Y189782D01*
X15864Y190019D01*
X16167Y190250D01*
X16475Y190473D01*
X16789Y190688D01*
X17108Y190895D01*
X17431Y191095D01*
X17760Y191286D01*
X18093Y191470D01*
X18431Y191645D01*
X18773Y191812D01*
X19119Y191970D01*
X19468Y192120D01*
X19822Y192261D01*
X20178Y192394D01*
X20538Y192518D01*
X20901Y192633D01*
X21266Y192739D01*
X21634Y192835D01*
X22004Y192923D01*
X22376Y193002D01*
X22750Y193072D01*
X23126Y193132D01*
X23503Y193183D01*
X23881Y193225D01*
X24260Y193258D01*
X24639Y193281D01*
X25020Y193295D01*
X25400Y193300D01*
X25780Y193295D01*
X26161Y193281D01*
X26540Y193258D01*
X26919Y193225D01*
X27297Y193183D01*
X27674Y193132D01*
X28050Y193072D01*
X28424Y193002D01*
X28796Y192923D01*
X29166Y192835D01*
X29534Y192739D01*
X29899Y192633D01*
X30262Y192518D01*
X30622Y192394D01*
X30978Y192261D01*
X31332Y192120D01*
X31681Y191970D01*
X32027Y191812D01*
X32369Y191645D01*
X32707Y191470D01*
X33040Y191286D01*
X33369Y191095D01*
X33692Y190895D01*
X34011Y190688D01*
X34325Y190473D01*
X34633Y190250D01*
X34936Y190019D01*
X35233Y189782D01*
X35524Y189537D01*
X35809Y189285D01*
X36088Y189026D01*
X36360Y188760D01*
X36626Y188488D01*
X36885Y188209D01*
X37137Y187924D01*
X37382Y187633D01*
X37619Y187336D01*
X37850Y187033D01*
X38073Y186725D01*
X38288Y186411D01*
X38495Y186092D01*
X38695Y185769D01*
X38886Y185440D01*
X39070Y185107D01*
X39245Y184769D01*
X39412Y184427D01*
X39570Y184081D01*
X39720Y183732D01*
X39861Y183378D01*
X39994Y183022D01*
X40118Y182662D01*
X40233Y182299D01*
X40339Y181934D01*
X40435Y181566D01*
X40523Y181196D01*
X40602Y180824D01*
X40672Y180450D01*
X40732Y180074D01*
X40783Y179697D01*
X40825Y179319D01*
X40858Y178940D01*
X40881Y178561D01*
X40895Y178180D01*
X40900Y177800D01*
X40895Y177420D01*
X40881Y177039D01*
X40858Y176660D01*
X40825Y176281D01*
X40783Y175903D01*
X40732Y175526D01*
X40672Y175150D01*
X40602Y174776D01*
X40523Y174404D01*
X40435Y174034D01*
X40339Y173666D01*
X40233Y173301D01*
X40118Y172938D01*
X39994Y172578D01*
X39861Y172222D01*
X39720Y171868D01*
X39570Y171519D01*
X39412Y171173D01*
X39245Y170831D01*
X39070Y170493D01*
X38886Y170160D01*
X38695Y169831D01*
X38495Y169508D01*
X38288Y169189D01*
X38073Y168875D01*
X37850Y168567D01*
X37619Y168264D01*
X37382Y167967D01*
X37137Y167676D01*
X36885Y167391D01*
X36626Y167112D01*
X36360Y166840D01*
X36088Y166574D01*
X35809Y166315D01*
X35524Y166063D01*
X35233Y165818D01*
X34936Y165581D01*
X34633Y165350D01*
X34325Y165127D01*
X34011Y164912D01*
X33692Y164705D01*
X33369Y164505D01*
X33040Y164314D01*
X32707Y164130D01*
X32369Y163955D01*
X32027Y163788D01*
X31681Y163630D01*
X31332Y163480D01*
X30978Y163339D01*
X30622Y163206D01*
X30262Y163082D01*
X29899Y162967D01*
X29534Y162861D01*
X29166Y162765D01*
X28796Y162677D01*
X28424Y162598D01*
X28050Y162528D01*
X27674Y162468D01*
X27297Y162417D01*
X26919Y162375D01*
X26540Y162342D01*
X26161Y162319D01*
X25780Y162305D01*
X25400Y162300D01*
X25020Y162305D01*
X24639Y162319D01*
X24260Y162342D01*
X23881Y162375D01*
X23503Y162417D01*
X23126Y162468D01*
X22750Y162528D01*
X22376Y162598D01*
X22004Y162677D01*
X21634Y162765D01*
X21266Y162861D01*
X20901Y162967D01*
X20538Y163082D01*
X20178Y163206D01*
X19822Y163339D01*
X19468Y163480D01*
X19119Y163630D01*
X18773Y163788D01*
X18431Y163955D01*
X18093Y164130D01*
X17760Y164314D01*
X17431Y164505D01*
X17108Y164705D01*
X16789Y164912D01*
X16475Y165127D01*
X16167Y165350D01*
X15864Y165581D01*
X15567Y165818D01*
X15276Y166063D01*
X14991Y166315D01*
X14712Y166574D01*
X14440Y166840D01*
X14174Y167112D01*
X13915Y167391D01*
X13663Y167676D01*
X13418Y167967D01*
X13181Y168264D01*
X12950Y168567D01*
X12727Y168875D01*
X12512Y169189D01*
X12305Y169508D01*
X12105Y169831D01*
X11914Y170160D01*
X11730Y170493D01*
X11555Y170831D01*
X11388Y171173D01*
X11230Y171519D01*
X11080Y171868D01*
X10939Y172222D01*
X10806Y172578D01*
X10682Y172938D01*
X10567Y173301D01*
X10461Y173666D01*
X10365Y174034D01*
X10277Y174404D01*
X10198Y174776D01*
X10128Y175150D01*
X10068Y175526D01*
X10017Y175903D01*
X9975Y176281D01*
X9942Y176660D01*
X9919Y177039D01*
X9905Y177420D01*
X9900Y177800D01*
X9900Y25400D02*
X9905Y25780D01*
X9919Y26161D01*
X9942Y26540D01*
X9975Y26919D01*
X10017Y27297D01*
X10068Y27674D01*
X10128Y28050D01*
X10198Y28424D01*
X10277Y28796D01*
X10365Y29166D01*
X10461Y29534D01*
X10567Y29899D01*
X10682Y30262D01*
X10806Y30622D01*
X10939Y30978D01*
X11080Y31332D01*
X11230Y31681D01*
X11388Y32027D01*
X11555Y32369D01*
X11730Y32707D01*
X11914Y33040D01*
X12105Y33369D01*
X12305Y33692D01*
X12512Y34011D01*
X12727Y34325D01*
X12950Y34633D01*
X13181Y34936D01*
X13418Y35233D01*
X13663Y35524D01*
X13915Y35809D01*
X14174Y36088D01*
X14440Y36360D01*
X14712Y36626D01*
X14991Y36885D01*
X15276Y37137D01*
X15567Y37382D01*
X15864Y37619D01*
X16167Y37850D01*
X16475Y38073D01*
X16789Y38288D01*
X17108Y38495D01*
X17431Y38695D01*
X17760Y38886D01*
X18093Y39070D01*
X18431Y39245D01*
X18773Y39412D01*
X19119Y39570D01*
X19468Y39720D01*
X19822Y39861D01*
X20178Y39994D01*
X20538Y40118D01*
X20901Y40233D01*
X21266Y40339D01*
X21634Y40435D01*
X22004Y40523D01*
X22376Y40602D01*
X22750Y40672D01*
X23126Y40732D01*
X23503Y40783D01*
X23881Y40825D01*
X24260Y40858D01*
X24639Y40881D01*
X25020Y40895D01*
X25400Y40900D01*
X25780Y40895D01*
X26161Y40881D01*
X26540Y40858D01*
X26919Y40825D01*
X27297Y40783D01*
X27674Y40732D01*
X28050Y40672D01*
X28424Y40602D01*
X28796Y40523D01*
X29166Y40435D01*
X29534Y40339D01*
X29899Y40233D01*
X30262Y40118D01*
X30622Y39994D01*
X30978Y39861D01*
X31332Y39720D01*
X31681Y39570D01*
X32027Y39412D01*
X32369Y39245D01*
X32707Y39070D01*
X33040Y38886D01*
X33369Y38695D01*
X33692Y38495D01*
X34011Y38288D01*
X34325Y38073D01*
X34633Y37850D01*
X34936Y37619D01*
X35233Y37382D01*
X35524Y37137D01*
X35809Y36885D01*
X36088Y36626D01*
X36360Y36360D01*
X36626Y36088D01*
X36885Y35809D01*
X37137Y35524D01*
X37382Y35233D01*
X37619Y34936D01*
X37850Y34633D01*
X38073Y34325D01*
X38288Y34011D01*
X38495Y33692D01*
X38695Y33369D01*
X38886Y33040D01*
X39070Y32707D01*
X39245Y32369D01*
X39412Y32027D01*
X39570Y31681D01*
X39720Y31332D01*
X39861Y30978D01*
X39994Y30622D01*
X40118Y30262D01*
X40233Y29899D01*
X40339Y29534D01*
X40435Y29166D01*
X40523Y28796D01*
X40602Y28424D01*
X40672Y28050D01*
X40732Y27674D01*
X40783Y27297D01*
X40825Y26919D01*
X40858Y26540D01*
X40881Y26161D01*
X40895Y25780D01*
X40900Y25400D01*
X40895Y25020D01*
X40881Y24639D01*
X40858Y24260D01*
X40825Y23881D01*
X40783Y23503D01*
X40732Y23126D01*
X40672Y22750D01*
X40602Y22376D01*
X40523Y22004D01*
X40435Y21634D01*
X40339Y21266D01*
X40233Y20901D01*
X40118Y20538D01*
X39994Y20178D01*
X39861Y19822D01*
X39720Y19468D01*
X39570Y19119D01*
X39412Y18773D01*
X39245Y18431D01*
X39070Y18093D01*
X38886Y17760D01*
X38695Y17431D01*
X38495Y17108D01*
X38288Y16789D01*
X38073Y16475D01*
X37850Y16167D01*
X37619Y15864D01*
X37382Y15567D01*
X37137Y15276D01*
X36885Y14991D01*
X36626Y14712D01*
X36360Y14440D01*
X36088Y14174D01*
X35809Y13915D01*
X35524Y13663D01*
X35233Y13418D01*
X34936Y13181D01*
X34633Y12950D01*
X34325Y12727D01*
X34011Y12512D01*
X33692Y12305D01*
X33369Y12105D01*
X33040Y11914D01*
X32707Y11730D01*
X32369Y11555D01*
X32027Y11388D01*
X31681Y11230D01*
X31332Y11080D01*
X30978Y10939D01*
X30622Y10806D01*
X30262Y10682D01*
X29899Y10567D01*
X29534Y10461D01*
X29166Y10365D01*
X28796Y10277D01*
X28424Y10198D01*
X28050Y10128D01*
X27674Y10068D01*
X27297Y10017D01*
X26919Y9975D01*
X26540Y9942D01*
X26161Y9919D01*
X25780Y9905D01*
X25400Y9900D01*
X25020Y9905D01*
X24639Y9919D01*
X24260Y9942D01*
X23881Y9975D01*
X23503Y10017D01*
X23126Y10068D01*
X22750Y10128D01*
X22376Y10198D01*
X22004Y10277D01*
X21634Y10365D01*
X21266Y10461D01*
X20901Y10567D01*
X20538Y10682D01*
X20178Y10806D01*
X19822Y10939D01*
X19468Y11080D01*
X19119Y11230D01*
X18773Y11388D01*
X18431Y11555D01*
X18093Y11730D01*
X17760Y11914D01*
X17431Y12105D01*
X17108Y12305D01*
X16789Y12512D01*
X16475Y12727D01*
X16167Y12950D01*
X15864Y13181D01*
X15567Y13418D01*
X15276Y13663D01*
X14991Y13915D01*
X14712Y14174D01*
X14440Y14440D01*
X14174Y14712D01*
X13915Y14991D01*
X13663Y15276D01*
X13418Y15567D01*
X13181Y15864D01*
X12950Y16167D01*
X12727Y16475D01*
X12512Y16789D01*
X12305Y17108D01*
X12105Y17431D01*
X11914Y17760D01*
X11730Y18093D01*
X11555Y18431D01*
X11388Y18773D01*
X11230Y19119D01*
X11080Y19468D01*
X10939Y19822D01*
X10806Y20178D01*
X10682Y20538D01*
X10567Y20901D01*
X10461Y21266D01*
X10365Y21634D01*
X10277Y22004D01*
X10198Y22376D01*
X10128Y22750D01*
X10068Y23126D01*
X10017Y23503D01*
X9975Y23881D01*
X9942Y24260D01*
X9919Y24639D01*
X9905Y25020D01*
X9900Y25400D01*
X225800Y25400D02*
X225805Y25780D01*
X225819Y26161D01*
X225842Y26540D01*
X225875Y26919D01*
X225917Y27297D01*
X225968Y27674D01*
X226028Y28050D01*
X226098Y28424D01*
X226177Y28796D01*
X226265Y29166D01*
X226361Y29534D01*
X226467Y29899D01*
X226582Y30262D01*
X226706Y30622D01*
X226839Y30978D01*
X226980Y31332D01*
X227130Y31681D01*
X227288Y32027D01*
X227455Y32369D01*
X227630Y32707D01*
X227814Y33040D01*
X228005Y33369D01*
X228205Y33692D01*
X228412Y34011D01*
X228627Y34325D01*
X228850Y34633D01*
X229081Y34936D01*
X229318Y35233D01*
X229563Y35524D01*
X229815Y35809D01*
X230074Y36088D01*
X230340Y36360D01*
X230612Y36626D01*
X230891Y36885D01*
X231176Y37137D01*
X231467Y37382D01*
X231764Y37619D01*
X232067Y37850D01*
X232375Y38073D01*
X232689Y38288D01*
X233008Y38495D01*
X233331Y38695D01*
X233660Y38886D01*
X233993Y39070D01*
X234331Y39245D01*
X234673Y39412D01*
X235019Y39570D01*
X235368Y39720D01*
X235722Y39861D01*
X236078Y39994D01*
X236438Y40118D01*
X236801Y40233D01*
X237166Y40339D01*
X237534Y40435D01*
X237904Y40523D01*
X238276Y40602D01*
X238650Y40672D01*
X239026Y40732D01*
X239403Y40783D01*
X239781Y40825D01*
X240160Y40858D01*
X240539Y40881D01*
X240920Y40895D01*
X241300Y40900D01*
X241680Y40895D01*
X242061Y40881D01*
X242440Y40858D01*
X242819Y40825D01*
X243197Y40783D01*
X243574Y40732D01*
X243950Y40672D01*
X244324Y40602D01*
X244696Y40523D01*
X245066Y40435D01*
X245434Y40339D01*
X245799Y40233D01*
X246162Y40118D01*
X246522Y39994D01*
X246878Y39861D01*
X247232Y39720D01*
X247581Y39570D01*
X247927Y39412D01*
X248269Y39245D01*
X248607Y39070D01*
X248940Y38886D01*
X249269Y38695D01*
X249592Y38495D01*
X249911Y38288D01*
X250225Y38073D01*
X250533Y37850D01*
X250836Y37619D01*
X251133Y37382D01*
X251424Y37137D01*
X251709Y36885D01*
X251988Y36626D01*
X252260Y36360D01*
X252526Y36088D01*
X252785Y35809D01*
X253037Y35524D01*
X253282Y35233D01*
X253519Y34936D01*
X253750Y34633D01*
X253973Y34325D01*
X254188Y34011D01*
X254395Y33692D01*
X254595Y33369D01*
X254786Y33040D01*
X254970Y32707D01*
X255145Y32369D01*
X255312Y32027D01*
X255470Y31681D01*
X255620Y31332D01*
X255761Y30978D01*
X255894Y30622D01*
X256018Y30262D01*
X256133Y29899D01*
X256239Y29534D01*
X256335Y29166D01*
X256423Y28796D01*
X256502Y28424D01*
X256572Y28050D01*
X256632Y27674D01*
X256683Y27297D01*
X256725Y26919D01*
X256758Y26540D01*
X256781Y26161D01*
X256795Y25780D01*
X256800Y25400D01*
X256795Y25020D01*
X256781Y24639D01*
X256758Y24260D01*
X256725Y23881D01*
X256683Y23503D01*
X256632Y23126D01*
X256572Y22750D01*
X256502Y22376D01*
X256423Y22004D01*
X256335Y21634D01*
X256239Y21266D01*
X256133Y20901D01*
X256018Y20538D01*
X255894Y20178D01*
X255761Y19822D01*
X255620Y19468D01*
X255470Y19119D01*
X255312Y18773D01*
X255145Y18431D01*
X254970Y18093D01*
X254786Y17760D01*
X254595Y17431D01*
X254395Y17108D01*
X254188Y16789D01*
X253973Y16475D01*
X253750Y16167D01*
X253519Y15864D01*
X253282Y15567D01*
X253037Y15276D01*
X252785Y14991D01*
X252526Y14712D01*
X252260Y14440D01*
X251988Y14174D01*
X251709Y13915D01*
X251424Y13663D01*
X251133Y13418D01*
X250836Y13181D01*
X250533Y12950D01*
X250225Y12727D01*
X249911Y12512D01*
X249592Y12305D01*
X249269Y12105D01*
X248940Y11914D01*
X248607Y11730D01*
X248269Y11555D01*
X247927Y11388D01*
X247581Y11230D01*
X247232Y11080D01*
X246878Y10939D01*
X246522Y10806D01*
X246162Y10682D01*
X245799Y10567D01*
X245434Y10461D01*
X245066Y10365D01*
X244696Y10277D01*
X244324Y10198D01*
X243950Y10128D01*
X243574Y10068D01*
X243197Y10017D01*
X242819Y9975D01*
X242440Y9942D01*
X242061Y9919D01*
X241680Y9905D01*
X241300Y9900D01*
X240920Y9905D01*
X240539Y9919D01*
X240160Y9942D01*
X239781Y9975D01*
X239403Y10017D01*
X239026Y10068D01*
X238650Y10128D01*
X238276Y10198D01*
X237904Y10277D01*
X237534Y10365D01*
X237166Y10461D01*
X236801Y10567D01*
X236438Y10682D01*
X236078Y10806D01*
X235722Y10939D01*
X235368Y11080D01*
X235019Y11230D01*
X234673Y11388D01*
X234331Y11555D01*
X233993Y11730D01*
X233660Y11914D01*
X233331Y12105D01*
X233008Y12305D01*
X232689Y12512D01*
X232375Y12727D01*
X232067Y12950D01*
X231764Y13181D01*
X231467Y13418D01*
X231176Y13663D01*
X230891Y13915D01*
X230612Y14174D01*
X230340Y14440D01*
X230074Y14712D01*
X229815Y14991D01*
X229563Y15276D01*
X229318Y15567D01*
X229081Y15864D01*
X228850Y16167D01*
X228627Y16475D01*
X228412Y16789D01*
X228205Y17108D01*
X228005Y17431D01*
X227814Y17760D01*
X227630Y18093D01*
X227455Y18431D01*
X227288Y18773D01*
X227130Y19119D01*
X226980Y19468D01*
X226839Y19822D01*
X226706Y20178D01*
X226582Y20538D01*
X226467Y20901D01*
X226361Y21266D01*
X226265Y21634D01*
X226177Y22004D01*
X226098Y22376D01*
X226028Y22750D01*
X225968Y23126D01*
X225917Y23503D01*
X225875Y23881D01*
X225842Y24260D01*
X225819Y24639D01*
X225805Y25020D01*
X225800Y25400D01*
X225800Y177800D02*
X225805Y178180D01*
X225819Y178561D01*
X225842Y178940D01*
X225875Y179319D01*
X225917Y179697D01*
X225968Y180074D01*
X226028Y180450D01*
X226098Y180824D01*
X226177Y181196D01*
X226265Y181566D01*
X226361Y181934D01*
X226467Y182299D01*
X226582Y182662D01*
X226706Y183022D01*
X226839Y183378D01*
X226980Y183732D01*
X227130Y184081D01*
X227288Y184427D01*
X227455Y184769D01*
X227630Y185107D01*
X227814Y185440D01*
X228005Y185769D01*
X228205Y186092D01*
X228412Y186411D01*
X228627Y186725D01*
X228850Y187033D01*
X229081Y187336D01*
X229318Y187633D01*
X229563Y187924D01*
X229815Y188209D01*
X230074Y188488D01*
X230340Y188760D01*
X230612Y189026D01*
X230891Y189285D01*
X231176Y189537D01*
X231467Y189782D01*
X231764Y190019D01*
X232067Y190250D01*
X232375Y190473D01*
X232689Y190688D01*
X233008Y190895D01*
X233331Y191095D01*
X233660Y191286D01*
X233993Y191470D01*
X234331Y191645D01*
X234673Y191812D01*
X235019Y191970D01*
X235368Y192120D01*
X235722Y192261D01*
X236078Y192394D01*
X236438Y192518D01*
X236801Y192633D01*
X237166Y192739D01*
X237534Y192835D01*
X237904Y192923D01*
X238276Y193002D01*
X238650Y193072D01*
X239026Y193132D01*
X239403Y193183D01*
X239781Y193225D01*
X240160Y193258D01*
X240539Y193281D01*
X240920Y193295D01*
X241300Y193300D01*
X241680Y193295D01*
X242061Y193281D01*
X242440Y193258D01*
X242819Y193225D01*
X243197Y193183D01*
X243574Y193132D01*
X243950Y193072D01*
X244324Y193002D01*
X244696Y192923D01*
X245066Y192835D01*
X245434Y192739D01*
X245799Y192633D01*
X246162Y192518D01*
X246522Y192394D01*
X246878Y192261D01*
X247232Y192120D01*
X247581Y191970D01*
X247927Y191812D01*
X248269Y191645D01*
X248607Y191470D01*
X248940Y191286D01*
X249269Y191095D01*
X249592Y190895D01*
X249911Y190688D01*
X250225Y190473D01*
X250533Y190250D01*
X250836Y190019D01*
X251133Y189782D01*
X251424Y189537D01*
X251709Y189285D01*
X251988Y189026D01*
X252260Y188760D01*
X252526Y188488D01*
X252785Y188209D01*
X253037Y187924D01*
X253282Y187633D01*
X253519Y187336D01*
X253750Y187033D01*
X253973Y186725D01*
X254188Y186411D01*
X254395Y186092D01*
X254595Y185769D01*
X254786Y185440D01*
X254970Y185107D01*
X255145Y184769D01*
X255312Y184427D01*
X255470Y184081D01*
X255620Y183732D01*
X255761Y183378D01*
X255894Y183022D01*
X256018Y182662D01*
X256133Y182299D01*
X256239Y181934D01*
X256335Y181566D01*
X256423Y181196D01*
X256502Y180824D01*
X256572Y180450D01*
X256632Y180074D01*
X256683Y179697D01*
X256725Y179319D01*
X256758Y178940D01*
X256781Y178561D01*
X256795Y178180D01*
X256800Y177800D01*
X256795Y177420D01*
X256781Y177039D01*
X256758Y176660D01*
X256725Y176281D01*
X256683Y175903D01*
X256632Y175526D01*
X256572Y175150D01*
X256502Y174776D01*
X256423Y174404D01*
X256335Y174034D01*
X256239Y173666D01*
X256133Y173301D01*
X256018Y172938D01*
X255894Y172578D01*
X255761Y172222D01*
X255620Y171868D01*
X255470Y171519D01*
X255312Y171173D01*
X255145Y170831D01*
X254970Y170493D01*
X254786Y170160D01*
X254595Y169831D01*
X254395Y169508D01*
X254188Y169189D01*
X253973Y168875D01*
X253750Y168567D01*
X253519Y168264D01*
X253282Y167967D01*
X253037Y167676D01*
X252785Y167391D01*
X252526Y167112D01*
X252260Y166840D01*
X251988Y166574D01*
X251709Y166315D01*
X251424Y166063D01*
X251133Y165818D01*
X250836Y165581D01*
X250533Y165350D01*
X250225Y165127D01*
X249911Y164912D01*
X249592Y164705D01*
X249269Y164505D01*
X248940Y164314D01*
X248607Y164130D01*
X248269Y163955D01*
X247927Y163788D01*
X247581Y163630D01*
X247232Y163480D01*
X246878Y163339D01*
X246522Y163206D01*
X246162Y163082D01*
X245799Y162967D01*
X245434Y162861D01*
X245066Y162765D01*
X244696Y162677D01*
X244324Y162598D01*
X243950Y162528D01*
X243574Y162468D01*
X243197Y162417D01*
X242819Y162375D01*
X242440Y162342D01*
X242061Y162319D01*
X241680Y162305D01*
X241300Y162300D01*
X240920Y162305D01*
X240539Y162319D01*
X240160Y162342D01*
X239781Y162375D01*
X239403Y162417D01*
X239026Y162468D01*
X238650Y162528D01*
X238276Y162598D01*
X237904Y162677D01*
X237534Y162765D01*
X237166Y162861D01*
X236801Y162967D01*
X236438Y163082D01*
X236078Y163206D01*
X235722Y163339D01*
X235368Y163480D01*
X235019Y163630D01*
X234673Y163788D01*
X234331Y163955D01*
X233993Y164130D01*
X233660Y164314D01*
X233331Y164505D01*
X233008Y164705D01*
X232689Y164912D01*
X232375Y165127D01*
X232067Y165350D01*
X231764Y165581D01*
X231467Y165818D01*
X231176Y166063D01*
X230891Y166315D01*
X230612Y166574D01*
X230340Y166840D01*
X230074Y167112D01*
X229815Y167391D01*
X229563Y167676D01*
X229318Y167967D01*
X229081Y168264D01*
X228850Y168567D01*
X228627Y168875D01*
X228412Y169189D01*
X228205Y169508D01*
X228005Y169831D01*
X227814Y170160D01*
X227630Y170493D01*
X227455Y170831D01*
X227288Y171173D01*
X227130Y171519D01*
X226980Y171868D01*
X226839Y172222D01*
X226706Y172578D01*
X226582Y172938D01*
X226467Y173301D01*
X226361Y173666D01*
X226265Y174034D01*
X226177Y174404D01*
X226098Y174776D01*
X226028Y175150D01*
X225968Y175526D01*
X225917Y175903D01*
X225875Y176281D01*
X225842Y176660D01*
X225819Y177039D01*
X225805Y177420D01*
X225800Y177800D01*
M02*
