M48
;GenerationSoftware,Autodesk,EAGLE,9.3.2*%
;CreationDate,2020-06-11T17:05:00Z*%
FMAT,2
ICI,OFF
METRIC,TZ,000.000
T4C1.016
T3C1.194
T2C3.500
T1C5.000
%
G90
M71
T1
X30480Y102870
X7620Y115570
X7620Y109220
X7620Y102870
X73660Y41910
X80010Y41910
X86360Y41910
X73660Y27940
X80010Y27940
X86360Y27940
X73660Y11430
X80010Y11430
X86360Y11430
X73660Y55880
X80010Y55880
X86360Y55880
X66040Y115570
X30480Y109220
X30480Y115570
X48260Y102870
X48260Y109220
X48260Y115570
X66040Y102870
X66040Y109220
T2
X62540Y12390
X62540Y70390
X13540Y70390
X13540Y12390
X5080Y91440
X5080Y5080
X82550Y5080
X82550Y91440
T3
X78740Y82510
X78740Y77510
T4
X12192Y19812
X14732Y19812
X14732Y22352
X12192Y17272
X12192Y24892
X14732Y24892
X14732Y27432
X12192Y27432
X12192Y29972
X14732Y29972
X14732Y32512
X12192Y32512
X12192Y35052
X14732Y35052
X14732Y37592
X12192Y37592
X12192Y40132
X14732Y40132
X14732Y42672
X12192Y42672
X12192Y45212
X14732Y45212
X14732Y47752
X12192Y47752
X12192Y50292
X14732Y50292
X14732Y52832
X12192Y52832
X12192Y55372
X14732Y55372
X14732Y57912
X12192Y57912
X12192Y60452
X14732Y60452
X14732Y62992
X12192Y62992
X12192Y65532
X14732Y65532
X14732Y17272
X12192Y22352
M30